M48
; DRILL file {KiCad 7.0.8} date Sat Nov 18 20:48:22 2023
; FORMAT={-:-/ absolute / metric / decimal}
; #@! TF.CreationDate,2023-11-18T20:48:22-05:00
; #@! TF.GenerationSoftware,Kicad,Pcbnew,7.0.8
; #@! TF.FileFunction,Plated,1,4,PTH
FMAT,2
METRIC
; #@! TA.AperFunction,Plated,PTH,ViaDrill
T1C0.400
; #@! TA.AperFunction,Plated,PTH,ComponentDrill
T2C0.800
; #@! TA.AperFunction,Plated,PTH,ComponentDrill
T3C0.965
; #@! TA.AperFunction,Plated,PTH,ComponentDrill
T4C1.000
; #@! TA.AperFunction,Plated,PTH,ComponentDrill
T5C1.016
; #@! TA.AperFunction,Plated,PTH,ComponentDrill
T6C1.270
; #@! TA.AperFunction,Plated,PTH,ComponentDrill
T7C3.175
; #@! TA.AperFunction,Plated,PTH,ComponentDrill
T8C3.200
%
G90
G05
T1
X94.512Y-97.068
X94.639Y-94.757
X94.664Y-99.304
X94.741Y-90.972
X94.766Y-93.36
X94.842Y-101.513
X94.868Y-117.236
X94.893Y-113.604
X94.944Y-115.458
X95.096Y-111.826
X95.274Y-95.976
X95.325Y-98.135
X95.528Y-118.455
X95.68Y-100.269
X95.706Y-110.276
X95.833Y-94.427
X95.909Y-92.293
X96.468Y-101.513
X96.469Y-115.494
X96.519Y-117.287
X96.62Y-91.074
X96.62Y-93.385
X97.408Y-100.447
X97.636Y-92.293
X97.942Y-116.18
X98.246Y-101.513
X98.373Y-91.074
X98.474Y-93.284
X98.552Y-117.388
X99.16Y-100.396
X99.212Y-87.859
X99.44Y-92.268
X99.466Y-116.053
X99.973Y-101.513
X100.075Y-91.099
X100.227Y-93.335
X100.786Y-100.167
X101.016Y-115.138
X101.091Y-117.261
X101.167Y-92.242
X101.167Y-94.503
X101.395Y-110.276
X101.421Y-111.826
X101.649Y-101.463
X101.776Y-91.074
X102.005Y-93.284
X102.132Y-115.839
X102.208Y-100.142
X102.234Y-98.618
X102.259Y-95.646
X102.259Y-97.094
X102.31Y-113.528
X102.311Y-75.336
X102.616Y-77.089
X102.64Y-94.478
X102.743Y-105.029
X102.768Y-74.447
X102.792Y-92.242
X102.895Y-103.596
X103.073Y-76.2
X103.275Y-110.251
X103.3Y-111.826
X103.326Y-114.772
X103.326Y-117.261
X103.529Y-90.998
X103.683Y-77.597
X103.835Y-75.286
X104.088Y-118.404
X104.316Y-113.528
X104.342Y-115.89
X104.47Y-74.346
X104.699Y-99.644
X105.002Y-110.251
X105.078Y-111.8
X105.104Y-117.312
X105.256Y-114.772
X105.385Y-75.082
X105.613Y-88.519
X105.791Y-87.224
X105.816Y-106.401
X105.967Y-113.528
X106.069Y-115.966
X106.094Y-118.455
X106.729Y-92.293
X106.856Y-110.276
X106.882Y-111.8
X107.163Y-117.272
X107.417Y-75.565
X107.441Y-91.049
X108.026Y-100.609
X108.077Y-118.313
X108.228Y-92.293
X108.533Y-110.302
X108.558Y-111.75
X109.117Y-91.074
X109.245Y-74.625
X109.296Y-117.17
X109.855Y-118.389
X109.904Y-92.369
X109.981Y-110.327
X110.465Y-125.832
X111.047Y-91.023
X111.176Y-93.548
X111.531Y-87.274
X111.809Y-92.395
X111.936Y-94.554
X111.936Y-95.824
X111.962Y-97.322
X111.987Y-98.669
X112.649Y-93.523
X112.724Y-91.074
X113.081Y-74.625
X113.587Y-92.42
X114.148Y-117.373
X114.173Y-109.728
X114.376Y-79.883
X114.516Y-124.498
X114.629Y-91.176
X114.833Y-118.593
X114.96Y-110.922
X115.037Y-86.995
X115.037Y-89.713
X115.543Y-92.42
X115.824Y-117.348
X115.849Y-109.804
X116.483Y-91.15
X116.484Y-110.998
X116.586Y-118.491
X116.916Y-80.62
X117.397Y-92.446
X117.45Y-117.45
X117.5Y-109.779
X118.059Y-89.23
X118.237Y-118.618
X118.339Y-111.074
X118.339Y-116.281
X118.364Y-113.436
X119.151Y-84.099
X119.177Y-115.062
X119.202Y-86.995
X119.253Y-109.753
X119.278Y-112.217
X119.278Y-118.059
X120.066Y-111.074
X120.091Y-113.462
X120.371Y-125.273
X120.396Y-123.622
X120.904Y-109.703
X120.955Y-112.243
X121.03Y-92.801
X121.03Y-94.782
X121.106Y-96.56
X121.157Y-98.44
X121.207Y-100.497
X121.284Y-91.226
X121.614Y-103.723
X121.691Y-111.074
X121.715Y-101.717
X121.842Y-99.507
X121.893Y-95.697
X121.893Y-97.449
X121.919Y-93.919
X122.198Y-92.166
X122.707Y-109.753
X122.784Y-112.243
X123.417Y-93.868
X123.469Y-111.074
X123.596Y-76.911
X124.384Y-109.779
X124.511Y-112.217
X124.993Y-118.643
X125.298Y-111.074
X125.374Y-113.36
X126.39Y-126.533
X126.414Y-92.227
X128.473Y-91.364
X129.386Y-93.995
X129.845Y-111.887
X130.429Y-123.149
X131.393Y-92.649
X131.418Y-94.376
X131.418Y-95.849
X131.418Y-99.431
X131.469Y-97.653
X131.469Y-101.285
X131.547Y-124.732
X132.714Y-93.462
X132.739Y-96.713
X132.764Y-91.912
X132.79Y-95.087
X132.79Y-101.971
X132.815Y-100.243
X132.841Y-98.542
X132.842Y-111.074
X133.007Y-124.575
X133.984Y-91.887
X133.984Y-101.285
X134.06Y-93.411
X134.085Y-94.96
X134.315Y-117.881
X135.203Y-92.649
X135.203Y-100.726
X135.279Y-91.201
X135.304Y-94.376
X135.304Y-102.123
X135.892Y-109.843
X136.093Y-106.502
X136.093Y-108.407
X136.295Y-93.258
X136.371Y-101.437
X136.397Y-91.861
X137.514Y-92.877
X137.514Y-93.868
X137.59Y-91.074
X137.667Y-100.878
X137.719Y-125.207
X137.743Y-102.098
X137.795Y-118.313
X138.632Y-92.09
X138.683Y-94.681
X138.708Y-93.36
X138.886Y-101.488
X139.7Y-79.679
X139.776Y-122.923
X139.8Y-91.353
X139.8Y-95.697
X139.826Y-94.071
X139.876Y-98.999
X139.902Y-92.7
X139.927Y-100.701
X139.942Y-108.788
X139.978Y-97.373
X139.979Y-111.912
X140.029Y-101.945
X140.056Y-118.161
X140.614Y-85.954
X140.894Y-82.017
X140.919Y-123.454
X140.933Y-79.031
X141.262Y-105.651
X142.088Y-87.173
X142.469Y-108.864
X142.85Y-80.67
X143.18Y-124.297
X143.408Y-93.726
X143.993Y-116.281
X144.221Y-96.876
X144.45Y-113.868
X145.059Y-100.482
X145.444Y-113.973
X147.422Y-87.198
X147.422Y-110.973
X147.701Y-81.559
X147.969Y-113.799
X148.692Y-124.689
X148.742Y-119.253
X148.819Y-120.802
X148.862Y-113.35
X148.971Y-100.305
X148.996Y-104.445
X149.047Y-88.494
X150.139Y-122.389
X150.406Y-113.775
X151.461Y-113.745
X151.638Y-118.389
X151.816Y-104.064
X152.146Y-102.184
X152.5Y-117.8
X152.623Y-104.855
X152.908Y-99.39
X152.955Y-112.975
X153.645Y-113.716
X153.789Y-118.94
X153.949Y-117.831
X154.127Y-93.015
X154.217Y-106.033
X154.965Y-113.665
X155.723Y-87.178
X155.753Y-104.596
X155.992Y-112.522
X156.007Y-110.566
X156.489Y-103.657
X156.515Y-108.712
X156.769Y-99.994
X156.896Y-118.643
X157.81Y-108.61
X158.369Y-122.555
X158.547Y-96.799
X158.877Y-79.578
X159.143Y-94.412
X159.436Y-97.612
X159.766Y-98.755
X159.969Y-99.873
X160.205Y-105.562
X160.528Y-82.601
X160.68Y-97.561
X160.681Y-94.683
X162.128Y-98.755
X162.382Y-101.549
X162.712Y-112.141
X163.812Y-113.411
X164.719Y-125.628
X164.836Y-94.437
X165.76Y-105.308
X166.294Y-126.187
X166.759Y-88.811
X166.948Y-99.35
X168.808Y-101.549
X168.935Y-120.625
X168.986Y-93.04
X169.824Y-94.437
X169.875Y-96.481
X169.938Y-90.762
X170.713Y-110.465
X171.745Y-98.54
X171.831Y-104.445
X171.905Y-99.656
X173.33Y-100.66
X174.297Y-85.749
X174.396Y-75.971
X175.732Y-105.283
X175.92Y-89.332
X176.251Y-101.448
X176.454Y-97.206
X177.089Y-99.695
X177.775Y-80.289
X178.029Y-74.522
X179.172Y-99.898
X179.248Y-88.367
X179.299Y-113.703
X180.289Y-96.622
X181.458Y-111.277
X181.889Y-88.519
X182.956Y-91.821
X183.972Y-95.58
X184.658Y-123.139
X185.674Y-111.125
X186.639Y-93.167
X186.639Y-99.847
X188.036Y-109.601
X188.366Y-120.752
X189.683Y-91.216
X191.389Y-111.43
X191.481Y-101.956
X193.345Y-91.034
X193.573Y-94.513
X194.234Y-108.89
X194.285Y-81.686
X195.021Y-88.875
X195.123Y-79.426
X195.961Y-97.663
X196.506Y-98.908
X197.231Y-94.259
X197.383Y-107.379
X197.841Y-111.506
X198.222Y-104.978
X198.281Y-109.944
X198.697Y-101.099
X198.984Y-87.584
X199.06Y-96.942
X199.72Y-119.126
X199.771Y-80.95
X201.143Y-110.871
X201.625Y-96.393
X203.327Y-91.389
X203.385Y-105.657
X203.581Y-108.368
X203.657Y-82.626
X205.181Y-104.99
X205.791Y-87.427
X205.816Y-92.608
X206.477Y-107.518
X206.883Y-86.964
X207.645Y-104.242
X207.645Y-109.157
X208.636Y-91.618
X208.966Y-120.04
X209.728Y-103.988
X209.753Y-105.232
X210.007Y-91.491
X210.414Y-94.844
X210.972Y-82.728
X212.344Y-110.846
X212.42Y-78.105
X213.982Y-89.446
X214.274Y-106.02
X214.325Y-105.004
X215.976Y-102.972
X216.789Y-97.587
X217.449Y-90.856
X217.932Y-107.112
X218.059Y-109.55
T2
X206.449Y-115.011
X211.331Y-115.011
T3
X159.842Y-88.722
X159.842Y-91.262
X159.842Y-109.042
X159.842Y-111.582
X220.802Y-88.722
X220.802Y-91.262
X220.802Y-93.802
X220.802Y-96.342
X220.802Y-98.882
X220.802Y-101.422
X220.802Y-103.962
X220.802Y-106.502
X220.802Y-109.042
X220.802Y-111.582
T4
X124.46Y-84.409
X124.46Y-86.949
X128.016Y-115.037
X128.778Y-84.409
X128.778Y-86.949
X130.556Y-115.037
X133.096Y-115.037
X133.274Y-84.328
X133.274Y-86.868
X135.636Y-115.037
X137.541Y-84.358
X137.541Y-86.898
X138.176Y-115.037
X146.482Y-116.129
X146.487Y-85.014
X149.022Y-116.129
X149.027Y-85.014
X151.562Y-116.129
X153.167Y-84.963
X155.707Y-84.963
X156.083Y-116.103
X156.362Y-91.084
X156.362Y-93.624
X156.362Y-96.164
X158.623Y-116.103
X160.02Y-84.836
X161.163Y-116.103
X162.56Y-84.836
X165.1Y-84.836
X165.151Y-116.154
X167.691Y-116.154
X169.621Y-85.014
X170.231Y-116.154
X172.161Y-85.014
X174.244Y-116.154
X176.784Y-116.154
X176.86Y-84.938
X179.324Y-116.154
X179.4Y-84.938
X181.864Y-116.154
X181.94Y-84.938
X185.801Y-116.053
X186.131Y-84.938
X188.341Y-116.053
X188.671Y-84.938
X190.881Y-116.053
X192.918Y-85.039
X195.351Y-116.002
X195.458Y-85.039
X197.891Y-116.002
X197.998Y-85.039
X200.431Y-116.002
X202.184Y-85.039
X204.724Y-85.039
X209.118Y-85.065
X211.658Y-85.065
T5
X149.352Y-91.313
X149.352Y-93.853
X149.352Y-96.393
X151.892Y-91.313
X151.892Y-93.853
X151.892Y-96.393
T6
X124.841Y-90.526
X126.797Y-79.604
X130.708Y-79.527
X134.874Y-79.553
X143.358Y-78.588
X203.225Y-124.155
X207.721Y-124.231
T7
X98.425Y-112.649
X98.576Y-96.941
X122.199Y-116.408
X136.549Y-97.703
T8
X99.746Y-79.756
X99.746Y-121.031
X216.586Y-79.756
X216.586Y-121.031
T0
M30
