M48
; DRILL file {KiCad 7.0.7} date Thu Mar 21 09:31:32 2024
; FORMAT={3:3/ absolute / metric / suppress leading zeros}
; #@! TF.CreationDate,2024-03-21T09:31:32-04:00
; #@! TF.GenerationSoftware,Kicad,Pcbnew,7.0.7
; #@! TF.FileFunction,Plated,1,4,PTH
FMAT,2
METRIC,TZ
; #@! TA.AperFunction,Plated,PTH,ViaDrill
T1C0.400
; #@! TA.AperFunction,Plated,PTH,ComponentDrill
T2C0.800
; #@! TA.AperFunction,Plated,PTH,ComponentDrill
T3C0.965
; #@! TA.AperFunction,Plated,PTH,ComponentDrill
T4C0.991
; #@! TA.AperFunction,Plated,PTH,ComponentDrill
T5C1.000
; #@! TA.AperFunction,Plated,PTH,ComponentDrill
T6C1.016
; #@! TA.AperFunction,Plated,PTH,ComponentDrill
T7C1.100
; #@! TA.AperFunction,Plated,PTH,ComponentDrill
T8C1.270
; #@! TA.AperFunction,Plated,PTH,ComponentDrill
T9C3.200
; #@! TA.AperFunction,Plated,PTH,ComponentDrill
T10C4.000
%
G90
G05
T1
X95123Y-76835
X102743Y-76708
X106553Y-78867
X106679Y-121828
X106680Y-96901
X106680Y-103759
X108077Y-77978
X108204Y-76200
X108458Y-124333
X108585Y-125984
X112522Y-126619
X113030Y-77851
X117983Y-75784
X118878Y-74682
X119068Y-76777
X140970Y-119761
X141442Y-89309
X141732Y-94234
X141732Y-95377
X141732Y-96647
X141732Y-97917
X141732Y-99314
X141732Y-101219
X141732Y-102489
X141732Y-103886
X141732Y-105156
X141732Y-106553
X141859Y-113792
X142149Y-83058
X142875Y-86868
X142875Y-88138
X143002Y-94234
X143002Y-95377
X143002Y-96647
X143002Y-97917
X143002Y-99314
X143002Y-101219
X143002Y-102489
X143002Y-106553
X143176Y-79938
X143637Y-75819
X143850Y-125679
X143942Y-85573
X144145Y-86868
X144145Y-88138
X144272Y-94234
X144272Y-95377
X144399Y-101219
X144399Y-102489
X144399Y-106553
X145415Y-86868
X145415Y-88138
X146050Y-100203
X146050Y-101346
X146050Y-102489
X146228Y-85065
X146329Y-121031
X146685Y-86868
X146685Y-88138
X147066Y-100203
X147066Y-101346
X147066Y-102489
X147422Y-107950
X148336Y-98552
X148336Y-99949
X148336Y-101219
X148336Y-102489
X148336Y-111455
X148539Y-106375
X148920Y-120701
X149035Y-92130
X149149Y-96876
X149352Y-77851
X149352Y-111963
X149606Y-114300
X149646Y-91018
X149860Y-98552
X149860Y-99949
X149860Y-101219
X149860Y-102489
X150266Y-97434
X150368Y-111455
X151333Y-98577
X151333Y-99974
X151333Y-101194
X151384Y-111912
X151413Y-91345
X151511Y-76073
X152476Y-86030
X152636Y-98418
X153035Y-88392
X153111Y-96723
X153543Y-86741
X154000Y-79597
X154483Y-125679
X154940Y-106334
X156007Y-88773
X156083Y-100838
X156464Y-126111
X156489Y-99543
X156616Y-104597
X157093Y-81020
X157480Y-79756
X157734Y-103200
X157867Y-116820
X158300Y-91658
X158369Y-82931
X158435Y-84963
X158623Y-94996
X158623Y-124587
X158886Y-89290
X160045Y-122885
X160147Y-100838
X160401Y-98806
X161239Y-84684
X161544Y-124079
X162814Y-84074
X163398Y-86944
X163982Y-90983
X164770Y-117831
X165227Y-86995
X165826Y-112141
X165862Y-103124
X166624Y-108169
X166776Y-86578
X166878Y-115570
X167005Y-112268
X167310Y-121793
X168402Y-115824
X168529Y-112141
X169926Y-107985
X170688Y-90805
X171069Y-96520
X171069Y-126746
X171196Y-104013
X172212Y-96774
X172257Y-103541
X172466Y-115298
X173101Y-105230
X173609Y-103582
X173990Y-110109
X174244Y-108331
X174371Y-104394
X175647Y-116205
X175768Y-96774
X176063Y-103124
X176820Y-101854
X177038Y-88900
X177292Y-96774
X177330Y-111633
X179197Y-89027
X179324Y-102870
X179324Y-104140
X179324Y-105410
X179705Y-97282
X180213Y-108458
X182372Y-98552
X183769Y-86360
X184277Y-109601
X184277Y-112903
X184785Y-80899
X185547Y-113411
X186309Y-104775
X186309Y-109728
X188849Y-87122
X189103Y-101473
X189484Y-114173
X190373Y-85979
X191516Y-113411
X191770Y-86868
X191824Y-90551
X191897Y-102235
X192551Y-98933
X193278Y-86868
X193278Y-90805
X193294Y-97790
X193456Y-85598
X193802Y-113665
X194412Y-123088
X194564Y-108458
X197358Y-83185
X197536Y-122098
X197739Y-105664
X198628Y-89154
X199644Y-107823
X200370Y-114294
X200787Y-105826
X201041Y-91059
X201295Y-102616
X202438Y-90932
X203454Y-98806
X203962Y-91059
X204216Y-96774
X204597Y-107696
X204978Y-99060
X204978Y-109982
X207061Y-120828
X207518Y-122682
X207645Y-112903
X207772Y-114427
X208280Y-107442
X209296Y-97663
X209474Y-83033
X210228Y-109939
X211582Y-104140
X212344Y-75565
X213487Y-89881
X215392Y-88646
X216027Y-105918
X217043Y-101600
X217043Y-106680
X218313Y-98298
X218821Y-107061
X219456Y-85979
X219589Y-88906
X219837Y-97790
T2
X200911Y-84455
X205793Y-84455
T3
X160528Y-88900
X160528Y-91440
X160528Y-109220
X160528Y-111760
X221488Y-88900
X221488Y-91440
X221488Y-93980
X221488Y-96520
X221488Y-99060
X221488Y-101600
X221488Y-104140
X221488Y-106680
X221488Y-109220
X221488Y-111760
T4
X145089Y-119464
X147589Y-119464
X149276Y-81407
X150089Y-119464
X151776Y-81407
X152589Y-119464
X155089Y-119464
X163474Y-119532
X165974Y-119532
T5
X161783Y-81327
X164283Y-81327
X166783Y-81327
X169283Y-81327
X171783Y-81327
X174283Y-81327
X174727Y-119435
X176783Y-81327
X177227Y-119435
X179283Y-81327
X179727Y-119435
X182227Y-119435
X189545Y-116942
X192085Y-116942
X194625Y-116942
X201447Y-116942
X203987Y-116942
X206527Y-116942
T6
X202428Y-75824
X202428Y-78364
X204968Y-75824
X204968Y-78364
X207508Y-75824
X207508Y-78364
T7
X188798Y-81255
X191298Y-81255
X193798Y-81255
T8
X121666Y-76454
X126661Y-76454
X129134Y-125603
X131657Y-76454
X133680Y-125603
X136652Y-76454
T9
X99746Y-79756
X99746Y-121031
X216586Y-79756
X216586Y-121031
T10
X97536Y-91258
X97536Y-100258
X136144Y-100330
X136144Y-109330
T0
M30
