%TF.GenerationSoftware,KiCad,Pcbnew,7.0.7*%
%TF.CreationDate,2024-03-21T09:31:29-04:00*%
%TF.ProjectId,BMB,424d422e-6b69-4636-9164-5f7063625858,rev?*%
%TF.SameCoordinates,Original*%
%TF.FileFunction,Soldermask,Top*%
%TF.FilePolarity,Negative*%
%FSLAX46Y46*%
G04 Gerber Fmt 4.6, Leading zero omitted, Abs format (unit mm)*
G04 Created by KiCad (PCBNEW 7.0.7) date 2024-03-21 09:31:29*
%MOMM*%
%LPD*%
G01*
G04 APERTURE LIST*
G04 Aperture macros list*
%AMRoundRect*
0 Rectangle with rounded corners*
0 $1 Rounding radius*
0 $2 $3 $4 $5 $6 $7 $8 $9 X,Y pos of 4 corners*
0 Add a 4 corners polygon primitive as box body*
4,1,4,$2,$3,$4,$5,$6,$7,$8,$9,$2,$3,0*
0 Add four circle primitives for the rounded corners*
1,1,$1+$1,$2,$3*
1,1,$1+$1,$4,$5*
1,1,$1+$1,$6,$7*
1,1,$1+$1,$8,$9*
0 Add four rect primitives between the rounded corners*
20,1,$1+$1,$2,$3,$4,$5,0*
20,1,$1+$1,$4,$5,$6,$7,0*
20,1,$1+$1,$6,$7,$8,$9,0*
20,1,$1+$1,$8,$9,$2,$3,0*%
%AMOutline4P*
0 Free polygon, 4 corners , with rotation*
0 The origin of the aperture is its center*
0 number of corners: always 4*
0 $1 to $8 corner X, Y*
0 $9 Rotation angle, in degrees counterclockwise*
0 create outline with 4 corners*
4,1,4,$1,$2,$3,$4,$5,$6,$7,$8,$1,$2,$9*%
%AMOutline5P*
0 Free polygon, 5 corners , with rotation*
0 The origin of the aperture is its center*
0 number of corners: always 5*
0 $1 to $10 corner X, Y*
0 $11 Rotation angle, in degrees counterclockwise*
0 create outline with 5 corners*
4,1,5,$1,$2,$3,$4,$5,$6,$7,$8,$9,$10,$1,$2,$11*%
%AMOutline6P*
0 Free polygon, 6 corners , with rotation*
0 The origin of the aperture is its center*
0 number of corners: always 6*
0 $1 to $12 corner X, Y*
0 $13 Rotation angle, in degrees counterclockwise*
0 create outline with 6 corners*
4,1,6,$1,$2,$3,$4,$5,$6,$7,$8,$9,$10,$11,$12,$1,$2,$13*%
%AMOutline7P*
0 Free polygon, 7 corners , with rotation*
0 The origin of the aperture is its center*
0 number of corners: always 7*
0 $1 to $14 corner X, Y*
0 $15 Rotation angle, in degrees counterclockwise*
0 create outline with 7 corners*
4,1,7,$1,$2,$3,$4,$5,$6,$7,$8,$9,$10,$11,$12,$13,$14,$1,$2,$15*%
%AMOutline8P*
0 Free polygon, 8 corners , with rotation*
0 The origin of the aperture is its center*
0 number of corners: always 8*
0 $1 to $16 corner X, Y*
0 $17 Rotation angle, in degrees counterclockwise*
0 create outline with 8 corners*
4,1,8,$1,$2,$3,$4,$5,$6,$7,$8,$9,$10,$11,$12,$13,$14,$15,$16,$1,$2,$17*%
G04 Aperture macros list end*
%ADD10R,1.270000X1.524000*%
%ADD11C,1.905000*%
%ADD12C,5.500000*%
%ADD13R,5.500000X5.500000*%
%ADD14C,5.600000*%
%ADD15R,0.635000X0.838200*%
%ADD16R,1.270000X1.905000*%
%ADD17RoundRect,0.102500X-0.257500X-0.102500X0.257500X-0.102500X0.257500X0.102500X-0.257500X0.102500X0*%
%ADD18R,0.510000X0.585000*%
%ADD19R,3.990000X3.960000*%
%ADD20R,0.410000X0.470000*%
%ADD21R,1.041400X0.660400*%
%ADD22R,1.524000X1.270000*%
%ADD23RoundRect,0.150000X0.587500X0.150000X-0.587500X0.150000X-0.587500X-0.150000X0.587500X-0.150000X0*%
%ADD24R,1.727200X1.727200*%
%ADD25O,1.727200X1.727200*%
%ADD26RoundRect,0.102500X0.257500X0.102500X-0.257500X0.102500X-0.257500X-0.102500X0.257500X-0.102500X0*%
%ADD27C,1.524000*%
%ADD28R,0.800100X1.300860*%
%ADD29R,1.300860X0.800100*%
%ADD30RoundRect,0.150000X0.512500X0.150000X-0.512500X0.150000X-0.512500X-0.150000X0.512500X-0.150000X0*%
%ADD31R,0.600000X2.200000*%
%ADD32R,3.450000X2.150000*%
%ADD33Outline5P,-3.810000X1.270000X3.810000X1.270000X3.810000X-1.270000X-3.302000X-1.270000X-3.810000X-0.762000X270.000000*%
%ADD34Outline4P,-1.514475X-0.663575X1.514475X-0.663575X0.371475X0.663575X-0.371475X0.663575X180.000000*%
%ADD35Outline5P,-3.810000X0.762000X-3.302000X1.270000X3.810000X1.270000X3.810000X-1.270000X-3.810000X-1.270000X270.000000*%
%ADD36C,1.498600*%
%ADD37C,1.501140*%
%ADD38RoundRect,0.102000X-0.754000X-0.754000X0.754000X-0.754000X0.754000X0.754000X-0.754000X0.754000X0*%
%ADD39C,1.712000*%
%ADD40RoundRect,0.102000X0.754000X0.754000X-0.754000X0.754000X-0.754000X-0.754000X0.754000X-0.754000X0*%
%ADD41R,1.700000X1.700000*%
%ADD42O,1.700000X1.700000*%
%ADD43R,1.650000X1.650000*%
%ADD44C,1.650000*%
G04 APERTURE END LIST*
D10*
%TO.C,D8*%
X217627200Y-86360000D03*
X215341200Y-86360000D03*
%TD*%
%TO.C,C20*%
X99060000Y-75057000D03*
X101346000Y-75057000D03*
%TD*%
D11*
%TO.C,FUSE1*%
X121666000Y-76454000D03*
%TD*%
D12*
%TO.C,PACK1*%
X97536000Y-100258000D03*
D13*
X97536000Y-91258000D03*
%TD*%
D10*
%TO.C,C1*%
X149428200Y-87579200D03*
X151714200Y-87579200D03*
%TD*%
%TO.C,C22*%
X117932200Y-123190000D03*
X120218200Y-123190000D03*
%TD*%
%TO.C,C38*%
X142113000Y-116332000D03*
X144399000Y-116332000D03*
%TD*%
D11*
%TO.C,12V1*%
X136652000Y-76454000D03*
%TD*%
D14*
%TO.C,Mount1*%
X99745800Y-79756000D03*
%TD*%
%TO.C,Mount2*%
X99745800Y-121031000D03*
%TD*%
D15*
%TO.C,U3*%
X141706600Y-87503000D03*
X139471400Y-87503000D03*
%TD*%
D16*
%TO.C,TH1*%
X108839000Y-100330000D03*
X105537000Y-100330000D03*
%TD*%
D17*
%TO.C,U10*%
X105483100Y-91948200D03*
X105483100Y-93218200D03*
X105483100Y-94488200D03*
X105483100Y-95758200D03*
D18*
X108198100Y-91580700D03*
X108198100Y-96125700D03*
D19*
X109278100Y-93853200D03*
D20*
X111068100Y-91638200D03*
X111068100Y-96068200D03*
%TD*%
D10*
%TO.C,R13*%
X154686000Y-85217000D03*
X156972000Y-85217000D03*
%TD*%
D21*
%TO.C,WAKE1*%
X143213000Y-90085600D03*
X147363000Y-90085600D03*
X143213000Y-92235600D03*
X147363000Y-92235600D03*
%TD*%
D22*
%TO.C,D2*%
X195961000Y-124485400D03*
X195961000Y-122199400D03*
%TD*%
D10*
%TO.C,R31*%
X104902000Y-125857000D03*
X107188000Y-125857000D03*
%TD*%
D22*
%TO.C,C10*%
X158089600Y-104978200D03*
X158089600Y-107264200D03*
%TD*%
%TO.C,D6*%
X201857400Y-124485400D03*
X201857400Y-122199400D03*
%TD*%
%TO.C,R38*%
X170561000Y-123571000D03*
X170561000Y-121285000D03*
%TD*%
D10*
%TO.C,C26*%
X145110200Y-83870800D03*
X147396200Y-83870800D03*
%TD*%
D23*
%TO.C,U12*%
X112395000Y-125410000D03*
X112395000Y-123510000D03*
X110520000Y-124460000D03*
%TD*%
D22*
%TO.C,R49*%
X146812000Y-79121000D03*
X146812000Y-81407000D03*
%TD*%
%TO.C,D5*%
X193014600Y-124485400D03*
X193014600Y-122199400D03*
%TD*%
%TO.C,C17*%
X157861000Y-100838000D03*
X157861000Y-98552000D03*
%TD*%
D21*
%TO.C,MCU_RES1*%
X151526600Y-95132000D03*
X155676600Y-95132000D03*
X151526600Y-97282000D03*
X155676600Y-97282000D03*
%TD*%
D10*
%TO.C,R17*%
X146939000Y-123444000D03*
X149225000Y-123444000D03*
%TD*%
%TO.C,R23*%
X213233000Y-86360000D03*
X210947000Y-86360000D03*
%TD*%
%TO.C,R19*%
X151917400Y-123444000D03*
X154203400Y-123444000D03*
%TD*%
D22*
%TO.C,R45*%
X210693000Y-75819000D03*
X210693000Y-78105000D03*
%TD*%
D11*
%TO.C,3.3V1*%
X131656666Y-76454000D03*
%TD*%
D10*
%TO.C,R30*%
X103378000Y-74803000D03*
X105664000Y-74803000D03*
%TD*%
%TO.C,R26*%
X145415000Y-77216000D03*
X147701000Y-77216000D03*
%TD*%
D24*
%TO.C,PROG1*%
X202428000Y-78364000D03*
D25*
X202428000Y-75824000D03*
X204968000Y-78364000D03*
X204968000Y-75824000D03*
X207508000Y-78364000D03*
X207508000Y-75824000D03*
%TD*%
D21*
%TO.C,DISP1*%
X151518800Y-90161800D03*
X155668800Y-90161800D03*
X151518800Y-92311800D03*
X155668800Y-92311800D03*
%TD*%
D10*
%TO.C,R24*%
X123952000Y-125730000D03*
X126238000Y-125730000D03*
%TD*%
%TO.C,C23*%
X122021600Y-123164600D03*
X124307600Y-123164600D03*
%TD*%
D26*
%TO.C,U5*%
X120322900Y-95757800D03*
X120322900Y-94487800D03*
X120322900Y-93217800D03*
X120322900Y-91947800D03*
D18*
X117607900Y-96125300D03*
X117607900Y-91580300D03*
D19*
X116527900Y-93852800D03*
D20*
X114737900Y-96067800D03*
X114737900Y-91637800D03*
%TD*%
D22*
%TO.C,C16*%
X157835600Y-109194600D03*
X157835600Y-111480600D03*
%TD*%
D10*
%TO.C,C24*%
X198602600Y-81661000D03*
X200888600Y-81661000D03*
%TD*%
D27*
%TO.C,U8*%
X221488000Y-111760000D03*
X221488000Y-109220000D03*
X221488000Y-106680000D03*
X221488000Y-104140000D03*
X221488000Y-101600000D03*
X221488000Y-99060000D03*
X221488000Y-96520000D03*
X221488000Y-93980000D03*
X221488000Y-91440000D03*
X221488000Y-88900000D03*
X160528000Y-88900000D03*
X160528000Y-91440000D03*
X160528000Y-109220000D03*
X160528000Y-111760000D03*
%TD*%
D23*
%TO.C,U11*%
X111760000Y-77150000D03*
X111760000Y-75250000D03*
X109885000Y-76200000D03*
%TD*%
D10*
%TO.C,R10*%
X143510000Y-113919000D03*
X145796000Y-113919000D03*
%TD*%
%TO.C,C15*%
X145034000Y-122707400D03*
X142748000Y-122707400D03*
%TD*%
D17*
%TO.C,U9*%
X105483100Y-104902200D03*
X105483100Y-106172200D03*
X105483100Y-107442200D03*
X105483100Y-108712200D03*
D18*
X108198100Y-104534700D03*
X108198100Y-109079700D03*
D19*
X109278100Y-106807200D03*
D20*
X111068100Y-104592200D03*
X111068100Y-109022200D03*
%TD*%
D14*
%TO.C,Mount3*%
X216585800Y-79756000D03*
%TD*%
D28*
%TO.C,Q1*%
X155194000Y-99586860D03*
X154244000Y-102089140D03*
X156144000Y-102089140D03*
%TD*%
D11*
%TO.C,Vin1*%
X126661333Y-76454000D03*
%TD*%
D10*
%TO.C,C19*%
X94869000Y-75057000D03*
X97155000Y-75057000D03*
%TD*%
%TO.C,R18*%
X142798800Y-125603000D03*
X145084800Y-125603000D03*
%TD*%
%TO.C,R21*%
X114300000Y-77597000D03*
X116586000Y-77597000D03*
%TD*%
D22*
%TO.C,R11*%
X154940000Y-105283000D03*
X154940000Y-107569000D03*
%TD*%
D10*
%TO.C,R22*%
X140335000Y-77851000D03*
X142621000Y-77851000D03*
%TD*%
D22*
%TO.C,C29*%
X183261000Y-82042000D03*
X183261000Y-84328000D03*
%TD*%
D10*
%TO.C,R36*%
X114300000Y-75057000D03*
X116586000Y-75057000D03*
%TD*%
D29*
%TO.C,Q3*%
X137223120Y-124653000D03*
X139725400Y-125603000D03*
X139725400Y-123703000D03*
%TD*%
D14*
%TO.C,Mount4*%
X216585800Y-121031000D03*
%TD*%
D11*
%TO.C,GNDPWR1*%
X129133600Y-125603000D03*
%TD*%
D10*
%TO.C,C25*%
X208051400Y-81661000D03*
X205765400Y-81661000D03*
%TD*%
D30*
%TO.C,U1*%
X146679500Y-98994000D03*
X146679500Y-98044000D03*
X146679500Y-97094000D03*
X144404500Y-97094000D03*
X144404500Y-98994000D03*
%TD*%
D10*
%TO.C,R41*%
X168402000Y-123317000D03*
X166116000Y-123317000D03*
%TD*%
D26*
%TO.C,U6*%
X120322900Y-108698500D03*
X120322900Y-107428500D03*
X120322900Y-106158500D03*
X120322900Y-104888500D03*
D18*
X117607900Y-109066000D03*
X117607900Y-104521000D03*
D19*
X116527900Y-106793500D03*
D20*
X114737900Y-109008500D03*
X114737900Y-104578500D03*
%TD*%
D15*
%TO.C,U15*%
X166243000Y-121158000D03*
X168478200Y-121158000D03*
%TD*%
D10*
%TO.C,R34*%
X114833400Y-125780800D03*
X117119400Y-125780800D03*
%TD*%
D22*
%TO.C,C9*%
X210185000Y-115062000D03*
X210185000Y-117348000D03*
%TD*%
D10*
%TO.C,R37*%
X151866600Y-83870800D03*
X149580600Y-83870800D03*
%TD*%
D31*
%TO.C,U21*%
X148336000Y-104431500D03*
X147066000Y-104431500D03*
X145796000Y-104431500D03*
X144526000Y-104431500D03*
X143256000Y-104431500D03*
D32*
X145796000Y-110731500D03*
%TD*%
D10*
%TO.C,R20*%
X118872000Y-125857000D03*
X121158000Y-125857000D03*
%TD*%
D11*
%TO.C,BAT-1*%
X133680200Y-125603000D03*
%TD*%
D22*
%TO.C,D3*%
X190068200Y-124485400D03*
X190068200Y-122199400D03*
%TD*%
D12*
%TO.C,BAT1*%
X136144000Y-100330000D03*
D13*
X136144000Y-109330000D03*
%TD*%
D33*
%TO.C,U4*%
X128765300Y-100799900D03*
D34*
X126504700Y-96148525D03*
D35*
X124244100Y-100799900D03*
%TD*%
D22*
%TO.C,D4*%
X198907400Y-124485400D03*
X198907400Y-122199400D03*
%TD*%
D10*
%TO.C,D1*%
X106680000Y-77470000D03*
X104394000Y-77470000D03*
%TD*%
D36*
%TO.C,SYS_PRES1*%
X149275800Y-81407000D03*
X151775799Y-81407000D03*
%TD*%
D37*
%TO.C,Y1*%
X205793340Y-84455000D03*
X200911460Y-84455000D03*
%TD*%
D38*
%TO.C,THERMS1*%
X161782850Y-81326600D03*
D39*
X164282850Y-81326600D03*
X166782850Y-81326600D03*
X169282850Y-81326600D03*
X171782850Y-81326600D03*
X174282850Y-81326600D03*
X176782850Y-81326600D03*
X179282850Y-81326600D03*
%TD*%
D40*
%TO.C,SMBUS_OUT1*%
X182227150Y-119435000D03*
D39*
X179727150Y-119435000D03*
X177227150Y-119435000D03*
X174727150Y-119435000D03*
%TD*%
D36*
%TO.C,BALANCE1*%
X155088600Y-119463500D03*
X152588600Y-119463500D03*
X150088600Y-119463500D03*
X147588600Y-119463500D03*
X145088600Y-119463500D03*
%TD*%
D41*
%TO.C,SMBC_SEL1*%
X194625200Y-116941600D03*
D42*
X192085200Y-116941600D03*
X189545200Y-116941600D03*
%TD*%
D43*
%TO.C,SERIAL_OUT1*%
X193798200Y-81254600D03*
D44*
X191298200Y-81254600D03*
X188798200Y-81254600D03*
%TD*%
D36*
%TO.C,REED1*%
X165974399Y-119532400D03*
X163474400Y-119532400D03*
%TD*%
D41*
%TO.C,SMBD_SEL1*%
X206527400Y-116941600D03*
D42*
X203987400Y-116941600D03*
X201447400Y-116941600D03*
%TD*%
M02*
