%TF.GenerationSoftware,KiCad,Pcbnew,7.0.7*%
%TF.CreationDate,2024-03-21T09:31:29-04:00*%
%TF.ProjectId,BMB,424d422e-6b69-4636-9164-5f7063625858,rev?*%
%TF.SameCoordinates,Original*%
%TF.FileFunction,Copper,L1,Top*%
%TF.FilePolarity,Positive*%
%FSLAX46Y46*%
G04 Gerber Fmt 4.6, Leading zero omitted, Abs format (unit mm)*
G04 Created by KiCad (PCBNEW 7.0.7) date 2024-03-21 09:31:29*
%MOMM*%
%LPD*%
G01*
G04 APERTURE LIST*
G04 Aperture macros list*
%AMRoundRect*
0 Rectangle with rounded corners*
0 $1 Rounding radius*
0 $2 $3 $4 $5 $6 $7 $8 $9 X,Y pos of 4 corners*
0 Add a 4 corners polygon primitive as box body*
4,1,4,$2,$3,$4,$5,$6,$7,$8,$9,$2,$3,0*
0 Add four circle primitives for the rounded corners*
1,1,$1+$1,$2,$3*
1,1,$1+$1,$4,$5*
1,1,$1+$1,$6,$7*
1,1,$1+$1,$8,$9*
0 Add four rect primitives between the rounded corners*
20,1,$1+$1,$2,$3,$4,$5,0*
20,1,$1+$1,$4,$5,$6,$7,0*
20,1,$1+$1,$6,$7,$8,$9,0*
20,1,$1+$1,$8,$9,$2,$3,0*%
%AMOutline4P*
0 Free polygon, 4 corners , with rotation*
0 The origin of the aperture is its center*
0 number of corners: always 4*
0 $1 to $8 corner X, Y*
0 $9 Rotation angle, in degrees counterclockwise*
0 create outline with 4 corners*
4,1,4,$1,$2,$3,$4,$5,$6,$7,$8,$1,$2,$9*%
%AMOutline5P*
0 Free polygon, 5 corners , with rotation*
0 The origin of the aperture is its center*
0 number of corners: always 5*
0 $1 to $10 corner X, Y*
0 $11 Rotation angle, in degrees counterclockwise*
0 create outline with 5 corners*
4,1,5,$1,$2,$3,$4,$5,$6,$7,$8,$9,$10,$1,$2,$11*%
%AMOutline6P*
0 Free polygon, 6 corners , with rotation*
0 The origin of the aperture is its center*
0 number of corners: always 6*
0 $1 to $12 corner X, Y*
0 $13 Rotation angle, in degrees counterclockwise*
0 create outline with 6 corners*
4,1,6,$1,$2,$3,$4,$5,$6,$7,$8,$9,$10,$11,$12,$1,$2,$13*%
%AMOutline7P*
0 Free polygon, 7 corners , with rotation*
0 The origin of the aperture is its center*
0 number of corners: always 7*
0 $1 to $14 corner X, Y*
0 $15 Rotation angle, in degrees counterclockwise*
0 create outline with 7 corners*
4,1,7,$1,$2,$3,$4,$5,$6,$7,$8,$9,$10,$11,$12,$13,$14,$1,$2,$15*%
%AMOutline8P*
0 Free polygon, 8 corners , with rotation*
0 The origin of the aperture is its center*
0 number of corners: always 8*
0 $1 to $16 corner X, Y*
0 $17 Rotation angle, in degrees counterclockwise*
0 create outline with 8 corners*
4,1,8,$1,$2,$3,$4,$5,$6,$7,$8,$9,$10,$11,$12,$13,$14,$15,$16,$1,$2,$17*%
G04 Aperture macros list end*
%TA.AperFunction,SMDPad,CuDef*%
%ADD10R,1.270000X1.524000*%
%TD*%
%TA.AperFunction,ComponentPad*%
%ADD11C,1.905000*%
%TD*%
%TA.AperFunction,ComponentPad*%
%ADD12C,5.500000*%
%TD*%
%TA.AperFunction,ComponentPad*%
%ADD13R,5.500000X5.500000*%
%TD*%
%TA.AperFunction,ComponentPad*%
%ADD14C,5.600000*%
%TD*%
%TA.AperFunction,SMDPad,CuDef*%
%ADD15R,0.635000X0.838200*%
%TD*%
%TA.AperFunction,SMDPad,CuDef*%
%ADD16R,1.270000X1.905000*%
%TD*%
%TA.AperFunction,SMDPad,CuDef*%
%ADD17RoundRect,0.102500X-0.257500X-0.102500X0.257500X-0.102500X0.257500X0.102500X-0.257500X0.102500X0*%
%TD*%
%TA.AperFunction,SMDPad,CuDef*%
%ADD18R,0.510000X0.585000*%
%TD*%
%TA.AperFunction,SMDPad,CuDef*%
%ADD19R,3.990000X3.960000*%
%TD*%
%TA.AperFunction,SMDPad,CuDef*%
%ADD20R,0.410000X0.470000*%
%TD*%
%TA.AperFunction,SMDPad,CuDef*%
%ADD21R,1.041400X0.660400*%
%TD*%
%TA.AperFunction,SMDPad,CuDef*%
%ADD22R,1.524000X1.270000*%
%TD*%
%TA.AperFunction,SMDPad,CuDef*%
%ADD23RoundRect,0.150000X0.587500X0.150000X-0.587500X0.150000X-0.587500X-0.150000X0.587500X-0.150000X0*%
%TD*%
%TA.AperFunction,ComponentPad*%
%ADD24R,1.727200X1.727200*%
%TD*%
%TA.AperFunction,ComponentPad*%
%ADD25O,1.727200X1.727200*%
%TD*%
%TA.AperFunction,SMDPad,CuDef*%
%ADD26RoundRect,0.102500X0.257500X0.102500X-0.257500X0.102500X-0.257500X-0.102500X0.257500X-0.102500X0*%
%TD*%
%TA.AperFunction,ComponentPad*%
%ADD27C,1.524000*%
%TD*%
%TA.AperFunction,SMDPad,CuDef*%
%ADD28R,0.800100X1.300860*%
%TD*%
%TA.AperFunction,SMDPad,CuDef*%
%ADD29R,1.300860X0.800100*%
%TD*%
%TA.AperFunction,SMDPad,CuDef*%
%ADD30RoundRect,0.150000X0.512500X0.150000X-0.512500X0.150000X-0.512500X-0.150000X0.512500X-0.150000X0*%
%TD*%
%TA.AperFunction,SMDPad,CuDef*%
%ADD31R,0.600000X2.200000*%
%TD*%
%TA.AperFunction,SMDPad,CuDef*%
%ADD32R,3.450000X2.150000*%
%TD*%
%TA.AperFunction,SMDPad,CuDef*%
%ADD33Outline5P,-3.810000X1.270000X3.810000X1.270000X3.810000X-1.270000X-3.302000X-1.270000X-3.810000X-0.762000X270.000000*%
%TD*%
%TA.AperFunction,SMDPad,CuDef*%
%ADD34Outline4P,-1.514475X-0.663575X1.514475X-0.663575X0.371475X0.663575X-0.371475X0.663575X180.000000*%
%TD*%
%TA.AperFunction,SMDPad,CuDef*%
%ADD35Outline5P,-3.810000X0.762000X-3.302000X1.270000X3.810000X1.270000X3.810000X-1.270000X-3.810000X-1.270000X270.000000*%
%TD*%
%TA.AperFunction,ComponentPad*%
%ADD36C,1.498600*%
%TD*%
%TA.AperFunction,ComponentPad*%
%ADD37C,1.501140*%
%TD*%
%TA.AperFunction,ComponentPad*%
%ADD38R,1.508000X1.508000*%
%TD*%
%TA.AperFunction,ComponentPad*%
%ADD39C,1.508000*%
%TD*%
%TA.AperFunction,ComponentPad*%
%ADD40R,1.700000X1.700000*%
%TD*%
%TA.AperFunction,ComponentPad*%
%ADD41O,1.700000X1.700000*%
%TD*%
%TA.AperFunction,ComponentPad*%
%ADD42R,1.650000X1.650000*%
%TD*%
%TA.AperFunction,ComponentPad*%
%ADD43C,1.650000*%
%TD*%
%TA.AperFunction,ViaPad*%
%ADD44C,0.800000*%
%TD*%
%TA.AperFunction,Conductor*%
%ADD45C,0.254000*%
%TD*%
%TA.AperFunction,Conductor*%
%ADD46C,0.250000*%
%TD*%
%TA.AperFunction,Conductor*%
%ADD47C,0.500000*%
%TD*%
%TA.AperFunction,Conductor*%
%ADD48C,0.508000*%
%TD*%
%TA.AperFunction,Conductor*%
%ADD49C,0.152400*%
%TD*%
G04 APERTURE END LIST*
D10*
%TO.P,D8,1,K*%
%TO.N,GNDPWR*%
X217627200Y-86360000D03*
%TO.P,D8,2,A*%
%TO.N,Net-(D8-A)*%
X215341200Y-86360000D03*
%TD*%
%TO.P,C20,1*%
%TO.N,Net-(C19-Pad2)*%
X99060000Y-75057000D03*
%TO.P,C20,2*%
%TO.N,/PACK+*%
X101346000Y-75057000D03*
%TD*%
D11*
%TO.P,FUSE1,1,1*%
%TO.N,Net-(Q3-D)*%
X121666000Y-76454000D03*
%TD*%
D12*
%TO.P,PACK1,1,Pin_1*%
%TO.N,/PACK+*%
X97536000Y-100258000D03*
D13*
%TO.P,PACK1,2,Pin_2*%
%TO.N,GNDPWR*%
X97536000Y-91258000D03*
%TD*%
D10*
%TO.P,C1,1*%
%TO.N,/Vin*%
X149428200Y-87579200D03*
%TO.P,C1,2*%
%TO.N,GNDPWR*%
X151714200Y-87579200D03*
%TD*%
%TO.P,C22,1*%
%TO.N,/PACK+*%
X117932200Y-123190000D03*
%TO.P,C22,2*%
%TO.N,Net-(C22-Pad2)*%
X120218200Y-123190000D03*
%TD*%
%TO.P,C38,1*%
%TO.N,+3.3V*%
X142113000Y-116332000D03*
%TO.P,C38,2*%
%TO.N,GNDPWR*%
X144399000Y-116332000D03*
%TD*%
D11*
%TO.P,12V1,1,1*%
%TO.N,+12V*%
X136652000Y-76454000D03*
%TD*%
D14*
%TO.P,Mount1,1,1*%
%TO.N,unconnected-(Mount1-Pad1)*%
X99745800Y-79756000D03*
%TD*%
%TO.P,Mount2,1,1*%
%TO.N,unconnected-(Mount2-Pad1)*%
X99745800Y-121031000D03*
%TD*%
D15*
%TO.P,U3,1*%
%TO.N,/Vin*%
X141706600Y-87503000D03*
%TO.P,U3,2*%
%TO.N,/BAT+*%
X139471400Y-87503000D03*
%TD*%
D16*
%TO.P,TH1,1*%
%TO.N,Net-(U7-PTC)*%
X108839000Y-100330000D03*
%TO.P,TH1,2*%
%TO.N,/Vin*%
X105537000Y-100330000D03*
%TD*%
D17*
%TO.P,U10,1*%
%TO.N,/PACK+*%
X105483100Y-91948200D03*
%TO.P,U10,2*%
X105483100Y-93218200D03*
%TO.P,U10,3*%
X105483100Y-94488200D03*
%TO.P,U10,4*%
%TO.N,Net-(R29-Pad1)*%
X105483100Y-95758200D03*
D18*
%TO.P,U10,5*%
%TO.N,Net-(R26-Pad1)*%
X108198100Y-91580700D03*
X108198100Y-96125700D03*
D19*
X109278100Y-93853200D03*
D20*
X111068100Y-91638200D03*
X111068100Y-96068200D03*
%TD*%
D10*
%TO.P,R13,1*%
%TO.N,Net-(D1-K)*%
X154686000Y-85217000D03*
%TO.P,R13,2*%
%TO.N,Net-(Q2-D)*%
X156972000Y-85217000D03*
%TD*%
D21*
%TO.P,WAKE1,1,1*%
%TO.N,Net-(R37-Pad1)*%
X143213000Y-90085600D03*
%TO.P,WAKE1,2,2*%
X147363000Y-90085600D03*
%TO.P,WAKE1,3,3*%
%TO.N,/PACK+*%
X143213000Y-92235600D03*
%TO.P,WAKE1,4,4*%
X147363000Y-92235600D03*
%TD*%
D22*
%TO.P,D2,1,K*%
%TO.N,/LEDCNTLC*%
X195961000Y-124485400D03*
%TO.P,D2,2,A*%
%TO.N,/LEDCNTLB*%
X195961000Y-122199400D03*
%TD*%
D10*
%TO.P,R31,1*%
%TO.N,/PACK+*%
X104902000Y-125857000D03*
%TO.P,R31,2*%
%TO.N,Net-(R28-Pad1)*%
X107188000Y-125857000D03*
%TD*%
D22*
%TO.P,C10,1*%
%TO.N,+12V*%
X158089600Y-104978200D03*
%TO.P,C10,2*%
%TO.N,GNDPWR*%
X158089600Y-107264200D03*
%TD*%
%TO.P,D6,1,K*%
%TO.N,/LEDCNTLA*%
X201857400Y-124485400D03*
%TO.P,D6,2,A*%
%TO.N,/LEDCNTLC*%
X201857400Y-122199400D03*
%TD*%
%TO.P,R38,1*%
%TO.N,/BQ_PRES{slash}SHUTDN*%
X170561000Y-123571000D03*
%TO.P,R38,2*%
%TO.N,Net-(R38-Pad2)*%
X170561000Y-121285000D03*
%TD*%
D10*
%TO.P,C26,1*%
%TO.N,/Vin*%
X145110200Y-83870800D03*
%TO.P,C26,2*%
%TO.N,GNDPWR*%
X147396200Y-83870800D03*
%TD*%
D23*
%TO.P,U12,1*%
%TO.N,Net-(R34-Pad1)*%
X112395000Y-125410000D03*
%TO.P,U12,2*%
%TO.N,/PACK+*%
X112395000Y-123510000D03*
%TO.P,U12,3*%
%TO.N,Net-(R28-Pad1)*%
X110520000Y-124460000D03*
%TD*%
D22*
%TO.P,R49,1*%
%TO.N,/POD_SYS_PRES*%
X146812000Y-79121000D03*
%TO.P,R49,2*%
%TO.N,Net-(R25-Pad1)*%
X146812000Y-81407000D03*
%TD*%
%TO.P,D5,1,K*%
%TO.N,/LEDCNTLA*%
X193014600Y-124485400D03*
%TO.P,D5,2,A*%
%TO.N,/LEDCNTLB*%
X193014600Y-122199400D03*
%TD*%
%TO.P,C17,1*%
%TO.N,+12V*%
X157861000Y-100838000D03*
%TO.P,C17,2*%
%TO.N,GNDPWR*%
X157861000Y-98552000D03*
%TD*%
D21*
%TO.P,MCU_RES1,1,1*%
%TO.N,Net-(IC1-~{RESET}{slash}PDI_CLK)*%
X151526600Y-95132000D03*
%TO.P,MCU_RES1,2,2*%
X155676600Y-95132000D03*
%TO.P,MCU_RES1,3,3*%
%TO.N,GNDPWR*%
X151526600Y-97282000D03*
%TO.P,MCU_RES1,4,4*%
X155676600Y-97282000D03*
%TD*%
D10*
%TO.P,R17,1*%
%TO.N,Net-(U2-OUT)*%
X146939000Y-123444000D03*
%TO.P,R17,2*%
%TO.N,Net-(Q3-G)*%
X149225000Y-123444000D03*
%TD*%
%TO.P,R23,1*%
%TO.N,Net-(D8-A)*%
X213233000Y-86360000D03*
%TO.P,R23,2*%
%TO.N,Net-(IC1-AC1OUT{slash}AC6{slash}ADC6{slash}PA6)*%
X210947000Y-86360000D03*
%TD*%
%TO.P,R19,1*%
%TO.N,Net-(Q3-G)*%
X151917400Y-123444000D03*
%TO.P,R19,2*%
%TO.N,Net-(U7-FUSE)*%
X154203400Y-123444000D03*
%TD*%
D22*
%TO.P,R45,1*%
%TO.N,+3.3V*%
X210693000Y-75819000D03*
%TO.P,R45,2*%
%TO.N,Net-(IC1-~{RESET}{slash}PDI_CLK)*%
X210693000Y-78105000D03*
%TD*%
D11*
%TO.P,3.3V1,1,1*%
%TO.N,+3.3V*%
X131656666Y-76454000D03*
%TD*%
D10*
%TO.P,R30,1*%
%TO.N,Net-(R29-Pad1)*%
X103378000Y-74803000D03*
%TO.P,R30,2*%
%TO.N,/PACK+*%
X105664000Y-74803000D03*
%TD*%
%TO.P,R26,1*%
%TO.N,Net-(R26-Pad1)*%
X145415000Y-77216000D03*
%TO.P,R26,2*%
%TO.N,Net-(U7-VCC)*%
X147701000Y-77216000D03*
%TD*%
D24*
%TO.P,PROG1,1*%
%TO.N,Net-(IC1-PDI_DATA)*%
X202428000Y-78364000D03*
D25*
%TO.P,PROG1,2*%
%TO.N,+3.3V*%
X202428000Y-75824000D03*
%TO.P,PROG1,3*%
%TO.N,/RX_MCU*%
X204968000Y-78364000D03*
%TO.P,PROG1,4*%
%TO.N,/TX_MCU*%
X204968000Y-75824000D03*
%TO.P,PROG1,5*%
%TO.N,Net-(IC1-~{RESET}{slash}PDI_CLK)*%
X207508000Y-78364000D03*
%TO.P,PROG1,6*%
%TO.N,GNDPWR*%
X207508000Y-75824000D03*
%TD*%
D21*
%TO.P,DISP1,1,1*%
%TO.N,/DISP*%
X151518800Y-90161800D03*
%TO.P,DISP1,2,2*%
X155668800Y-90161800D03*
%TO.P,DISP1,3,3*%
%TO.N,GND1*%
X151518800Y-92311800D03*
%TO.P,DISP1,4,4*%
X155668800Y-92311800D03*
%TD*%
D10*
%TO.P,R24,1*%
%TO.N,Net-(R20-Pad1)*%
X123952000Y-125730000D03*
%TO.P,R24,2*%
%TO.N,Net-(U7-CHG)*%
X126238000Y-125730000D03*
%TD*%
%TO.P,C23,1*%
%TO.N,Net-(C22-Pad2)*%
X122021600Y-123164600D03*
%TO.P,C23,2*%
%TO.N,GNDPWR*%
X124307600Y-123164600D03*
%TD*%
D26*
%TO.P,U5,1*%
%TO.N,Net-(C19-Pad1)*%
X120322900Y-95757800D03*
%TO.P,U5,2*%
X120322900Y-94487800D03*
%TO.P,U5,3*%
X120322900Y-93217800D03*
%TO.P,U5,4*%
%TO.N,Net-(R21-Pad2)*%
X120322900Y-91947800D03*
D18*
%TO.P,U5,5*%
%TO.N,Net-(R26-Pad1)*%
X117607900Y-96125300D03*
X117607900Y-91580300D03*
D19*
X116527900Y-93852800D03*
D20*
X114737900Y-96067800D03*
X114737900Y-91637800D03*
%TD*%
D22*
%TO.P,C16,1*%
%TO.N,GNDPWR*%
X157835600Y-109194600D03*
%TO.P,C16,2*%
%TO.N,+3.3V*%
X157835600Y-111480600D03*
%TD*%
D10*
%TO.P,C24,1*%
%TO.N,GNDPWR*%
X198602600Y-81661000D03*
%TO.P,C24,2*%
%TO.N,Net-(IC1-PR0{slash}XTAL2{slash}TOSC2)*%
X200888600Y-81661000D03*
%TD*%
D27*
%TO.P,U8,1,VSS*%
%TO.N,GNDPWR*%
X221488000Y-111760000D03*
%TO.P,U8,2,REGVDD*%
X221488000Y-109220000D03*
%TO.P,U8,3,VDD*%
%TO.N,+3.3V*%
X221488000Y-106680000D03*
%TO.P,U8,4,VDDIO*%
X221488000Y-104140000D03*
%TO.P,U8,5,SCLK*%
%TO.N,/SCL*%
X221488000Y-101600000D03*
%TO.P,U8,6,SID*%
%TO.N,/SDA*%
X221488000Y-99060000D03*
%TO.P,U8,7,SOO*%
X221488000Y-96520000D03*
%TO.P,U8,8,VCOMH*%
%TO.N,Net-(U8-VCOMH)*%
X221488000Y-93980000D03*
%TO.P,U8,9,VCC*%
%TO.N,+12V*%
X221488000Y-91440000D03*
%TO.P,U8,10,VLSS*%
%TO.N,GNDPWR*%
X221488000Y-88900000D03*
%TO.P,U8,11,IREF*%
%TO.N,Net-(U8-IREF)*%
X160528000Y-88900000D03*
%TO.P,U8,12,RES*%
%TO.N,/OLED_RES*%
X160528000Y-91440000D03*
%TO.P,U8,19,CS*%
%TO.N,GNDPWR*%
X160528000Y-109220000D03*
%TO.P,U8,20,BS1*%
%TO.N,+3.3V*%
X160528000Y-111760000D03*
%TD*%
D23*
%TO.P,U11,1*%
%TO.N,Net-(R36-Pad1)*%
X111760000Y-77150000D03*
%TO.P,U11,2*%
%TO.N,/PACK+*%
X111760000Y-75250000D03*
%TO.P,U11,3*%
%TO.N,Net-(R29-Pad1)*%
X109885000Y-76200000D03*
%TD*%
D10*
%TO.P,R10,1*%
%TO.N,/Vin*%
X143510000Y-113919000D03*
%TO.P,R10,2*%
%TO.N,/PWR_PRES{slash}SHUTDN*%
X145796000Y-113919000D03*
%TD*%
%TO.P,C15,1*%
%TO.N,GND1*%
X145034000Y-122707400D03*
%TO.P,C15,2*%
%TO.N,Net-(Q3-G)*%
X142748000Y-122707400D03*
%TD*%
D17*
%TO.P,U9,1*%
%TO.N,/PACK+*%
X105483100Y-104902200D03*
%TO.P,U9,2*%
X105483100Y-106172200D03*
%TO.P,U9,3*%
X105483100Y-107442200D03*
%TO.P,U9,4*%
%TO.N,Net-(R28-Pad1)*%
X105483100Y-108712200D03*
D18*
%TO.P,U9,5*%
%TO.N,Net-(R26-Pad1)*%
X108198100Y-104534700D03*
X108198100Y-109079700D03*
D19*
X109278100Y-106807200D03*
D20*
X111068100Y-104592200D03*
X111068100Y-109022200D03*
%TD*%
D14*
%TO.P,Mount3,1,1*%
%TO.N,unconnected-(Mount3-Pad1)*%
X216585800Y-79756000D03*
%TD*%
D28*
%TO.P,Q1,1,D*%
%TO.N,/LDO_EN*%
X155194000Y-99586860D03*
%TO.P,Q1,2,G*%
%TO.N,/PWR_PRES{slash}SHUTDN*%
X154244000Y-102089140D03*
%TO.P,Q1,3,S*%
%TO.N,/Vin*%
X156144000Y-102089140D03*
%TD*%
D11*
%TO.P,Vin1,1,1*%
%TO.N,/Vin*%
X126661333Y-76454000D03*
%TD*%
D10*
%TO.P,C19,1*%
%TO.N,Net-(C19-Pad1)*%
X94869000Y-75057000D03*
%TO.P,C19,2*%
%TO.N,Net-(C19-Pad2)*%
X97155000Y-75057000D03*
%TD*%
%TO.P,R18,1*%
%TO.N,Net-(Q3-G)*%
X142798800Y-125603000D03*
%TO.P,R18,2*%
%TO.N,GND1*%
X145084800Y-125603000D03*
%TD*%
%TO.P,R21,1*%
%TO.N,Net-(C19-Pad1)*%
X114300000Y-77597000D03*
%TO.P,R21,2*%
%TO.N,Net-(R21-Pad2)*%
X116586000Y-77597000D03*
%TD*%
D22*
%TO.P,R11,1*%
%TO.N,/LDO_EN*%
X154940000Y-105283000D03*
%TO.P,R11,2*%
%TO.N,GNDPWR*%
X154940000Y-107569000D03*
%TD*%
D10*
%TO.P,R22,1*%
%TO.N,Net-(R21-Pad2)*%
X140335000Y-77851000D03*
%TO.P,R22,2*%
%TO.N,Net-(U7-CHG)*%
X142621000Y-77851000D03*
%TD*%
D22*
%TO.P,C29,1*%
%TO.N,GNDPWR*%
X183261000Y-82042000D03*
%TO.P,C29,2*%
%TO.N,GND*%
X183261000Y-84328000D03*
%TD*%
D10*
%TO.P,R36,1*%
%TO.N,Net-(R36-Pad1)*%
X114300000Y-75057000D03*
%TO.P,R36,2*%
%TO.N,GNDPWR*%
X116586000Y-75057000D03*
%TD*%
D29*
%TO.P,Q3,1,D*%
%TO.N,Net-(Q3-D)*%
X137223120Y-124653000D03*
%TO.P,Q3,2,G*%
%TO.N,Net-(Q3-G)*%
X139725400Y-125603000D03*
%TO.P,Q3,3,S*%
%TO.N,GND1*%
X139725400Y-123703000D03*
%TD*%
D14*
%TO.P,Mount4,1,1*%
%TO.N,unconnected-(Mount4-Pad1)*%
X216585800Y-121031000D03*
%TD*%
D11*
%TO.P,GNDPWR1,1,1*%
%TO.N,GNDPWR*%
X129133600Y-125603000D03*
%TD*%
D10*
%TO.P,C25,1*%
%TO.N,GNDPWR*%
X208051400Y-81661000D03*
%TO.P,C25,2*%
%TO.N,Net-(IC1-PR1{slash}XTAL1{slash}TOSC1)*%
X205765400Y-81661000D03*
%TD*%
D30*
%TO.P,U1,1,Vin*%
%TO.N,/Vin*%
X146679500Y-98994000D03*
%TO.P,U1,2,GND*%
%TO.N,GNDPWR*%
X146679500Y-98044000D03*
%TO.P,U1,3,EN*%
%TO.N,/LDO_EN*%
X146679500Y-97094000D03*
%TO.P,U1,4,NC*%
%TO.N,unconnected-(U1-NC-Pad4)*%
X144404500Y-97094000D03*
%TO.P,U1,5,OUT*%
%TO.N,+12V*%
X144404500Y-98994000D03*
%TD*%
D10*
%TO.P,R41,1*%
%TO.N,Net-(R38-Pad2)*%
X168402000Y-123317000D03*
%TO.P,R41,2*%
%TO.N,/PRES{slash}SHUTDN*%
X166116000Y-123317000D03*
%TD*%
D26*
%TO.P,U6,1*%
%TO.N,Net-(C19-Pad1)*%
X120322900Y-108698500D03*
%TO.P,U6,2*%
X120322900Y-107428500D03*
%TO.P,U6,3*%
X120322900Y-106158500D03*
%TO.P,U6,4*%
%TO.N,Net-(R20-Pad1)*%
X120322900Y-104888500D03*
D18*
%TO.P,U6,5*%
%TO.N,Net-(R26-Pad1)*%
X117607900Y-109066000D03*
X117607900Y-104521000D03*
D19*
X116527900Y-106793500D03*
D20*
X114737900Y-109008500D03*
X114737900Y-104578500D03*
%TD*%
D15*
%TO.P,U15,1*%
%TO.N,GNDPWR*%
X166243000Y-121158000D03*
%TO.P,U15,2*%
%TO.N,Net-(R38-Pad2)*%
X168478200Y-121158000D03*
%TD*%
D10*
%TO.P,R34,1*%
%TO.N,Net-(R34-Pad1)*%
X114833400Y-125780800D03*
%TO.P,R34,2*%
%TO.N,GNDPWR*%
X117119400Y-125780800D03*
%TD*%
D22*
%TO.P,C9,1*%
%TO.N,Net-(U2-V1)*%
X210185000Y-115062000D03*
%TO.P,C9,2*%
%TO.N,GND1*%
X210185000Y-117348000D03*
%TD*%
D10*
%TO.P,R37,1*%
%TO.N,Net-(R37-Pad1)*%
X151866600Y-83870800D03*
%TO.P,R37,2*%
%TO.N,/BAT+*%
X149580600Y-83870800D03*
%TD*%
D31*
%TO.P,U21,1,~{SHDWN}*%
%TO.N,/LDO_EN*%
X148336000Y-104431500D03*
%TO.P,U21,2,Vin*%
%TO.N,/Vin*%
X147066000Y-104431500D03*
%TO.P,U21,3,GND*%
%TO.N,GNDPWR*%
X145796000Y-104431500D03*
%TO.P,U21,4,Vout*%
%TO.N,+3.3V*%
X144526000Y-104431500D03*
%TO.P,U21,5,SENSE/ADJ*%
X143256000Y-104431500D03*
D32*
%TO.P,U21,6,GND*%
%TO.N,GNDPWR*%
X145796000Y-110731500D03*
%TD*%
D10*
%TO.P,R20,1*%
%TO.N,Net-(R20-Pad1)*%
X118872000Y-125857000D03*
%TO.P,R20,2*%
%TO.N,Net-(C19-Pad1)*%
X121158000Y-125857000D03*
%TD*%
D11*
%TO.P,BAT-1,1,1*%
%TO.N,GND1*%
X133680200Y-125603000D03*
%TD*%
D22*
%TO.P,D3,1,K*%
%TO.N,/LEDCNTLB*%
X190068200Y-124485400D03*
%TO.P,D3,2,A*%
%TO.N,/LEDCNTLA*%
X190068200Y-122199400D03*
%TD*%
D12*
%TO.P,BAT1,1,Pin_1*%
%TO.N,/BAT+*%
X136144000Y-100330000D03*
D13*
%TO.P,BAT1,2,Pin_2*%
%TO.N,GND1*%
X136144000Y-109330000D03*
%TD*%
D33*
%TO.P,U4,1,FUSE*%
%TO.N,/BAT+*%
X128765300Y-100799900D03*
D34*
%TO.P,U4,2,Heater*%
%TO.N,Net-(Q3-D)*%
X126504700Y-96148525D03*
D35*
%TO.P,U4,3,FUSE*%
%TO.N,Net-(C19-Pad1)*%
X124244100Y-100799900D03*
%TD*%
D22*
%TO.P,D4,1,K*%
%TO.N,/LEDCNTLB*%
X198907400Y-124485400D03*
%TO.P,D4,2,A*%
%TO.N,/LEDCNTLC*%
X198907400Y-122199400D03*
%TD*%
D10*
%TO.P,D1,1,K*%
%TO.N,Net-(D1-K)*%
X106680000Y-77470000D03*
%TO.P,D1,2,A*%
%TO.N,/PACK+*%
X104394000Y-77470000D03*
%TD*%
D36*
%TO.P,SYS_PRES1,1,Pin_1*%
%TO.N,/POD_SYS_PRES*%
X149275800Y-81407000D03*
%TO.P,SYS_PRES1,2,Pin_2*%
%TO.N,/Vin*%
X151775799Y-81407000D03*
%TD*%
D37*
%TO.P,Y1,1,1*%
%TO.N,Net-(IC1-PR1{slash}XTAL1{slash}TOSC1)*%
X205793340Y-84455000D03*
%TO.P,Y1,2,2*%
%TO.N,Net-(IC1-PR0{slash}XTAL2{slash}TOSC2)*%
X200911460Y-84455000D03*
%TD*%
D38*
%TO.P,THERMS1,1,Pin_1*%
%TO.N,Net-(THERMS1-Pin_1)*%
X161782850Y-81326600D03*
D39*
%TO.P,THERMS1,2,Pin_2*%
%TO.N,GND1*%
X164282850Y-81326600D03*
%TO.P,THERMS1,3,Pin_3*%
%TO.N,Net-(THERMS1-Pin_3)*%
X166782850Y-81326600D03*
%TO.P,THERMS1,4,Pin_4*%
%TO.N,GND1*%
X169282850Y-81326600D03*
%TO.P,THERMS1,5,Pin_5*%
%TO.N,Net-(THERMS1-Pin_5)*%
X171782850Y-81326600D03*
%TO.P,THERMS1,6,Pin_6*%
%TO.N,GND1*%
X174282850Y-81326600D03*
%TO.P,THERMS1,7,Pin_7*%
%TO.N,Net-(THERMS1-Pin_7)*%
X176782850Y-81326600D03*
%TO.P,THERMS1,8,Pin_8*%
%TO.N,GND1*%
X179282850Y-81326600D03*
%TD*%
D38*
%TO.P,SMBUS_OUT1,1,Pin_1*%
%TO.N,GNDPWR*%
X182227150Y-119435000D03*
D39*
%TO.P,SMBUS_OUT1,2,Pin_2*%
%TO.N,Net-(SMBC_SEL1-B)*%
X179727150Y-119435000D03*
%TO.P,SMBUS_OUT1,3,Pin_3*%
%TO.N,Net-(SMBD_SEL1-A)*%
X177227150Y-119435000D03*
%TO.P,SMBUS_OUT1,4,Pin_4*%
%TO.N,unconnected-(SMBUS_OUT1-Pin_4-Pad4)*%
X174727150Y-119435000D03*
%TD*%
D36*
%TO.P,BALANCE1,1,Pin_1*%
%TO.N,/BAT+*%
X155088600Y-119463500D03*
%TO.P,BALANCE1,2,Pin_2*%
%TO.N,Net-(BALANCE1-Pin_2)*%
X152588600Y-119463500D03*
%TO.P,BALANCE1,3,Pin_3*%
%TO.N,Net-(BALANCE1-Pin_3)*%
X150088600Y-119463500D03*
%TO.P,BALANCE1,4,Pin_4*%
%TO.N,Net-(BALANCE1-Pin_4)*%
X147588600Y-119463500D03*
%TO.P,BALANCE1,5,Pin_5*%
%TO.N,GND1*%
X145088600Y-119463500D03*
%TD*%
D40*
%TO.P,SMBC_SEL1,1,A*%
%TO.N,/SCL*%
X194625200Y-116941600D03*
D41*
%TO.P,SMBC_SEL1,2,C*%
%TO.N,Net-(SMBC_SEL1-C)*%
X192085200Y-116941600D03*
%TO.P,SMBC_SEL1,3,B*%
%TO.N,Net-(SMBC_SEL1-B)*%
X189545200Y-116941600D03*
%TD*%
D42*
%TO.P,SERIAL_OUT1,1,Pin_1*%
%TO.N,/RX_OUT*%
X193798200Y-81254600D03*
D43*
%TO.P,SERIAL_OUT1,2,Pin_2*%
%TO.N,GND*%
X191298200Y-81254600D03*
%TO.P,SERIAL_OUT1,3,Pin_3*%
%TO.N,/TX_OUT*%
X188798200Y-81254600D03*
%TD*%
D36*
%TO.P,REED1,1,Pin_1*%
%TO.N,/Vin*%
X165974399Y-119532400D03*
%TO.P,REED1,2,Pin_2*%
%TO.N,/REED_OUT*%
X163474400Y-119532400D03*
%TD*%
D40*
%TO.P,SMBD_SEL1,1,A*%
%TO.N,Net-(SMBD_SEL1-A)*%
X206527400Y-116941600D03*
D41*
%TO.P,SMBD_SEL1,2,C*%
%TO.N,Net-(SMBD_SEL1-C)*%
X203987400Y-116941600D03*
%TO.P,SMBD_SEL1,3,B*%
%TO.N,/SDA*%
X201447400Y-116941600D03*
%TD*%
D44*
%TO.N,GNDPWR*%
X219456000Y-85979000D03*
X167309800Y-121793000D03*
X158435100Y-84963000D03*
X149860000Y-98552000D03*
X204978000Y-99060000D03*
X158623000Y-124587000D03*
X151333200Y-98577400D03*
X186309000Y-109728000D03*
X150368000Y-111455200D03*
X149860000Y-99949000D03*
X112522000Y-126619000D03*
X197358000Y-83185000D03*
X150266400Y-97434400D03*
X189484000Y-114173000D03*
X215392000Y-88646000D03*
X191770000Y-86868000D03*
X186309000Y-104775000D03*
X153035000Y-88392000D03*
X146227800Y-85064600D03*
X149352000Y-111963200D03*
X200370017Y-114294287D03*
X184785000Y-80899000D03*
X151333200Y-99974400D03*
X151333200Y-101193600D03*
X166776400Y-86578500D03*
X148336000Y-99949000D03*
X149860000Y-102489000D03*
X148336000Y-98552000D03*
X151384000Y-111912400D03*
X148336000Y-101219000D03*
X149860000Y-101219000D03*
X148336000Y-111455200D03*
X201041000Y-91059000D03*
X153111200Y-96723200D03*
X148336000Y-102489000D03*
X209296000Y-97663000D03*
X118877714Y-74681714D03*
X209473800Y-83032600D03*
%TO.N,GND*%
X177038000Y-88900000D03*
X189103000Y-101473000D03*
X182372000Y-98552000D03*
%TO.N,/Vin*%
X172257050Y-103540500D03*
X142875000Y-86868000D03*
X147066000Y-101346000D03*
X147066000Y-102489000D03*
X176819500Y-101854000D03*
X146685000Y-88138000D03*
X145415000Y-88138000D03*
X147066000Y-100203000D03*
X145415000Y-86868000D03*
X144145000Y-88138000D03*
X146050000Y-100203000D03*
X141859000Y-113792000D03*
X146050000Y-101346000D03*
X142875000Y-88138000D03*
X144145000Y-86868000D03*
X146050000Y-102489000D03*
X184277000Y-112903000D03*
X147421600Y-107950000D03*
X156083000Y-100838000D03*
X146685000Y-86868000D03*
X106680000Y-103759000D03*
%TO.N,Net-(Q3-G)*%
X143850298Y-125679200D03*
X154482800Y-125679200D03*
%TO.N,GND1*%
X163982400Y-90982800D03*
X219588714Y-88905714D03*
X170688000Y-90805000D03*
X175768000Y-96774000D03*
X219837000Y-97790000D03*
X172212000Y-96774000D03*
X218821000Y-107061000D03*
X167005000Y-112268000D03*
%TO.N,Net-(C19-Pad1)*%
X119068214Y-76777214D03*
X117983000Y-75783500D03*
X95123000Y-76835000D03*
%TO.N,/PACK+*%
X108458000Y-124333000D03*
X149034787Y-92130389D03*
X151413285Y-91344677D03*
X158299786Y-91658500D03*
%TO.N,+12V*%
X143002000Y-97917000D03*
X141732000Y-96647000D03*
X144272000Y-94234000D03*
X143002000Y-95377000D03*
X143002000Y-96647000D03*
X143002000Y-99314000D03*
X141732000Y-94234000D03*
X141732000Y-97917000D03*
X141732000Y-95377000D03*
X141732000Y-99314000D03*
X144272000Y-95377000D03*
X158623000Y-94996000D03*
X143002000Y-94234000D03*
%TO.N,+3.3V*%
X144399000Y-102489000D03*
X141732000Y-103886000D03*
X143002000Y-101219000D03*
X141732000Y-105156000D03*
X144399000Y-106553000D03*
X212344000Y-75565000D03*
X194564000Y-108458000D03*
X141732000Y-101219000D03*
X143002000Y-106553000D03*
X204597000Y-107696000D03*
X193277500Y-86868000D03*
X218313000Y-98298000D03*
X213487000Y-89880502D03*
X144399000Y-101219000D03*
X141732000Y-106553000D03*
X201295000Y-102616000D03*
X143002000Y-102489000D03*
X156489400Y-99542600D03*
X141732000Y-102489000D03*
X198628000Y-89154000D03*
%TO.N,/RX_MCU*%
X192551000Y-98933000D03*
%TO.N,Net-(D1-K)*%
X108077000Y-77978000D03*
X153543000Y-86741000D03*
%TO.N,/LEDCNTLB*%
X179324000Y-104140000D03*
%TO.N,/LEDCNTLC*%
X194411600Y-123088400D03*
X197535800Y-122097800D03*
X179324000Y-105410000D03*
%TO.N,/LEDCNTLA*%
X179324000Y-102870000D03*
%TO.N,/OLED_RES*%
X202438000Y-90932000D03*
X190373000Y-85979000D03*
X165227000Y-86995000D03*
X193456500Y-85598000D03*
%TO.N,/BAT+*%
X174244000Y-108331000D03*
X148920200Y-120700800D03*
X142148500Y-83058000D03*
X197739000Y-105664000D03*
X185547000Y-113411000D03*
X143941800Y-85572600D03*
X166878000Y-115570000D03*
X140970000Y-119761000D03*
%TO.N,Net-(BALANCE1-Pin_2)*%
X168402000Y-115824000D03*
X173990000Y-110109000D03*
X207772000Y-114427000D03*
X207060800Y-120827800D03*
%TO.N,Net-(BALANCE1-Pin_3)*%
X207645000Y-112903000D03*
X169926000Y-107985498D03*
X165826500Y-112141000D03*
X207518000Y-122682000D03*
%TO.N,Net-(BALANCE1-Pin_4)*%
X191897000Y-102235000D03*
X168529000Y-112141000D03*
X200787000Y-105826500D03*
X166624000Y-108168502D03*
X180213000Y-108458000D03*
X208280000Y-107442000D03*
%TO.N,/SDA*%
X199644000Y-107823000D03*
X203454000Y-98806000D03*
%TO.N,/PRES{slash}SHUTDN*%
X160045400Y-122885200D03*
X146329400Y-121031000D03*
X161544000Y-124079000D03*
%TO.N,Net-(SMBC_SEL1-C)*%
X191516000Y-113411000D03*
%TO.N,/SCL*%
X204216000Y-96774000D03*
X193802000Y-113665000D03*
%TO.N,/LDO_EN*%
X149148800Y-96875600D03*
X163398200Y-86944200D03*
X156006800Y-88773000D03*
X154940000Y-106334498D03*
X148539200Y-106375200D03*
X152635586Y-98418014D03*
%TO.N,Net-(Q2-D)*%
X161239200Y-84683600D03*
%TO.N,/PWR_PRES{slash}SHUTDN*%
X149606000Y-114300000D03*
X156616400Y-104597200D03*
%TO.N,Net-(U2-V3)*%
X210227911Y-109939089D03*
X204978000Y-109982000D03*
%TO.N,Net-(R26-Pad1)*%
X143637000Y-75819000D03*
X113030000Y-77851000D03*
%TO.N,Net-(U2-V1)*%
X211582000Y-104140000D03*
%TO.N,Net-(U7-PBI)*%
X171196000Y-104013000D03*
X160147000Y-100838000D03*
%TO.N,Net-(U7-PTC)*%
X184277000Y-109601000D03*
X106680000Y-96901000D03*
%TO.N,Net-(U20-C1-)*%
X193277500Y-90805000D03*
X193294000Y-97790000D03*
%TO.N,Net-(U20-C2-)*%
X191824500Y-90551000D03*
X183769000Y-86360000D03*
%TO.N,Net-(U20-ISOVcc)*%
X188849000Y-87122000D03*
X179197000Y-89027000D03*
%TO.N,/REED_OUT*%
X164769800Y-117830600D03*
X157866714Y-116820314D03*
X141442135Y-89309167D03*
X149645815Y-91017730D03*
%TO.N,Net-(U2-REG)*%
X217043000Y-101600000D03*
X216027000Y-105918000D03*
%TO.N,Net-(U2-OUT)*%
X217043000Y-106680000D03*
X171069000Y-126746000D03*
X156464000Y-126111000D03*
%TO.N,Net-(U7-FUSE)*%
X176062700Y-103124000D03*
%TO.N,Net-(U7-CHG)*%
X173101000Y-105230450D03*
X175646714Y-116205000D03*
X158886000Y-89290000D03*
X172466000Y-115297500D03*
X157480000Y-79756000D03*
%TO.N,Net-(U7-VCC)*%
X171069000Y-96520000D03*
X158369000Y-82931000D03*
X154000200Y-79596614D03*
X149352000Y-77851000D03*
X177329500Y-111633000D03*
X157093286Y-81020286D03*
X162814000Y-84074000D03*
%TO.N,Net-(R28-Pad1)*%
X108585000Y-125984000D03*
X106679500Y-121828500D03*
%TO.N,Net-(U7-DSG)*%
X173608500Y-103581528D03*
X165862000Y-103124000D03*
X157734000Y-103200200D03*
%TO.N,Net-(R29-Pad1)*%
X106553000Y-78867000D03*
X102743000Y-76708000D03*
X108204000Y-76200000D03*
%TO.N,Net-(U7-PACK)*%
X160401000Y-98806000D03*
X174371000Y-104394000D03*
%TO.N,/DISP*%
X179705000Y-97282000D03*
%TO.N,Net-(IC1-AC1OUT{slash}AC6{slash}ADC6{slash}PA6)*%
X203962000Y-91059000D03*
%TO.N,/REED_MCU*%
X152476200Y-86029800D03*
X151511000Y-76073000D03*
%TO.N,Net-(R25-Pad1)*%
X143176014Y-79937586D03*
%TO.N,/BQ_PRES{slash}SHUTDN*%
X177292000Y-96774000D03*
%TD*%
D45*
%TO.N,GNDPWR*%
X183642000Y-82042000D02*
X184785000Y-80899000D01*
D46*
X158089600Y-107264200D02*
X158572200Y-107264200D01*
D45*
X151384000Y-111912400D02*
X151384000Y-111125000D01*
D46*
X147396200Y-83870800D02*
X147396200Y-83896200D01*
D45*
X153729000Y-97341000D02*
X155745000Y-97341000D01*
D46*
X158572200Y-107264200D02*
X160528000Y-109220000D01*
D45*
X118877714Y-74681714D02*
X118502428Y-75057000D01*
X156650000Y-97341000D02*
X155745000Y-97341000D01*
X112772800Y-126869800D02*
X112522000Y-126619000D01*
X217805000Y-86360000D02*
X219075000Y-86360000D01*
X151595000Y-97341000D02*
X152493400Y-97341000D01*
D46*
X160528000Y-109220000D02*
X157861000Y-109220000D01*
D45*
X166961972Y-121793000D02*
X166326972Y-121158000D01*
X151384000Y-111125000D02*
X154940000Y-107569000D01*
X126263400Y-123164600D02*
X128701800Y-125603000D01*
X144399000Y-116332000D02*
X144834000Y-115897000D01*
D46*
X147396200Y-83870800D02*
X147396200Y-83541800D01*
D45*
X116030400Y-126869800D02*
X112772800Y-126869800D01*
X152493400Y-97341000D02*
X153111200Y-96723200D01*
X167309800Y-121793000D02*
X166961972Y-121793000D01*
X219075000Y-86360000D02*
X219456000Y-85979000D01*
D46*
X157861000Y-109220000D02*
X157835600Y-109194600D01*
D45*
X144399000Y-116332000D02*
X144700134Y-116030866D01*
D46*
X147396200Y-83896200D02*
X146227800Y-85064600D01*
X151714200Y-87579200D02*
X152222200Y-87579200D01*
D45*
X117119400Y-125780800D02*
X116030400Y-126869800D01*
X209473800Y-83032600D02*
X208102200Y-81661000D01*
D47*
X146679500Y-98044000D02*
X147574000Y-98044000D01*
D46*
X152222200Y-87579200D02*
X153035000Y-88392000D01*
D45*
X157861000Y-98552000D02*
X156650000Y-97341000D01*
X198602600Y-81940400D02*
X198602600Y-81661000D01*
X144700134Y-116030866D02*
X144700134Y-111827366D01*
X208102200Y-81661000D02*
X208051400Y-81661000D01*
X124307600Y-123164600D02*
X126263400Y-123164600D01*
D47*
X146679500Y-98044000D02*
X147828000Y-98044000D01*
D45*
X197358000Y-83185000D02*
X198602600Y-81940400D01*
X144700134Y-111827366D02*
X145796000Y-110731500D01*
X153111200Y-96723200D02*
X153729000Y-97341000D01*
X183261000Y-82042000D02*
X183642000Y-82042000D01*
D48*
X145796000Y-110731500D02*
X145796000Y-104431500D01*
D47*
X147828000Y-98044000D02*
X148336000Y-98552000D01*
D45*
X118502428Y-75057000D02*
X116586000Y-75057000D01*
X166326972Y-121158000D02*
X166243000Y-121158000D01*
%TO.N,Net-(IC1-PR0{slash}XTAL2{slash}TOSC2)*%
X200911460Y-81683860D02*
X200911460Y-84455000D01*
X200888600Y-81661000D02*
X200911460Y-81683860D01*
%TO.N,Net-(IC1-PR1{slash}XTAL1{slash}TOSC1)*%
X205793340Y-81688940D02*
X205793340Y-84455000D01*
X205765400Y-81661000D02*
X205793340Y-81688940D01*
%TO.N,GND*%
X183261000Y-84328000D02*
X181610000Y-84328000D01*
X189103000Y-101473000D02*
X185293000Y-101473000D01*
X181610000Y-84328000D02*
X177038000Y-88900000D01*
X185293000Y-101473000D02*
X182372000Y-98552000D01*
%TO.N,/Vin*%
X106680000Y-101092000D02*
X105918000Y-100330000D01*
D46*
X145110200Y-83870800D02*
X144225200Y-83870800D01*
X142875000Y-85221000D02*
X142875000Y-86868000D01*
X144225200Y-83870800D02*
X142875000Y-85221000D01*
X147243800Y-87579200D02*
X146685000Y-88138000D01*
X149428200Y-87579200D02*
X147243800Y-87579200D01*
D45*
X156083000Y-100838000D02*
X156083000Y-102028140D01*
X143510000Y-113919000D02*
X141986000Y-113919000D01*
X156083000Y-102028140D02*
X156144000Y-102089140D01*
X166032100Y-119456500D02*
X165912500Y-119456500D01*
X105918000Y-100330000D02*
X105537000Y-100330000D01*
X150632799Y-82550000D02*
X146431000Y-82550000D01*
X146431000Y-82550000D02*
X145110200Y-83870800D01*
X141986000Y-113919000D02*
X141859000Y-113792000D01*
X106680000Y-103759000D02*
X106680000Y-101092000D01*
X147421600Y-107950000D02*
X147066000Y-107594400D01*
X147066000Y-107594400D02*
X147066000Y-104431500D01*
X151775799Y-81407000D02*
X150632799Y-82550000D01*
%TO.N,Net-(Q3-G)*%
X149250400Y-124053600D02*
X149250400Y-123469400D01*
X154482800Y-125679200D02*
X154025600Y-125222000D01*
X142798800Y-125603000D02*
X139725400Y-125603000D01*
X154025600Y-125222000D02*
X150418800Y-125222000D01*
X142798800Y-125603000D02*
X143774098Y-125603000D01*
X143774098Y-125603000D02*
X143850298Y-125679200D01*
X142748000Y-122707400D02*
X142748000Y-125552200D01*
X149250400Y-123469400D02*
X149225000Y-123444000D01*
X149225000Y-123444000D02*
X151917400Y-123444000D01*
X142798800Y-125603000D02*
X142798800Y-122468700D01*
X150418800Y-125222000D02*
X149250400Y-124053600D01*
X142748000Y-125552200D02*
X142798800Y-125603000D01*
X149606000Y-123698000D02*
X149250400Y-124053600D01*
%TO.N,GND1*%
X143897400Y-119507000D02*
X145074000Y-119507000D01*
X145084800Y-119517800D02*
X145074000Y-119507000D01*
X210185000Y-117348000D02*
X218821000Y-108712000D01*
X160020000Y-92710000D02*
X159258000Y-91948000D01*
X140878000Y-122526400D02*
X143897400Y-119507000D01*
X179438866Y-98044000D02*
X178943000Y-97548134D01*
X139725400Y-123703000D02*
X139725400Y-123855200D01*
X170688000Y-90805000D02*
X172212000Y-92329000D01*
X133629400Y-125603000D02*
X133604000Y-125628400D01*
X217493214Y-91001214D02*
X208845786Y-91001214D01*
X145084800Y-125603000D02*
X145084800Y-119517800D01*
X172212000Y-92329000D02*
X172212000Y-96774000D01*
X216500000Y-100873000D02*
X215265000Y-102108000D01*
X137977600Y-125603000D02*
X133629400Y-125603000D01*
X159258000Y-90932000D02*
X158750000Y-90424000D01*
X192284866Y-99695000D02*
X190379866Y-97790000D01*
X140878000Y-122550400D02*
X139725400Y-123703000D01*
X157366624Y-90424000D02*
X155402624Y-92388000D01*
X177593134Y-96047000D02*
X176495000Y-96047000D01*
X158750000Y-90424000D02*
X157366624Y-90424000D01*
X218821000Y-108712000D02*
X218821000Y-107061000D01*
X190379866Y-97790000D02*
X182105866Y-97790000D01*
X176495000Y-96047000D02*
X175768000Y-96774000D01*
X178943000Y-97548134D02*
X178943000Y-97396866D01*
X219837000Y-97790000D02*
X219837000Y-97802134D01*
X219588714Y-88905714D02*
X217493214Y-91001214D01*
X155402624Y-92388000D02*
X151638000Y-92388000D01*
X218440000Y-107442000D02*
X218821000Y-107061000D01*
X208845786Y-91001214D02*
X200152000Y-99695000D01*
X215265000Y-102108000D02*
X215265000Y-106184134D01*
X163982400Y-90982800D02*
X162255200Y-92710000D01*
X139725400Y-123855200D02*
X137977600Y-125603000D01*
X181851866Y-98044000D02*
X179438866Y-98044000D01*
X178943000Y-97396866D02*
X177593134Y-96047000D01*
X159258000Y-91948000D02*
X159258000Y-90932000D01*
X182105866Y-97790000D02*
X181851866Y-98044000D01*
X200152000Y-99695000D02*
X192284866Y-99695000D01*
X140878000Y-122526400D02*
X140878000Y-122550400D01*
X216766134Y-100873000D02*
X216500000Y-100873000D01*
X219837000Y-97802134D02*
X216766134Y-100873000D01*
X215265000Y-106184134D02*
X216522866Y-107442000D01*
X216522866Y-107442000D02*
X218440000Y-107442000D01*
X162255200Y-92710000D02*
X160020000Y-92710000D01*
%TO.N,Net-(C19-Pad1)*%
X119068214Y-76777214D02*
X120396000Y-78105000D01*
X94869000Y-75057000D02*
X94869000Y-76581000D01*
X121666000Y-125857000D02*
X123190000Y-124333000D01*
X94869000Y-76581000D02*
X95123000Y-76835000D01*
X114808000Y-76327000D02*
X114300000Y-76835000D01*
X123190000Y-124333000D02*
X123190000Y-121412000D01*
X117439500Y-76327000D02*
X114808000Y-76327000D01*
X123190000Y-121412000D02*
X123063000Y-121285000D01*
X120396000Y-78105000D02*
X120396000Y-79629000D01*
X117983000Y-75783500D02*
X117439500Y-76327000D01*
X121158000Y-125857000D02*
X121666000Y-125857000D01*
X114300000Y-76835000D02*
X114300000Y-77597000D01*
%TO.N,Net-(C19-Pad2)*%
X97155000Y-75057000D02*
X99060000Y-75057000D01*
%TO.N,Net-(C22-Pad2)*%
X121996200Y-123190000D02*
X122021600Y-123164600D01*
X120218200Y-123190000D02*
X121996200Y-123190000D01*
%TO.N,/PACK+*%
X142875000Y-80664000D02*
X141405000Y-79194000D01*
X113316320Y-122588680D02*
X112395000Y-123510000D01*
X141405000Y-76508000D02*
X138811000Y-73914000D01*
X104394000Y-77470000D02*
X102476866Y-77470000D01*
X104902000Y-125857000D02*
X106426000Y-124333000D01*
X107678866Y-74803000D02*
X105664000Y-74803000D01*
X141405000Y-79194000D02*
X141405000Y-76508000D01*
X150671100Y-91654600D02*
X150671100Y-92969000D01*
X104394000Y-77470000D02*
X104394000Y-76073000D01*
X106426000Y-124333000D02*
X108458000Y-124333000D01*
D46*
X108458000Y-124333000D02*
X108199000Y-124333000D01*
D45*
X156232286Y-93726000D02*
X158299786Y-91658500D01*
X148904176Y-92261000D02*
X143213000Y-92261000D01*
X150671100Y-92969000D02*
X151428100Y-93726000D01*
X103886000Y-124841000D02*
X103886000Y-121412000D01*
X142875000Y-83820000D02*
X142875000Y-80664000D01*
X104394000Y-77470000D02*
X104394000Y-79883000D01*
X113096000Y-73914000D02*
X111760000Y-75250000D01*
X138811000Y-73914000D02*
X113096000Y-73914000D01*
X140589000Y-89823000D02*
X140589000Y-86106000D01*
X104394000Y-76073000D02*
X105664000Y-74803000D01*
X104902000Y-125857000D02*
X103886000Y-124841000D01*
X143213000Y-92447000D02*
X140589000Y-89823000D01*
X150981023Y-91344677D02*
X150671100Y-91654600D01*
X104902000Y-125857000D02*
X105029000Y-125857000D01*
X151428100Y-93726000D02*
X156232286Y-93726000D01*
X151413285Y-91344677D02*
X150981023Y-91344677D01*
X140589000Y-86106000D02*
X142875000Y-83820000D01*
X117932200Y-123190000D02*
X117330880Y-122588680D01*
X111760000Y-75250000D02*
X108125866Y-75250000D01*
X112395000Y-123510000D02*
X109281000Y-123510000D01*
X109281000Y-123510000D02*
X108458000Y-124333000D01*
X108125866Y-75250000D02*
X107678866Y-74803000D01*
X102476866Y-77470000D02*
X101346000Y-76339134D01*
X149034787Y-92130389D02*
X148904176Y-92261000D01*
X101346000Y-76339134D02*
X101346000Y-75057000D01*
X117330880Y-122588680D02*
X113316320Y-122588680D01*
%TO.N,+12V*%
X157861000Y-100838000D02*
X158950000Y-99749000D01*
D46*
X157009000Y-101690000D02*
X157861000Y-100838000D01*
D45*
X158950000Y-99749000D02*
X158950000Y-95323000D01*
D46*
X158089600Y-104978200D02*
X157009000Y-103897600D01*
D45*
X158950000Y-95323000D02*
X158623000Y-94996000D01*
D46*
X157009000Y-103897600D02*
X157009000Y-101690000D01*
%TO.N,+3.3V*%
X158115000Y-111760000D02*
X157835600Y-111480600D01*
D45*
X142113000Y-116332000D02*
X141132000Y-115351000D01*
X212090000Y-75819000D02*
X212344000Y-75565000D01*
X141132000Y-115351000D02*
X141132000Y-107153000D01*
X210693000Y-75819000D02*
X212090000Y-75819000D01*
D46*
X160528000Y-111760000D02*
X158115000Y-111760000D01*
D45*
X141132000Y-107153000D02*
X141732000Y-106553000D01*
%TO.N,/RX_MCU*%
X204968000Y-78364000D02*
X203576000Y-79756000D01*
X197993000Y-79756000D02*
X192551000Y-85198000D01*
X192551000Y-85198000D02*
X192551000Y-98933000D01*
X203576000Y-79756000D02*
X197993000Y-79756000D01*
%TO.N,Net-(IC1-~{RESET}{slash}PDI_CLK)*%
X155956000Y-87630000D02*
X155956000Y-83185000D01*
X208381600Y-74472800D02*
X209143600Y-75234800D01*
X164668200Y-74472800D02*
X208381600Y-74472800D01*
X210693000Y-78105000D02*
X207767000Y-78105000D01*
X150622000Y-91061648D02*
X150622000Y-89579100D01*
X150217100Y-91466548D02*
X150622000Y-91061648D01*
X155745000Y-95191000D02*
X151595000Y-95191000D01*
X207767000Y-78105000D02*
X207508000Y-78364000D01*
X150217100Y-93813100D02*
X150217100Y-91466548D01*
X151047100Y-89154000D02*
X154432000Y-89154000D01*
X151595000Y-95191000D02*
X150217100Y-93813100D01*
X209143600Y-76555600D02*
X210693000Y-78105000D01*
X154432000Y-89154000D02*
X155956000Y-87630000D01*
X155956000Y-83185000D02*
X164668200Y-74472800D01*
X150622000Y-89579100D02*
X151047100Y-89154000D01*
X209143600Y-75234800D02*
X209143600Y-76555600D01*
%TO.N,Net-(D1-K)*%
X107569000Y-77470000D02*
X108077000Y-77978000D01*
X154686000Y-85598000D02*
X154686000Y-85217000D01*
X106680000Y-77470000D02*
X107569000Y-77470000D01*
X153543000Y-86741000D02*
X154686000Y-85598000D01*
%TO.N,/LEDCNTLB*%
X193014600Y-122199400D02*
X191030200Y-120215000D01*
X191030200Y-120215000D02*
X189303000Y-120215000D01*
X189303000Y-120215000D02*
X178562000Y-109474000D01*
X178562000Y-104902000D02*
X179324000Y-104140000D01*
X195961000Y-122199400D02*
X198247000Y-124485400D01*
X178562000Y-109474000D02*
X178562000Y-104902000D01*
X192354200Y-122199400D02*
X190068200Y-124485400D01*
X195961000Y-122199400D02*
X193014600Y-122199400D01*
%TO.N,/LEDCNTLC*%
X195268800Y-119456200D02*
X189560200Y-119456200D01*
X195453000Y-124485400D02*
X194411600Y-123444000D01*
X179324000Y-109220000D02*
X179324000Y-105410000D01*
X189560200Y-119456200D02*
X179324000Y-109220000D01*
X194411600Y-123444000D02*
X194411600Y-123088400D01*
X196538800Y-120726200D02*
X195268800Y-119456200D01*
X197535800Y-121716800D02*
X196545200Y-120726200D01*
X196545200Y-120726200D02*
X196538800Y-120726200D01*
X197535800Y-122097800D02*
X197637400Y-122199400D01*
X197535800Y-122097800D02*
X197535800Y-121716800D01*
X201857400Y-122199400D02*
X198907400Y-122199400D01*
X197637400Y-122199400D02*
X198907400Y-122199400D01*
%TO.N,/LEDCNTLA*%
X188442600Y-123825000D02*
X190068200Y-122199400D01*
X201857400Y-124485400D02*
X200895400Y-125447400D01*
X193976600Y-125447400D02*
X193014600Y-124485400D01*
X193014600Y-124485400D02*
X192052600Y-125447400D01*
X192052600Y-125447400D02*
X188979200Y-125447400D01*
X177800000Y-109728000D02*
X177800000Y-104394000D01*
X188442600Y-124910800D02*
X188442600Y-123825000D01*
X190068200Y-121996200D02*
X190068200Y-122199400D01*
X200895400Y-125447400D02*
X193976600Y-125447400D01*
X177800000Y-109728000D02*
X190068200Y-121996200D01*
X188979200Y-125447400D02*
X188442600Y-124910800D01*
X177800000Y-104394000D02*
X179324000Y-102870000D01*
%TO.N,Net-(Q3-D)*%
X127558800Y-122732800D02*
X126619000Y-121793000D01*
X126619000Y-96034225D02*
X126504700Y-96148525D01*
X126619000Y-121793000D02*
X126619000Y-96262825D01*
X123367800Y-76454000D02*
X125272800Y-78359000D01*
X137223120Y-124653000D02*
X135302920Y-122732800D01*
X126619000Y-96262825D02*
X126504700Y-96148525D01*
X121666000Y-76454000D02*
X123367800Y-76454000D01*
X135302920Y-122732800D02*
X127558800Y-122732800D01*
X126619000Y-78994000D02*
X126619000Y-96034225D01*
X125272800Y-78359000D02*
X125984000Y-78359000D01*
X125984000Y-78359000D02*
X126619000Y-78994000D01*
%TO.N,/OLED_RES*%
X188014000Y-85906000D02*
X185474000Y-83366000D01*
X197104000Y-85598000D02*
X193456500Y-85598000D01*
X190373000Y-85979000D02*
X189376187Y-85979000D01*
X189303187Y-85906000D02*
X188014000Y-85906000D01*
X185474000Y-83366000D02*
X168856000Y-83366000D01*
X202438000Y-90932000D02*
X197104000Y-85598000D01*
X189376187Y-85979000D02*
X189303187Y-85906000D01*
X168856000Y-83366000D02*
X165227000Y-86995000D01*
%TO.N,Net-(D8-A)*%
X215138000Y-86360000D02*
X213233000Y-86360000D01*
%TO.N,/BAT+*%
X155074000Y-118585600D02*
X158089600Y-115570000D01*
X140970000Y-119761000D02*
X139573000Y-119761000D01*
X197739000Y-105664000D02*
X193294000Y-105664000D01*
X148945600Y-120726200D02*
X153854800Y-120726200D01*
X148920200Y-120700800D02*
X148945600Y-120726200D01*
X139471400Y-85735100D02*
X139471400Y-87503000D01*
X153854800Y-120726200D02*
X155074000Y-119507000D01*
X158089600Y-115570000D02*
X166878000Y-115570000D01*
X175006000Y-110617000D02*
X175006000Y-109093000D01*
X144221200Y-85852000D02*
X147599400Y-85852000D01*
X139573000Y-119761000D02*
X139192000Y-119380000D01*
X193294000Y-105664000D02*
X185547000Y-113411000D01*
X169037000Y-116586000D02*
X167894000Y-116586000D01*
X142148500Y-83058000D02*
X139471400Y-85735100D01*
X147599400Y-85852000D02*
X149580600Y-83870800D01*
X175006000Y-109093000D02*
X174244000Y-108331000D01*
X167894000Y-116586000D02*
X166878000Y-115570000D01*
X155074000Y-119507000D02*
X155074000Y-118585600D01*
X143941800Y-85572600D02*
X144221200Y-85852000D01*
X175006000Y-110617000D02*
X169037000Y-116586000D01*
%TO.N,Net-(BALANCE1-Pin_2)*%
X158035000Y-114046000D02*
X152574000Y-119507000D01*
X207856800Y-114511800D02*
X207772000Y-114427000D01*
X207856800Y-120031800D02*
X207856800Y-114511800D01*
X166624000Y-114046000D02*
X158035000Y-114046000D01*
X168402000Y-115824000D02*
X173990000Y-110236000D01*
X207060800Y-120827800D02*
X207856800Y-120031800D01*
X173990000Y-110236000D02*
X173990000Y-110109000D01*
X168402000Y-115824000D02*
X166624000Y-114046000D01*
%TO.N,Net-(BALANCE1-Pin_3)*%
X165826500Y-112141000D02*
X165826500Y-111656296D01*
X169497298Y-107985498D02*
X169926000Y-107985498D01*
X150074000Y-119507000D02*
X156297000Y-113284000D01*
X156297000Y-113284000D02*
X165121898Y-113284000D01*
X207645000Y-112903000D02*
X209096000Y-114354000D01*
X165826500Y-112579398D02*
X165121898Y-113284000D01*
X209096000Y-114354000D02*
X209096000Y-121104000D01*
X165826500Y-112141000D02*
X165826500Y-112579398D01*
X209096000Y-121104000D02*
X207518000Y-122682000D01*
X165826500Y-111656296D02*
X169497298Y-107985498D01*
%TO.N,Net-(BALANCE1-Pin_4)*%
X167386000Y-108585000D02*
X165662000Y-110309000D01*
X170688000Y-106807000D02*
X169164000Y-106807000D01*
X168529000Y-112141000D02*
X171323000Y-109347000D01*
X171323000Y-107442000D02*
X170688000Y-106807000D01*
X208280000Y-107442000D02*
X207807000Y-106969000D01*
X180467000Y-107061000D02*
X180213000Y-107315000D01*
X207807000Y-106969000D02*
X201929500Y-106969000D01*
X166969502Y-108168502D02*
X167386000Y-108585000D01*
X171323000Y-109347000D02*
X171323000Y-107442000D01*
X180213000Y-107315000D02*
X180213000Y-108458000D01*
X165662000Y-110309000D02*
X156772000Y-110309000D01*
X191897000Y-102235000D02*
X185293000Y-102235000D01*
X166624000Y-108168502D02*
X166969502Y-108168502D01*
X169164000Y-106807000D02*
X167386000Y-108585000D01*
X201929500Y-106969000D02*
X200787000Y-105826500D01*
X185293000Y-102235000D02*
X180467000Y-107061000D01*
X156772000Y-110309000D02*
X147574000Y-119507000D01*
%TO.N,/SDA*%
X203454000Y-98806000D02*
X205740000Y-96520000D01*
X203454000Y-98806000D02*
X199644000Y-102616000D01*
X199390000Y-114824510D02*
X201599800Y-117034310D01*
X199390000Y-108077000D02*
X199390000Y-114824510D01*
X199644000Y-102616000D02*
X199644000Y-107823000D01*
X221488000Y-96520000D02*
X221488000Y-99060000D01*
X199644000Y-107823000D02*
X199390000Y-108077000D01*
X205740000Y-96520000D02*
X221488000Y-96520000D01*
%TO.N,/PRES{slash}SHUTDN*%
X166116000Y-123317000D02*
X162306000Y-123317000D01*
X146329400Y-121031000D02*
X147091400Y-121793000D01*
X162306000Y-123317000D02*
X161544000Y-124079000D01*
X147091400Y-121793000D02*
X158953200Y-121793000D01*
X158953200Y-121793000D02*
X160045400Y-122885200D01*
%TO.N,Net-(SMBC_SEL1-C)*%
X192100200Y-117034310D02*
X192100200Y-113995200D01*
X192100200Y-113995200D02*
X191516000Y-113411000D01*
%TO.N,/SCL*%
X193802000Y-113665000D02*
X194640200Y-114503200D01*
X198628000Y-115824000D02*
X198628000Y-102362000D01*
X194640200Y-117034310D02*
X197417690Y-117034310D01*
X197417690Y-117034310D02*
X198628000Y-115824000D01*
X194640200Y-114503200D02*
X194640200Y-117034310D01*
X198628000Y-102362000D02*
X204216000Y-96774000D01*
%TO.N,/LDO_EN*%
X149148800Y-96875600D02*
X146897900Y-96875600D01*
X148539200Y-104634700D02*
X148336000Y-104431500D01*
X153162000Y-104556498D02*
X153162000Y-98944428D01*
X153804432Y-99586860D02*
X155194000Y-99586860D01*
X146897900Y-96875600D02*
X146679500Y-97094000D01*
X148539200Y-106375200D02*
X148539200Y-104634700D01*
X156006800Y-88773000D02*
X157835600Y-86944200D01*
X153162000Y-98944428D02*
X152635586Y-98418014D01*
X154940000Y-106334498D02*
X154940000Y-105283000D01*
X154940000Y-106334498D02*
X153162000Y-104556498D01*
X152635586Y-98418014D02*
X153804432Y-99586860D01*
X157835600Y-86944200D02*
X163398200Y-86944200D01*
D46*
%TO.N,Net-(Q2-D)*%
X161239200Y-84683600D02*
X160793600Y-84238000D01*
X157951000Y-84238000D02*
X156972000Y-85217000D01*
X160793600Y-84238000D02*
X157951000Y-84238000D01*
D45*
%TO.N,/PWR_PRES{slash}SHUTDN*%
X156616400Y-104165400D02*
X154540140Y-102089140D01*
X149225000Y-113919000D02*
X149606000Y-114300000D01*
X156616400Y-104597200D02*
X156616400Y-104165400D01*
X154540140Y-102089140D02*
X154244000Y-102089140D01*
X145796000Y-113919000D02*
X149225000Y-113919000D01*
%TO.N,Net-(U2-V3)*%
X204978000Y-109982000D02*
X208026000Y-109982000D01*
X208026000Y-109982000D02*
X208068911Y-109939089D01*
X208068911Y-109939089D02*
X210227911Y-109939089D01*
%TO.N,Net-(R26-Pad1)*%
X113030000Y-78378000D02*
X113030000Y-79502000D01*
X145415000Y-77216000D02*
X145034000Y-77216000D01*
X113030000Y-77851000D02*
X113030000Y-78378000D01*
X145034000Y-77216000D02*
X143637000Y-75819000D01*
%TO.N,Net-(R34-Pad1)*%
X112765800Y-125780800D02*
X112395000Y-125410000D01*
X114833400Y-125780800D02*
X112765800Y-125780800D01*
%TO.N,Net-(R38-Pad2)*%
X170815000Y-121031000D02*
X170561000Y-121285000D01*
X170434000Y-121285000D02*
X168402000Y-123317000D01*
X168478200Y-123240800D02*
X168402000Y-123317000D01*
X170561000Y-121285000D02*
X170434000Y-121285000D01*
X168478200Y-121158000D02*
X168478200Y-123240800D01*
%TO.N,Net-(U2-V1)*%
X211582000Y-113665000D02*
X211582000Y-104140000D01*
X210185000Y-115062000D02*
X211582000Y-113665000D01*
%TO.N,Net-(U7-PBI)*%
X168021000Y-100838000D02*
X171196000Y-104013000D01*
X160147000Y-100838000D02*
X168021000Y-100838000D01*
%TO.N,Net-(U7-PTC)*%
X107188000Y-100330000D02*
X108839000Y-100330000D01*
X106680000Y-96901000D02*
X106680000Y-99822000D01*
X106680000Y-99822000D02*
X107188000Y-100330000D01*
%TO.N,Net-(U20-C1-)*%
X193277500Y-97773500D02*
X193294000Y-97790000D01*
X193277500Y-90805000D02*
X193277500Y-97773500D01*
%TO.N,Net-(U20-C2-)*%
X183769000Y-86360000D02*
X189115134Y-86360000D01*
X189115134Y-86360000D02*
X191824500Y-89069366D01*
X191824500Y-89069366D02*
X191824500Y-90551000D01*
%TO.N,Net-(U20-ISOVcc)*%
X188849000Y-87122000D02*
X181102000Y-87122000D01*
X181102000Y-87122000D02*
X179197000Y-89027000D01*
%TO.N,/REED_OUT*%
X158877000Y-117830600D02*
X164769800Y-117830600D01*
X157866714Y-116820314D02*
X158877000Y-117830600D01*
X141442135Y-89819635D02*
X141442135Y-89309167D01*
X147843700Y-91109800D02*
X142732300Y-91109800D01*
X147935770Y-91017730D02*
X147843700Y-91109800D01*
X149645815Y-91017730D02*
X147935770Y-91017730D01*
X142732300Y-91109800D02*
X141442135Y-89819635D01*
%TO.N,Net-(U2-REG)*%
X216027000Y-105918000D02*
X217043000Y-104902000D01*
X217043000Y-104902000D02*
X217043000Y-101600000D01*
%TO.N,Net-(U2-OUT)*%
X219548000Y-106759866D02*
X219548000Y-112531600D01*
X148485200Y-126438000D02*
X146939000Y-124891800D01*
X219122134Y-106334000D02*
X219548000Y-106759866D01*
X217389000Y-106334000D02*
X219122134Y-106334000D01*
X219548000Y-112531600D02*
X205289200Y-126790400D01*
X171113400Y-126790400D02*
X171069000Y-126746000D01*
X156464000Y-126111000D02*
X156137000Y-126438000D01*
X217043000Y-106680000D02*
X217389000Y-106334000D01*
X205289200Y-126790400D02*
X171113400Y-126790400D01*
X146939000Y-124891800D02*
X146939000Y-123444000D01*
X156137000Y-126438000D02*
X148485200Y-126438000D01*
%TO.N,Net-(U7-FUSE)*%
X176062700Y-112989300D02*
X171958000Y-117094000D01*
X176062700Y-103124000D02*
X176062700Y-112989300D01*
X160817000Y-123777866D02*
X160817000Y-123790000D01*
X160747000Y-123860000D02*
X154619400Y-123860000D01*
X166697000Y-117094000D02*
X164744400Y-119046600D01*
X163474400Y-122199400D02*
X162395466Y-122199400D01*
X154619400Y-123860000D02*
X154203400Y-123444000D01*
X171958000Y-117094000D02*
X166697000Y-117094000D01*
X162395466Y-122199400D02*
X160817000Y-123777866D01*
X164744400Y-120929400D02*
X163474400Y-122199400D01*
X160817000Y-123790000D02*
X160747000Y-123860000D01*
X164744400Y-119046600D02*
X164744400Y-120929400D01*
%TO.N,Net-(R20-Pad1)*%
X119647500Y-104888500D02*
X120322900Y-104888500D01*
X122736000Y-126946000D02*
X119961000Y-126946000D01*
X118872000Y-125857000D02*
X119253000Y-125476000D01*
X119253000Y-125476000D02*
X119253000Y-105283000D01*
X119961000Y-126946000D02*
X118872000Y-125857000D01*
X120322900Y-104888500D02*
X120224500Y-104888500D01*
X119253000Y-105283000D02*
X119647500Y-104888500D01*
X120224500Y-104888500D02*
X120190000Y-104854000D01*
X123952000Y-125730000D02*
X122736000Y-126946000D01*
%TO.N,Net-(R21-Pad2)*%
X137541000Y-74422000D02*
X140335000Y-77216000D01*
X119633800Y-91947800D02*
X119253000Y-91567000D01*
X117729000Y-77597000D02*
X116586000Y-77597000D01*
X117729000Y-77089000D02*
X120396000Y-74422000D01*
X120322900Y-91947800D02*
X119633800Y-91947800D01*
X119253000Y-91567000D02*
X119253000Y-79121000D01*
X117729000Y-77597000D02*
X117729000Y-77089000D01*
X140335000Y-77216000D02*
X140335000Y-77851000D01*
X119253000Y-79121000D02*
X117729000Y-77597000D01*
X120396000Y-74422000D02*
X137541000Y-74422000D01*
%TO.N,Net-(U7-CHG)*%
X169114572Y-127000000D02*
X127508000Y-127000000D01*
D46*
X153162000Y-74168000D02*
X157480000Y-78486000D01*
D45*
X127508000Y-127000000D02*
X126238000Y-125730000D01*
X175460000Y-105864000D02*
X175460000Y-112303500D01*
X175895000Y-120219572D02*
X169114572Y-127000000D01*
X175387000Y-105791000D02*
X175460000Y-105864000D01*
X159585000Y-89989000D02*
X165325400Y-89989000D01*
X175895000Y-116453286D02*
X175895000Y-120219572D01*
X175387000Y-105791000D02*
X173661550Y-105791000D01*
D46*
X144262695Y-74168000D02*
X153162000Y-74168000D01*
D45*
X175646714Y-116205000D02*
X175895000Y-116453286D01*
X173661550Y-105791000D02*
X173101000Y-105230450D01*
X175260000Y-101786708D02*
X175260000Y-105664000D01*
X165325400Y-89989000D02*
X170342000Y-95005600D01*
D46*
X157480000Y-78486000D02*
X157480000Y-79756000D01*
D45*
X170342000Y-96868708D02*
X175260000Y-101786708D01*
X175260000Y-105664000D02*
X175387000Y-105791000D01*
D46*
X142621000Y-77851000D02*
X142621000Y-75809695D01*
X142621000Y-75809695D02*
X144262695Y-74168000D01*
D45*
X170342000Y-95005600D02*
X170342000Y-96868708D01*
X175460000Y-112303500D02*
X172466000Y-115297500D01*
X158886000Y-89290000D02*
X159585000Y-89989000D01*
D49*
%TO.N,Net-(U7-VCC)*%
X171069000Y-96587362D02*
X171069000Y-96520000D01*
D45*
X177319723Y-110916788D02*
X177319723Y-111623223D01*
X176495050Y-97501050D02*
X171910846Y-97501050D01*
X177546000Y-103124000D02*
X177546000Y-98552000D01*
D46*
X161671000Y-82931000D02*
X162814000Y-84074000D01*
D45*
X176530000Y-110127065D02*
X176530000Y-104140000D01*
D46*
X154000200Y-79596614D02*
X155669614Y-79596614D01*
X158369000Y-82931000D02*
X161671000Y-82931000D01*
X147701000Y-77216000D02*
X148717000Y-77216000D01*
D45*
X171069000Y-96659204D02*
X171069000Y-96587362D01*
X176530000Y-104140000D02*
X177546000Y-103124000D01*
D46*
X148717000Y-77216000D02*
X149352000Y-77851000D01*
D45*
X177546000Y-98552000D02*
X176495050Y-97501050D01*
X177319723Y-110916788D02*
X176530000Y-110127065D01*
X177319723Y-111623223D02*
X177329500Y-111633000D01*
D46*
X155669614Y-79596614D02*
X157093286Y-81020286D01*
D45*
X171910846Y-97501050D02*
X171069000Y-96659204D01*
%TO.N,Net-(R28-Pad1)*%
X106680000Y-109220000D02*
X106172200Y-108712200D01*
X106172200Y-108712200D02*
X105483100Y-108712200D01*
X108585000Y-125984000D02*
X108458000Y-125857000D01*
X106679500Y-121828500D02*
X106680000Y-121828000D01*
X108585000Y-125984000D02*
X110109000Y-124460000D01*
X110109000Y-124460000D02*
X110520000Y-124460000D01*
X108458000Y-125857000D02*
X107188000Y-125857000D01*
X106680000Y-121828000D02*
X106680000Y-109220000D01*
%TO.N,Net-(U7-DSG)*%
X165862000Y-103124000D02*
X157810200Y-103124000D01*
X157810200Y-103124000D02*
X157734000Y-103200200D01*
X173608500Y-103694816D02*
X172147316Y-105156000D01*
X173608500Y-103581528D02*
X173608500Y-103694816D01*
X172147316Y-105156000D02*
X167894000Y-105156000D01*
X167894000Y-105156000D02*
X165862000Y-103124000D01*
%TO.N,Net-(R29-Pad1)*%
X102743000Y-76708000D02*
X103378000Y-76073000D01*
X105483100Y-95758200D02*
X106171800Y-95758200D01*
X106171800Y-95758200D02*
X106553000Y-95377000D01*
X106553000Y-95377000D02*
X106553000Y-78867000D01*
X103378000Y-76073000D02*
X103378000Y-74803000D01*
X108204000Y-76200000D02*
X109885000Y-76200000D01*
%TO.N,Net-(U7-PACK)*%
X167894000Y-98806000D02*
X160401000Y-98806000D01*
X174371000Y-104394000D02*
X174371000Y-102702549D01*
X170377500Y-101289500D02*
X167894000Y-98806000D01*
X172957951Y-101289500D02*
X170377500Y-101289500D01*
X174371000Y-102702549D02*
X172957951Y-101289500D01*
%TO.N,Net-(R36-Pad1)*%
X114300000Y-75057000D02*
X113853000Y-75057000D01*
X113853000Y-75057000D02*
X111760000Y-77150000D01*
%TO.N,Net-(R37-Pad1)*%
X150190200Y-88773000D02*
X150533100Y-88430100D01*
X148701000Y-88773000D02*
X150190200Y-88773000D01*
X143213000Y-90111000D02*
X147363000Y-90111000D01*
X150533100Y-88430100D02*
X150533100Y-85204300D01*
X150533100Y-85204300D02*
X151866600Y-83870800D01*
X147363000Y-90111000D02*
X148701000Y-88773000D01*
%TO.N,/DISP*%
X151595000Y-90111000D02*
X155745000Y-90111000D01*
X180467000Y-93599000D02*
X174625000Y-87757000D01*
X174625000Y-87757000D02*
X159391572Y-87757000D01*
X159391572Y-87757000D02*
X156910572Y-90238000D01*
X155788000Y-90238000D02*
X156910572Y-90238000D01*
X179705000Y-97282000D02*
X180467000Y-96520000D01*
X180467000Y-96520000D02*
X180467000Y-93599000D01*
%TO.N,Net-(IC1-AC1OUT{slash}AC6{slash}ADC6{slash}PA6)*%
X210947000Y-86360000D02*
X208661000Y-86360000D01*
X208661000Y-86360000D02*
X203962000Y-91059000D01*
%TO.N,/REED_MCU*%
X152831800Y-82785000D02*
X153162000Y-82454800D01*
X153162000Y-82454800D02*
X153162000Y-78586650D01*
X152476200Y-86029800D02*
X152476200Y-85312200D01*
X151511000Y-76935650D02*
X151511000Y-76073000D01*
X152831800Y-84956600D02*
X152831800Y-82785000D01*
X152476200Y-85312200D02*
X152831800Y-84956600D01*
X153162000Y-78586650D02*
X151511000Y-76935650D01*
%TO.N,Net-(R25-Pad1)*%
X143176014Y-80322961D02*
X143176014Y-79937586D01*
X146812000Y-81407000D02*
X144260053Y-81407000D01*
X144260053Y-81407000D02*
X143176014Y-80322961D01*
%TO.N,/BQ_PRES{slash}SHUTDN*%
X178181000Y-103370948D02*
X177346000Y-104205948D01*
X177346000Y-104205948D02*
X177346000Y-109916053D01*
X177400000Y-112395000D02*
X172212000Y-117583000D01*
X178181000Y-110751052D02*
X178181000Y-112395000D01*
X177346000Y-109916053D02*
X178181000Y-110751052D01*
X178181000Y-112395000D02*
X177400000Y-112395000D01*
X178181000Y-97663000D02*
X178181000Y-103370948D01*
X172212000Y-117583000D02*
X172212000Y-121920000D01*
X177292000Y-96774000D02*
X178181000Y-97663000D01*
X172212000Y-121920000D02*
X170561000Y-123571000D01*
%TO.N,/POD_SYS_PRES*%
X149098000Y-81407000D02*
X149275800Y-81407000D01*
X146812000Y-79121000D02*
X149098000Y-81407000D01*
%TD*%
%TA.AperFunction,Conductor*%
%TO.N,/BAT+*%
G36*
X140151039Y-79013685D02*
G01*
X140196794Y-79066489D01*
X140208000Y-79118000D01*
X140208000Y-86029070D01*
X140206435Y-86047962D01*
X140206466Y-86047966D01*
X140206375Y-86048695D01*
X140206311Y-86049469D01*
X140206182Y-86050237D01*
X140205194Y-86058162D01*
X140207500Y-86113883D01*
X140207500Y-89770572D01*
X140204861Y-89796020D01*
X140202554Y-89807017D01*
X140207023Y-89842865D01*
X140207500Y-89850541D01*
X140207500Y-89854611D01*
X140207788Y-89858091D01*
X140208000Y-89863212D01*
X140208000Y-121542000D01*
X140188315Y-121609039D01*
X140135511Y-121654794D01*
X140084000Y-121666000D01*
X127251000Y-121666000D01*
X127183961Y-121646315D01*
X127138206Y-121593511D01*
X127127000Y-121542000D01*
X127127000Y-112105063D01*
X133139500Y-112105063D01*
X133154266Y-112179301D01*
X133210515Y-112263484D01*
X133244234Y-112286014D01*
X133294699Y-112319734D01*
X133294702Y-112319734D01*
X133294703Y-112319735D01*
X133319666Y-112324700D01*
X133368933Y-112334500D01*
X138919066Y-112334499D01*
X138993301Y-112319734D01*
X139077484Y-112263484D01*
X139133734Y-112179301D01*
X139148500Y-112105067D01*
X139148499Y-106554934D01*
X139133734Y-106480699D01*
X139115068Y-106452765D01*
X139077484Y-106396515D01*
X139027019Y-106362796D01*
X138993301Y-106340266D01*
X138993299Y-106340265D01*
X138993296Y-106340264D01*
X138919069Y-106325500D01*
X133368936Y-106325500D01*
X133294698Y-106340266D01*
X133210515Y-106396515D01*
X133154266Y-106480699D01*
X133154264Y-106480703D01*
X133139500Y-106554928D01*
X133139500Y-112105063D01*
X127127000Y-112105063D01*
X127127000Y-96956889D01*
X127146685Y-96889850D01*
X127157034Y-96875980D01*
X128230127Y-95630000D01*
X128262437Y-95575265D01*
X128278481Y-95475298D01*
X128278481Y-95475296D01*
X128278481Y-95475295D01*
X128255050Y-95376803D01*
X128255049Y-95376801D01*
X128255049Y-95376800D01*
X128225377Y-95335784D01*
X128195709Y-95294770D01*
X128195708Y-95294769D01*
X128195707Y-95294768D01*
X128109490Y-95241688D01*
X128109492Y-95241688D01*
X128091616Y-95238477D01*
X128046931Y-95230450D01*
X128046926Y-95230450D01*
X127251000Y-95230450D01*
X127183961Y-95210765D01*
X127138206Y-95157961D01*
X127127000Y-95106450D01*
X127127000Y-79118000D01*
X127146685Y-79050961D01*
X127199489Y-79005206D01*
X127251000Y-78994000D01*
X140084000Y-78994000D01*
X140151039Y-79013685D01*
G37*
%TD.AperFunction*%
%TD*%
%TA.AperFunction,Conductor*%
%TO.N,/Vin*%
G36*
X145625703Y-98619581D02*
G01*
X145639078Y-98633101D01*
X145660701Y-98658603D01*
X145743827Y-98713294D01*
X145745290Y-98714256D01*
X145810030Y-98740533D01*
X145854276Y-98754041D01*
X145955522Y-98755125D01*
X146024191Y-98742229D01*
X146094107Y-98718403D01*
X146104128Y-98713296D01*
X146141046Y-98701301D01*
X146144535Y-98700749D01*
X146145959Y-98700524D01*
X146165341Y-98699000D01*
X147193657Y-98699000D01*
X147213040Y-98700524D01*
X147217966Y-98701304D01*
X147254862Y-98713291D01*
X147281141Y-98726681D01*
X147286968Y-98730062D01*
X147293544Y-98734372D01*
X147293547Y-98734374D01*
X147333215Y-98755124D01*
X147383261Y-98781303D01*
X147383262Y-98781304D01*
X147433390Y-98796022D01*
X147450300Y-98800988D01*
X147450307Y-98800989D01*
X147467645Y-98803482D01*
X147531201Y-98832505D01*
X147568976Y-98891283D01*
X147574000Y-98926220D01*
X147574000Y-105921000D01*
X147554315Y-105988039D01*
X147501511Y-106033794D01*
X147450000Y-106045000D01*
X146428500Y-106045000D01*
X146361461Y-106025315D01*
X146315706Y-105972511D01*
X146304500Y-105921000D01*
X146304500Y-105715161D01*
X146324185Y-105648122D01*
X146325398Y-105646270D01*
X146328396Y-105641782D01*
X146335734Y-105630801D01*
X146335734Y-105630799D01*
X146335735Y-105630799D01*
X146350499Y-105556571D01*
X146350500Y-105556567D01*
X146350499Y-103306434D01*
X146335734Y-103232199D01*
X146317068Y-103204265D01*
X146279484Y-103148015D01*
X146229019Y-103114296D01*
X146195301Y-103091766D01*
X146195299Y-103091765D01*
X146195296Y-103091764D01*
X146121071Y-103077000D01*
X145544500Y-103077000D01*
X145477461Y-103057315D01*
X145431706Y-103004511D01*
X145420500Y-102953000D01*
X145420500Y-100581008D01*
X145420500Y-100581000D01*
X145415356Y-100533154D01*
X145415000Y-100526522D01*
X145415000Y-100120622D01*
X145416262Y-100102975D01*
X145420500Y-100073500D01*
X145420500Y-98713294D01*
X145440185Y-98646255D01*
X145492989Y-98600500D01*
X145562147Y-98590556D01*
X145625703Y-98619581D01*
G37*
%TD.AperFunction*%
%TD*%
%TA.AperFunction,Conductor*%
%TO.N,Net-(R26-Pad1)*%
G36*
X118602155Y-79013685D02*
G01*
X118622792Y-79030314D01*
X118681867Y-79089389D01*
X118708681Y-79116203D01*
X118742165Y-79177527D01*
X118744999Y-79203884D01*
X118745000Y-121542000D01*
X118725315Y-121609039D01*
X118672511Y-121654794D01*
X118621000Y-121666000D01*
X107403451Y-121666000D01*
X107336412Y-121646315D01*
X107290657Y-121593511D01*
X107287509Y-121585972D01*
X107263286Y-121522103D01*
X107209950Y-121444833D01*
X107188067Y-121378479D01*
X107188000Y-121374393D01*
X107188000Y-104213831D01*
X107207685Y-104146792D01*
X107209950Y-104143391D01*
X107263787Y-104065395D01*
X107320149Y-103916782D01*
X107339307Y-103759000D01*
X107320149Y-103601218D01*
X107263787Y-103452605D01*
X107263785Y-103452602D01*
X107209950Y-103374608D01*
X107188067Y-103308253D01*
X107188000Y-103304168D01*
X107188000Y-101724000D01*
X107207685Y-101656961D01*
X107260489Y-101611206D01*
X107312000Y-101600000D01*
X109728000Y-101600000D01*
X109728000Y-101315688D01*
X109728299Y-101309605D01*
X109728497Y-101307577D01*
X109728500Y-101307567D01*
X109728499Y-99352434D01*
X109728499Y-99352431D01*
X109728299Y-99350400D01*
X109728000Y-99344320D01*
X109728000Y-99060000D01*
X107312000Y-99060000D01*
X107244961Y-99040315D01*
X107199206Y-98987511D01*
X107188000Y-98936000D01*
X107188000Y-97355831D01*
X107207685Y-97288792D01*
X107209950Y-97285391D01*
X107263787Y-97207395D01*
X107320149Y-97058782D01*
X107339307Y-96901000D01*
X107320149Y-96743218D01*
X107263787Y-96594605D01*
X107263785Y-96594602D01*
X107209950Y-96516608D01*
X107188067Y-96450253D01*
X107188000Y-96446168D01*
X107188000Y-79118000D01*
X107207685Y-79050961D01*
X107260489Y-79005206D01*
X107312000Y-78994000D01*
X118535116Y-78994000D01*
X118602155Y-79013685D01*
G37*
%TD.AperFunction*%
%TD*%
%TA.AperFunction,Conductor*%
%TO.N,/PACK+*%
G36*
X96697187Y-79013685D02*
G01*
X96742942Y-79066489D01*
X96752886Y-79135647D01*
X96752402Y-79138732D01*
X96746513Y-79173394D01*
X96705724Y-79413458D01*
X96705722Y-79413470D01*
X96686487Y-79755999D01*
X96705722Y-80098529D01*
X96705724Y-80098541D01*
X96763189Y-80436757D01*
X96763191Y-80436766D01*
X96858163Y-80766421D01*
X96989453Y-81083384D01*
X97155408Y-81383657D01*
X97155411Y-81383662D01*
X97353929Y-81663445D01*
X97353933Y-81663450D01*
X97582539Y-81919261D01*
X97838350Y-82147867D01*
X97838353Y-82147869D01*
X97838354Y-82147870D01*
X98118137Y-82346388D01*
X98118142Y-82346391D01*
X98118145Y-82346392D01*
X98118147Y-82346394D01*
X98418414Y-82512346D01*
X98735373Y-82643635D01*
X99065039Y-82738610D01*
X99403266Y-82796077D01*
X99745800Y-82815313D01*
X100088334Y-82796077D01*
X100426561Y-82738610D01*
X100756227Y-82643635D01*
X101073186Y-82512346D01*
X101373453Y-82346394D01*
X101373458Y-82346390D01*
X101373462Y-82346388D01*
X101489101Y-82264336D01*
X101653250Y-82147867D01*
X101909061Y-81919261D01*
X102137667Y-81663450D01*
X102336194Y-81383653D01*
X102502146Y-81083386D01*
X102633435Y-80766427D01*
X102728410Y-80436761D01*
X102785877Y-80098534D01*
X102805113Y-79756000D01*
X102785877Y-79413466D01*
X102739204Y-79138769D01*
X102747381Y-79069381D01*
X102791774Y-79015428D01*
X102858290Y-78994040D01*
X102861452Y-78994000D01*
X105815586Y-78994000D01*
X105882625Y-79013685D01*
X105928380Y-79066489D01*
X105931528Y-79074029D01*
X105969212Y-79173394D01*
X106023050Y-79251391D01*
X106044933Y-79317745D01*
X106045000Y-79321831D01*
X106045000Y-95208491D01*
X106025315Y-95275530D01*
X105972511Y-95321285D01*
X105903353Y-95331229D01*
X105866541Y-95319892D01*
X105843873Y-95308810D01*
X105774479Y-95298700D01*
X105774478Y-95298700D01*
X105191722Y-95298700D01*
X105191721Y-95298700D01*
X105122328Y-95308810D01*
X105015284Y-95361140D01*
X104931040Y-95445384D01*
X104878710Y-95552428D01*
X104868600Y-95621821D01*
X104868600Y-95894578D01*
X104878710Y-95963971D01*
X104931040Y-96071015D01*
X105015284Y-96155259D01*
X105015285Y-96155259D01*
X105015287Y-96155261D01*
X105122327Y-96207589D01*
X105153226Y-96212091D01*
X105191721Y-96217700D01*
X105191722Y-96217700D01*
X105774479Y-96217700D01*
X105791826Y-96215172D01*
X105843873Y-96207589D01*
X105866540Y-96196507D01*
X105935411Y-96184748D01*
X105999708Y-96212091D01*
X106039017Y-96269854D01*
X106045000Y-96307908D01*
X106045000Y-96707271D01*
X106041397Y-96736946D01*
X106039850Y-96743219D01*
X106020693Y-96900999D01*
X106020693Y-96901000D01*
X106039850Y-97058782D01*
X106041395Y-97065046D01*
X106045000Y-97094727D01*
X106045000Y-98999000D01*
X106025315Y-99066039D01*
X105972511Y-99111794D01*
X105921000Y-99123000D01*
X104876936Y-99123000D01*
X104802698Y-99137766D01*
X104718515Y-99194015D01*
X104662266Y-99278199D01*
X104662264Y-99278203D01*
X104647500Y-99352428D01*
X104647500Y-101307563D01*
X104662266Y-101381801D01*
X104718515Y-101465984D01*
X104752234Y-101488514D01*
X104802699Y-101522234D01*
X104802702Y-101522234D01*
X104802703Y-101522235D01*
X104827666Y-101527200D01*
X104876933Y-101537000D01*
X105921000Y-101536999D01*
X105988039Y-101556683D01*
X106033794Y-101609487D01*
X106045000Y-101660999D01*
X106045000Y-103565271D01*
X106041397Y-103594946D01*
X106039850Y-103601219D01*
X106020693Y-103758999D01*
X106020693Y-103759000D01*
X106039850Y-103916782D01*
X106041395Y-103923046D01*
X106045000Y-103952727D01*
X106045000Y-108162491D01*
X106025315Y-108229530D01*
X105972511Y-108275285D01*
X105903353Y-108285229D01*
X105866541Y-108273892D01*
X105843873Y-108262810D01*
X105774479Y-108252700D01*
X105774478Y-108252700D01*
X105191722Y-108252700D01*
X105191721Y-108252700D01*
X105122328Y-108262810D01*
X105015284Y-108315140D01*
X104931040Y-108399384D01*
X104878710Y-108506428D01*
X104868600Y-108575821D01*
X104868600Y-108848578D01*
X104878710Y-108917971D01*
X104931040Y-109025015D01*
X105015284Y-109109259D01*
X105015285Y-109109259D01*
X105015287Y-109109261D01*
X105122327Y-109161589D01*
X105153226Y-109166091D01*
X105191721Y-109171700D01*
X105191722Y-109171700D01*
X105774479Y-109171700D01*
X105791826Y-109169172D01*
X105843873Y-109161589D01*
X105866540Y-109150507D01*
X105935411Y-109138748D01*
X105999708Y-109166091D01*
X106039017Y-109223854D01*
X106045000Y-109261908D01*
X106045000Y-121542000D01*
X106025315Y-121609039D01*
X105972511Y-121654794D01*
X105921000Y-121666000D01*
X102883031Y-121666000D01*
X102815992Y-121646315D01*
X102770237Y-121593511D01*
X102760293Y-121524353D01*
X102760783Y-121521229D01*
X102768431Y-121476209D01*
X102785877Y-121373534D01*
X102805113Y-121031000D01*
X102785877Y-120688466D01*
X102728410Y-120350239D01*
X102633435Y-120020573D01*
X102502146Y-119703614D01*
X102336194Y-119403347D01*
X102336192Y-119403345D01*
X102336191Y-119403342D01*
X102336188Y-119403337D01*
X102137670Y-119123554D01*
X102137669Y-119123553D01*
X102137667Y-119123550D01*
X101909061Y-118867739D01*
X101653250Y-118639133D01*
X101653247Y-118639131D01*
X101653245Y-118639129D01*
X101373462Y-118440611D01*
X101373457Y-118440608D01*
X101073184Y-118274653D01*
X100990393Y-118240360D01*
X100756227Y-118143365D01*
X100756223Y-118143363D01*
X100756221Y-118143363D01*
X100426566Y-118048391D01*
X100426557Y-118048389D01*
X100088341Y-117990924D01*
X100088329Y-117990922D01*
X99745800Y-117971687D01*
X99403270Y-117990922D01*
X99403258Y-117990924D01*
X99065042Y-118048389D01*
X99065033Y-118048391D01*
X98735378Y-118143363D01*
X98418415Y-118274653D01*
X98118142Y-118440608D01*
X98118137Y-118440611D01*
X97838354Y-118639129D01*
X97582539Y-118867739D01*
X97353929Y-119123554D01*
X97155411Y-119403337D01*
X97155408Y-119403342D01*
X96989453Y-119703615D01*
X96858163Y-120020578D01*
X96763191Y-120350233D01*
X96763189Y-120350242D01*
X96705724Y-120688458D01*
X96705722Y-120688470D01*
X96686487Y-121030999D01*
X96705722Y-121373529D01*
X96705724Y-121373541D01*
X96730817Y-121521229D01*
X96722640Y-121590619D01*
X96678246Y-121644572D01*
X96611731Y-121665960D01*
X96608569Y-121666000D01*
X93520300Y-121666000D01*
X93453261Y-121646315D01*
X93407506Y-121593511D01*
X93396300Y-121542000D01*
X93396300Y-97910214D01*
X93419656Y-94033063D01*
X94531500Y-94033063D01*
X94546266Y-94107301D01*
X94602515Y-94191484D01*
X94636234Y-94214014D01*
X94686699Y-94247734D01*
X94686702Y-94247734D01*
X94686703Y-94247735D01*
X94711666Y-94252700D01*
X94760933Y-94262500D01*
X100311066Y-94262499D01*
X100385301Y-94247734D01*
X100469484Y-94191484D01*
X100525734Y-94107301D01*
X100540500Y-94033067D01*
X100540499Y-88482934D01*
X100525734Y-88408699D01*
X100507068Y-88380765D01*
X100469484Y-88324515D01*
X100419019Y-88290796D01*
X100385301Y-88268266D01*
X100385299Y-88268265D01*
X100385296Y-88268264D01*
X100311069Y-88253500D01*
X94760936Y-88253500D01*
X94686698Y-88268266D01*
X94602515Y-88324515D01*
X94546266Y-88408699D01*
X94546264Y-88408703D01*
X94531500Y-88482928D01*
X94531500Y-94033063D01*
X93419656Y-94033063D01*
X93509511Y-79117253D01*
X93529599Y-79050333D01*
X93582678Y-79004897D01*
X93633509Y-78994000D01*
X96630148Y-78994000D01*
X96697187Y-79013685D01*
G37*
%TD.AperFunction*%
%TD*%
%TA.AperFunction,Conductor*%
%TO.N,Net-(C19-Pad1)*%
G36*
X126095155Y-79013685D02*
G01*
X126115796Y-79030318D01*
X126125484Y-79040006D01*
X126125485Y-79040007D01*
X126158967Y-79101332D01*
X126161799Y-79127684D01*
X126161800Y-95106450D01*
X126142115Y-95173489D01*
X126089311Y-95219244D01*
X126037800Y-95230450D01*
X124962470Y-95230450D01*
X124899911Y-95241687D01*
X124899908Y-95241689D01*
X124813697Y-95294764D01*
X124813693Y-95294768D01*
X124754350Y-95376801D01*
X124730918Y-95475295D01*
X124730918Y-95475296D01*
X124746963Y-95575263D01*
X124779272Y-95630000D01*
X124779274Y-95630002D01*
X125968124Y-97010388D01*
X125968128Y-97010392D01*
X125968132Y-97010396D01*
X125981135Y-97022341D01*
X125981137Y-97022343D01*
X126082012Y-97068596D01*
X126081252Y-97070252D01*
X126130510Y-97101061D01*
X126160311Y-97164256D01*
X126161799Y-97183406D01*
X126161800Y-121542000D01*
X126142115Y-121609039D01*
X126089311Y-121654794D01*
X126037800Y-121666000D01*
X119885000Y-121666000D01*
X119817961Y-121646315D01*
X119772206Y-121593511D01*
X119761000Y-121542000D01*
X119761000Y-105438208D01*
X119780685Y-105371169D01*
X119833489Y-105325414D01*
X119902647Y-105315470D01*
X119939457Y-105326806D01*
X119962127Y-105337889D01*
X120008390Y-105344629D01*
X120031521Y-105348000D01*
X120031522Y-105348000D01*
X120614279Y-105348000D01*
X120637409Y-105344629D01*
X120683673Y-105337889D01*
X120790713Y-105285561D01*
X120874961Y-105201313D01*
X120927289Y-105094273D01*
X120937400Y-105024878D01*
X120937400Y-104752122D01*
X120927289Y-104682727D01*
X120874961Y-104575687D01*
X120874959Y-104575685D01*
X120874959Y-104575684D01*
X120790715Y-104491440D01*
X120683671Y-104439110D01*
X120614279Y-104429000D01*
X120614278Y-104429000D01*
X120031522Y-104429000D01*
X120031521Y-104429000D01*
X119962127Y-104439110D01*
X119962126Y-104439110D01*
X119939459Y-104450192D01*
X119870586Y-104461950D01*
X119806289Y-104434606D01*
X119766982Y-104376842D01*
X119761000Y-104338791D01*
X119761000Y-92497508D01*
X119780685Y-92430469D01*
X119833489Y-92384714D01*
X119902647Y-92374770D01*
X119939457Y-92386106D01*
X119962127Y-92397189D01*
X120008390Y-92403929D01*
X120031521Y-92407300D01*
X120031522Y-92407300D01*
X120614279Y-92407300D01*
X120637409Y-92403929D01*
X120683673Y-92397189D01*
X120790713Y-92344861D01*
X120874961Y-92260613D01*
X120927289Y-92153573D01*
X120937400Y-92084178D01*
X120937400Y-91811422D01*
X120936400Y-91804562D01*
X120927289Y-91742028D01*
X120903119Y-91692586D01*
X120874961Y-91634987D01*
X120874959Y-91634985D01*
X120874959Y-91634984D01*
X120790715Y-91550740D01*
X120683671Y-91498410D01*
X120614279Y-91488300D01*
X120614278Y-91488300D01*
X120031522Y-91488300D01*
X120031521Y-91488300D01*
X119962127Y-91498410D01*
X119939457Y-91509493D01*
X119870583Y-91521250D01*
X119806287Y-91493905D01*
X119766981Y-91436140D01*
X119760999Y-91398097D01*
X119761000Y-79117999D01*
X119780685Y-79050961D01*
X119833489Y-79005206D01*
X119885000Y-78994000D01*
X126028116Y-78994000D01*
X126095155Y-79013685D01*
G37*
%TD.AperFunction*%
%TD*%
%TA.AperFunction,Conductor*%
%TO.N,GNDPWR*%
G36*
X152343039Y-96793685D02*
G01*
X152388794Y-96846489D01*
X152400000Y-96898000D01*
X152400000Y-97727531D01*
X152380315Y-97794570D01*
X152333626Y-97837327D01*
X152261058Y-97875413D01*
X152261056Y-97875415D01*
X152142092Y-97980808D01*
X152142086Y-97980815D01*
X152051800Y-98111616D01*
X151995436Y-98260232D01*
X151976279Y-98418013D01*
X151976279Y-98418014D01*
X151995436Y-98575795D01*
X152005859Y-98603277D01*
X152051799Y-98724409D01*
X152142088Y-98855215D01*
X152142090Y-98855217D01*
X152142092Y-98855219D01*
X152261055Y-98960612D01*
X152261057Y-98960613D01*
X152333626Y-98998700D01*
X152383838Y-99047283D01*
X152400000Y-99108496D01*
X152400000Y-111962638D01*
X152380315Y-112029677D01*
X152363681Y-112050319D01*
X151674319Y-112739681D01*
X151612996Y-112773166D01*
X151586638Y-112776000D01*
X143380000Y-112776000D01*
X143312961Y-112756315D01*
X143267206Y-112703511D01*
X143256000Y-112652000D01*
X143256000Y-109344000D01*
X143275685Y-109276961D01*
X143328489Y-109231206D01*
X143380000Y-109220000D01*
X149606000Y-109220000D01*
X149606000Y-102997000D01*
X150495000Y-102997000D01*
X150495000Y-97663000D01*
X149606000Y-97663000D01*
X149606000Y-97400765D01*
X149625685Y-97333727D01*
X149638169Y-97319165D01*
X149637324Y-97318416D01*
X149642296Y-97312803D01*
X149642296Y-97312802D01*
X149642298Y-97312801D01*
X149732587Y-97181995D01*
X149788949Y-97033382D01*
X149807201Y-96883054D01*
X149834824Y-96818876D01*
X149892758Y-96779819D01*
X149930298Y-96774000D01*
X152276000Y-96774000D01*
X152343039Y-96793685D01*
G37*
%TD.AperFunction*%
%TD*%
%TA.AperFunction,Conductor*%
%TO.N,GNDPWR*%
G36*
X150495000Y-102997000D02*
G01*
X147957500Y-102997000D01*
X147890461Y-102977315D01*
X147844706Y-102924511D01*
X147833500Y-102873000D01*
X147833500Y-98926219D01*
X147830858Y-98889277D01*
X147830858Y-98889278D01*
X147825834Y-98854346D01*
X147824352Y-98845206D01*
X147787280Y-98750985D01*
X147763057Y-98713294D01*
X147749505Y-98692206D01*
X147721127Y-98655677D01*
X147721119Y-98655668D01*
X147639002Y-98596456D01*
X147638997Y-98596453D01*
X147621538Y-98588481D01*
X147585367Y-98563367D01*
X147574000Y-98552000D01*
X150495000Y-98552000D01*
X150495000Y-102997000D01*
G37*
%TD.AperFunction*%
%TD*%
%TA.AperFunction,Conductor*%
%TO.N,GNDPWR*%
G36*
X150495000Y-98552000D02*
G01*
X147523412Y-98552000D01*
X147456373Y-98532315D01*
X147435731Y-98515681D01*
X147432728Y-98512678D01*
X147432725Y-98512676D01*
X147432723Y-98512674D01*
X147318555Y-98454502D01*
X147318554Y-98454501D01*
X147318551Y-98454500D01*
X147318552Y-98454500D01*
X147223839Y-98439500D01*
X147223834Y-98439500D01*
X146135166Y-98439500D01*
X146135161Y-98439500D01*
X146040447Y-98454500D01*
X146040444Y-98454501D01*
X145976294Y-98487188D01*
X145907625Y-98500084D01*
X145842885Y-98473807D01*
X145802628Y-98416701D01*
X145796000Y-98376703D01*
X145796000Y-97787000D01*
X145815685Y-97719961D01*
X145868489Y-97674206D01*
X145920000Y-97663000D01*
X149606000Y-97663000D01*
X150495000Y-97663000D01*
X150495000Y-98552000D01*
G37*
%TD.AperFunction*%
%TD*%
%TA.AperFunction,Conductor*%
%TO.N,+3.3V*%
G36*
X145104039Y-100476685D02*
G01*
X145149794Y-100529489D01*
X145161000Y-100581000D01*
X145161000Y-107318000D01*
X145141315Y-107385039D01*
X145088511Y-107430794D01*
X145037000Y-107442000D01*
X141094000Y-107442000D01*
X141026961Y-107422315D01*
X140981206Y-107369511D01*
X140970000Y-107318000D01*
X140970000Y-100581000D01*
X140989685Y-100513961D01*
X141042489Y-100468206D01*
X141094000Y-100457000D01*
X145037000Y-100457000D01*
X145104039Y-100476685D01*
G37*
%TD.AperFunction*%
%TD*%
%TA.AperFunction,Conductor*%
%TO.N,+12V*%
G36*
X145104039Y-93491685D02*
G01*
X145149794Y-93544489D01*
X145161000Y-93596000D01*
X145161000Y-96427917D01*
X145141315Y-96494956D01*
X145088511Y-96540711D01*
X145019353Y-96550655D01*
X145017604Y-96550391D01*
X144948835Y-96539500D01*
X144948834Y-96539500D01*
X143860166Y-96539500D01*
X143860161Y-96539500D01*
X143765447Y-96554500D01*
X143689333Y-96593283D01*
X143651277Y-96612674D01*
X143651276Y-96612675D01*
X143651271Y-96612678D01*
X143560678Y-96703271D01*
X143560675Y-96703276D01*
X143502500Y-96817447D01*
X143487500Y-96912160D01*
X143487500Y-97275839D01*
X143502500Y-97370552D01*
X143502502Y-97370555D01*
X143560674Y-97484723D01*
X143560676Y-97484725D01*
X143560678Y-97484728D01*
X143651271Y-97575321D01*
X143651273Y-97575322D01*
X143651277Y-97575326D01*
X143765445Y-97633498D01*
X143765446Y-97633498D01*
X143765448Y-97633499D01*
X143765447Y-97633499D01*
X143860161Y-97648500D01*
X143860166Y-97648500D01*
X144948839Y-97648500D01*
X145017602Y-97637609D01*
X145086895Y-97646564D01*
X145140347Y-97691560D01*
X145160987Y-97758311D01*
X145161000Y-97760082D01*
X145161000Y-100073500D01*
X145141315Y-100140539D01*
X145088511Y-100186294D01*
X145037000Y-100197500D01*
X141094000Y-100197500D01*
X141026961Y-100177815D01*
X140981206Y-100125011D01*
X140970000Y-100073500D01*
X140970000Y-93596000D01*
X140989685Y-93528961D01*
X141042489Y-93483206D01*
X141094000Y-93472000D01*
X145037000Y-93472000D01*
X145104039Y-93491685D01*
G37*
%TD.AperFunction*%
%TD*%
%TA.AperFunction,Conductor*%
%TO.N,/Vin*%
G36*
X143576803Y-86120202D02*
G01*
X143708007Y-86189063D01*
X143708009Y-86189063D01*
X143708010Y-86189064D01*
X143862328Y-86227100D01*
X143862329Y-86227100D01*
X144021272Y-86227100D01*
X144030480Y-86224829D01*
X144054310Y-86218956D01*
X144124109Y-86222022D01*
X144124245Y-86222069D01*
X144124252Y-86222072D01*
X144157539Y-86233500D01*
X144165422Y-86234815D01*
X144173357Y-86235804D01*
X144173358Y-86235805D01*
X144173358Y-86235804D01*
X144173359Y-86235805D01*
X144201220Y-86234652D01*
X144229084Y-86233500D01*
X147323000Y-86233500D01*
X147390039Y-86253185D01*
X147435794Y-86305989D01*
X147447000Y-86357500D01*
X147447000Y-88776000D01*
X147427315Y-88843039D01*
X147374511Y-88888794D01*
X147323000Y-88900000D01*
X142014304Y-88900000D01*
X141947265Y-88880315D01*
X141932077Y-88868815D01*
X141816665Y-88766568D01*
X141688096Y-88699090D01*
X141675928Y-88692704D01*
X141675927Y-88692703D01*
X141675926Y-88692703D01*
X141521607Y-88654667D01*
X141521606Y-88654667D01*
X141475000Y-88654667D01*
X141407961Y-88634982D01*
X141362206Y-88582178D01*
X141351000Y-88530667D01*
X141351000Y-86230000D01*
X141370685Y-86162961D01*
X141423489Y-86117206D01*
X141475000Y-86106000D01*
X143519181Y-86106000D01*
X143576803Y-86120202D01*
G37*
%TD.AperFunction*%
%TD*%
M02*
