%TF.GenerationSoftware,KiCad,Pcbnew,7.0.7*%
%TF.CreationDate,2024-03-21T09:31:29-04:00*%
%TF.ProjectId,BMB,424d422e-6b69-4636-9164-5f7063625858,rev?*%
%TF.SameCoordinates,Original*%
%TF.FileFunction,Copper,L4,Bot*%
%TF.FilePolarity,Positive*%
%FSLAX46Y46*%
G04 Gerber Fmt 4.6, Leading zero omitted, Abs format (unit mm)*
G04 Created by KiCad (PCBNEW 7.0.7) date 2024-03-21 09:31:29*
%MOMM*%
%LPD*%
G01*
G04 APERTURE LIST*
G04 Aperture macros list*
%AMRoundRect*
0 Rectangle with rounded corners*
0 $1 Rounding radius*
0 $2 $3 $4 $5 $6 $7 $8 $9 X,Y pos of 4 corners*
0 Add a 4 corners polygon primitive as box body*
4,1,4,$2,$3,$4,$5,$6,$7,$8,$9,$2,$3,0*
0 Add four circle primitives for the rounded corners*
1,1,$1+$1,$2,$3*
1,1,$1+$1,$4,$5*
1,1,$1+$1,$6,$7*
1,1,$1+$1,$8,$9*
0 Add four rect primitives between the rounded corners*
20,1,$1+$1,$2,$3,$4,$5,0*
20,1,$1+$1,$4,$5,$6,$7,0*
20,1,$1+$1,$6,$7,$8,$9,0*
20,1,$1+$1,$8,$9,$2,$3,0*%
%AMFreePoly0*
4,1,14,0.385355,0.085355,0.400000,0.050000,0.400000,0.020711,0.385355,-0.014645,0.314644,-0.085355,0.279289,-0.100000,-0.350000,-0.100000,-0.385355,-0.085355,-0.400000,-0.050000,-0.400000,0.050000,-0.385355,0.085355,-0.350000,0.100000,0.350000,0.100000,0.385355,0.085355,0.385355,0.085355,$1*%
%AMFreePoly1*
4,1,14,0.314644,0.085355,0.385355,0.014644,0.400000,-0.020711,0.400000,-0.050000,0.385355,-0.085355,0.350000,-0.100000,-0.350000,-0.100000,-0.385355,-0.085355,-0.400000,-0.050000,-0.400000,0.050000,-0.385355,0.085355,-0.350000,0.100000,0.279289,0.100000,0.314644,0.085355,0.314644,0.085355,$1*%
%AMFreePoly2*
4,1,14,0.085355,0.385355,0.100000,0.350000,0.100000,-0.350000,0.085355,-0.385355,0.050000,-0.400000,0.020711,-0.400000,-0.014645,-0.385355,-0.085355,-0.314644,-0.100000,-0.279289,-0.100000,0.350000,-0.085355,0.385355,-0.050000,0.400000,0.050000,0.400000,0.085355,0.385355,0.085355,0.385355,$1*%
%AMFreePoly3*
4,1,14,0.085355,0.385355,0.100000,0.350000,0.100000,-0.279289,0.085355,-0.314645,0.014644,-0.385355,-0.020711,-0.400000,-0.050000,-0.400000,-0.085355,-0.385355,-0.100000,-0.350000,-0.100000,0.350000,-0.085355,0.385355,-0.050000,0.400000,0.050000,0.400000,0.085355,0.385355,0.085355,0.385355,$1*%
%AMFreePoly4*
4,1,14,0.385355,0.085355,0.400000,0.050000,0.400000,-0.050000,0.385355,-0.085355,0.350000,-0.100000,-0.350000,-0.100000,-0.385355,-0.085355,-0.400000,-0.050000,-0.400000,-0.020711,-0.385355,0.014644,-0.314645,0.085355,-0.279289,0.100000,0.350000,0.100000,0.385355,0.085355,0.385355,0.085355,$1*%
%AMFreePoly5*
4,1,14,0.385355,0.085355,0.400000,0.050000,0.400000,-0.050000,0.385355,-0.085355,0.350000,-0.100000,-0.279289,-0.100000,-0.314645,-0.085355,-0.385355,-0.014644,-0.400000,0.020711,-0.400000,0.050000,-0.385355,0.085355,-0.350000,0.100000,0.350000,0.100000,0.385355,0.085355,0.385355,0.085355,$1*%
%AMFreePoly6*
4,1,14,0.014644,0.385355,0.085355,0.314644,0.100000,0.279289,0.100000,-0.350000,0.085355,-0.385355,0.050000,-0.400000,-0.050000,-0.400000,-0.085355,-0.385355,-0.100000,-0.350000,-0.100000,0.350000,-0.085355,0.385355,-0.050000,0.400000,-0.020711,0.400000,0.014644,0.385355,0.014644,0.385355,$1*%
%AMFreePoly7*
4,1,14,0.085355,0.385355,0.100000,0.350000,0.100000,-0.350000,0.085355,-0.385355,0.050000,-0.400000,-0.050000,-0.400000,-0.085355,-0.385355,-0.100000,-0.350000,-0.100000,0.279289,-0.085355,0.314644,-0.014645,0.385355,0.020711,0.400000,0.050000,0.400000,0.085355,0.385355,0.085355,0.385355,$1*%
G04 Aperture macros list end*
%TA.AperFunction,ComponentPad*%
%ADD10C,1.905000*%
%TD*%
%TA.AperFunction,ComponentPad*%
%ADD11C,5.500000*%
%TD*%
%TA.AperFunction,ComponentPad*%
%ADD12R,5.500000X5.500000*%
%TD*%
%TA.AperFunction,ComponentPad*%
%ADD13C,5.600000*%
%TD*%
%TA.AperFunction,ComponentPad*%
%ADD14R,1.727200X1.727200*%
%TD*%
%TA.AperFunction,ComponentPad*%
%ADD15O,1.727200X1.727200*%
%TD*%
%TA.AperFunction,ComponentPad*%
%ADD16C,1.524000*%
%TD*%
%TA.AperFunction,SMDPad,CuDef*%
%ADD17R,1.524000X1.270000*%
%TD*%
%TA.AperFunction,SMDPad,CuDef*%
%ADD18R,1.270000X1.524000*%
%TD*%
%TA.AperFunction,SMDPad,CuDef*%
%ADD19R,0.400050X0.701040*%
%TD*%
%TA.AperFunction,SMDPad,CuDef*%
%ADD20R,0.250000X0.500000*%
%TD*%
%TA.AperFunction,SMDPad,CuDef*%
%ADD21R,1.600000X0.900000*%
%TD*%
%TA.AperFunction,SMDPad,CuDef*%
%ADD22R,1.300860X0.800100*%
%TD*%
%TA.AperFunction,ComponentPad*%
%ADD23C,1.498600*%
%TD*%
%TA.AperFunction,SMDPad,CuDef*%
%ADD24R,0.800100X1.300860*%
%TD*%
%TA.AperFunction,SMDPad,CuDef*%
%ADD25R,0.701040X0.400050*%
%TD*%
%TA.AperFunction,SMDPad,CuDef*%
%ADD26R,0.838200X0.635000*%
%TD*%
%TA.AperFunction,ComponentPad*%
%ADD27C,1.501140*%
%TD*%
%TA.AperFunction,ComponentPad*%
%ADD28R,1.508000X1.508000*%
%TD*%
%TA.AperFunction,ComponentPad*%
%ADD29C,1.508000*%
%TD*%
%TA.AperFunction,SMDPad,CuDef*%
%ADD30R,0.450000X1.750000*%
%TD*%
%TA.AperFunction,ComponentPad*%
%ADD31R,1.700000X1.700000*%
%TD*%
%TA.AperFunction,ComponentPad*%
%ADD32O,1.700000X1.700000*%
%TD*%
%TA.AperFunction,SMDPad,CuDef*%
%ADD33R,1.500000X0.550000*%
%TD*%
%TA.AperFunction,SMDPad,CuDef*%
%ADD34R,0.550000X1.500000*%
%TD*%
%TA.AperFunction,ComponentPad*%
%ADD35R,1.650000X1.650000*%
%TD*%
%TA.AperFunction,ComponentPad*%
%ADD36C,1.650000*%
%TD*%
%TA.AperFunction,SMDPad,CuDef*%
%ADD37RoundRect,0.112500X-0.187500X-0.112500X0.187500X-0.112500X0.187500X0.112500X-0.187500X0.112500X0*%
%TD*%
%TA.AperFunction,SMDPad,CuDef*%
%ADD38R,3.048000X3.683000*%
%TD*%
%TA.AperFunction,SMDPad,CuDef*%
%ADD39RoundRect,0.162500X-1.012500X-0.162500X1.012500X-0.162500X1.012500X0.162500X-1.012500X0.162500X0*%
%TD*%
%TA.AperFunction,SMDPad,CuDef*%
%ADD40FreePoly0,0.000000*%
%TD*%
%TA.AperFunction,SMDPad,CuDef*%
%ADD41RoundRect,0.050000X-0.350000X-0.050000X0.350000X-0.050000X0.350000X0.050000X-0.350000X0.050000X0*%
%TD*%
%TA.AperFunction,SMDPad,CuDef*%
%ADD42FreePoly1,0.000000*%
%TD*%
%TA.AperFunction,SMDPad,CuDef*%
%ADD43FreePoly2,0.000000*%
%TD*%
%TA.AperFunction,SMDPad,CuDef*%
%ADD44RoundRect,0.050000X-0.050000X-0.350000X0.050000X-0.350000X0.050000X0.350000X-0.050000X0.350000X0*%
%TD*%
%TA.AperFunction,SMDPad,CuDef*%
%ADD45FreePoly3,0.000000*%
%TD*%
%TA.AperFunction,SMDPad,CuDef*%
%ADD46FreePoly4,0.000000*%
%TD*%
%TA.AperFunction,SMDPad,CuDef*%
%ADD47FreePoly5,0.000000*%
%TD*%
%TA.AperFunction,SMDPad,CuDef*%
%ADD48FreePoly6,0.000000*%
%TD*%
%TA.AperFunction,SMDPad,CuDef*%
%ADD49FreePoly7,0.000000*%
%TD*%
%TA.AperFunction,SMDPad,CuDef*%
%ADD50R,2.650000X2.650000*%
%TD*%
%TA.AperFunction,ViaPad*%
%ADD51C,0.800000*%
%TD*%
%TA.AperFunction,Conductor*%
%ADD52C,0.250000*%
%TD*%
%TA.AperFunction,Conductor*%
%ADD53C,0.254000*%
%TD*%
%TA.AperFunction,Conductor*%
%ADD54C,0.152400*%
%TD*%
%TA.AperFunction,Conductor*%
%ADD55C,0.508000*%
%TD*%
G04 APERTURE END LIST*
D10*
%TO.P,FUSE1,1,1*%
%TO.N,Net-(Q3-D)*%
X121666000Y-76454000D03*
%TD*%
D11*
%TO.P,PACK1,1,Pin_1*%
%TO.N,/PACK+*%
X97536000Y-100258000D03*
D12*
%TO.P,PACK1,2,Pin_2*%
%TO.N,GNDPWR*%
X97536000Y-91258000D03*
%TD*%
D10*
%TO.P,12V1,1,1*%
%TO.N,+12V*%
X136652000Y-76454000D03*
%TD*%
D13*
%TO.P,Mount1,1,1*%
%TO.N,unconnected-(Mount1-Pad1)*%
X99745800Y-79756000D03*
%TD*%
%TO.P,Mount2,1,1*%
%TO.N,unconnected-(Mount2-Pad1)*%
X99745800Y-121031000D03*
%TD*%
D10*
%TO.P,3.3V1,1,1*%
%TO.N,+3.3V*%
X131656666Y-76454000D03*
%TD*%
D14*
%TO.P,PROG1,1*%
%TO.N,Net-(IC1-PDI_DATA)*%
X202428000Y-78364000D03*
D15*
%TO.P,PROG1,2*%
%TO.N,+3.3V*%
X202428000Y-75824000D03*
%TO.P,PROG1,3*%
%TO.N,/RX_MCU*%
X204968000Y-78364000D03*
%TO.P,PROG1,4*%
%TO.N,/TX_MCU*%
X204968000Y-75824000D03*
%TO.P,PROG1,5*%
%TO.N,Net-(IC1-~{RESET}{slash}PDI_CLK)*%
X207508000Y-78364000D03*
%TO.P,PROG1,6*%
%TO.N,GNDPWR*%
X207508000Y-75824000D03*
%TD*%
D16*
%TO.P,U8,1,VSS*%
%TO.N,GNDPWR*%
X221488000Y-111760000D03*
%TO.P,U8,2,REGVDD*%
X221488000Y-109220000D03*
%TO.P,U8,3,VDD*%
%TO.N,+3.3V*%
X221488000Y-106680000D03*
%TO.P,U8,4,VDDIO*%
X221488000Y-104140000D03*
%TO.P,U8,5,SCLK*%
%TO.N,/SCL*%
X221488000Y-101600000D03*
%TO.P,U8,6,SID*%
%TO.N,/SDA*%
X221488000Y-99060000D03*
%TO.P,U8,7,SOO*%
X221488000Y-96520000D03*
%TO.P,U8,8,VCOMH*%
%TO.N,Net-(U8-VCOMH)*%
X221488000Y-93980000D03*
%TO.P,U8,9,VCC*%
%TO.N,+12V*%
X221488000Y-91440000D03*
%TO.P,U8,10,VLSS*%
%TO.N,GNDPWR*%
X221488000Y-88900000D03*
%TO.P,U8,11,IREF*%
%TO.N,Net-(U8-IREF)*%
X160528000Y-88900000D03*
%TO.P,U8,12,RES*%
%TO.N,/OLED_RES*%
X160528000Y-91440000D03*
%TO.P,U8,19,CS*%
%TO.N,GNDPWR*%
X160528000Y-109220000D03*
%TO.P,U8,20,BS1*%
%TO.N,+3.3V*%
X160528000Y-111760000D03*
%TD*%
D13*
%TO.P,Mount3,1,1*%
%TO.N,unconnected-(Mount3-Pad1)*%
X216585800Y-79756000D03*
%TD*%
D10*
%TO.P,Vin1,1,1*%
%TO.N,/Vin*%
X126661333Y-76454000D03*
%TD*%
D13*
%TO.P,Mount4,1,1*%
%TO.N,unconnected-(Mount4-Pad1)*%
X216585800Y-121031000D03*
%TD*%
D10*
%TO.P,GNDPWR1,1,1*%
%TO.N,GNDPWR*%
X129133600Y-125603000D03*
%TD*%
%TO.P,BAT-1,1,1*%
%TO.N,GND1*%
X133680200Y-125603000D03*
%TD*%
D11*
%TO.P,BAT1,1,Pin_1*%
%TO.N,/BAT+*%
X136144000Y-100330000D03*
D12*
%TO.P,BAT1,2,Pin_2*%
%TO.N,GND1*%
X136144000Y-109330000D03*
%TD*%
D17*
%TO.P,R9,1*%
%TO.N,Net-(BALANCE1-Pin_4)*%
X167132000Y-109220000D03*
%TO.P,R9,2*%
%TO.N,Net-(U7-VC1)*%
X167132000Y-106934000D03*
%TD*%
D18*
%TO.P,R5,1*%
%TO.N,Net-(BALANCE1-Pin_4)*%
X211328000Y-106045000D03*
%TO.P,R5,2*%
%TO.N,Net-(U2-V1)*%
X209042000Y-106045000D03*
%TD*%
%TO.P,R16,1*%
%TO.N,Net-(U2-REG)*%
X215646000Y-101092000D03*
%TO.P,R16,2*%
%TO.N,Net-(C12-Pad2)*%
X213360000Y-101092000D03*
%TD*%
%TO.P,C21,1*%
%TO.N,Net-(U7-PTC)*%
X184277000Y-111125000D03*
%TO.P,C21,2*%
%TO.N,/Vin*%
X181991000Y-111125000D03*
%TD*%
%TO.P,R29,1*%
%TO.N,Net-(R29-Pad1)*%
X114122200Y-76123800D03*
%TO.P,R29,2*%
%TO.N,Net-(U7-DSG)*%
X116408200Y-76123800D03*
%TD*%
D17*
%TO.P,C37,1*%
%TO.N,GNDPWR*%
X213487000Y-88646000D03*
%TO.P,C37,2*%
%TO.N,+3.3V*%
X213487000Y-90932000D03*
%TD*%
%TO.P,R25,1*%
%TO.N,Net-(R25-Pad1)*%
X142036800Y-112471200D03*
%TO.P,R25,2*%
%TO.N,Net-(D9-K)*%
X142036800Y-110185200D03*
%TD*%
%TO.P,R47,1*%
%TO.N,/REED_OUT*%
X155117800Y-111760000D03*
%TO.P,R47,2*%
%TO.N,GNDPWR*%
X155117800Y-109474000D03*
%TD*%
D19*
%TO.P,U16,1*%
%TO.N,Net-(SMBC_SEL1-C)*%
X191516000Y-114554000D03*
%TO.P,U16,2*%
%TO.N,GNDPWR*%
X190515240Y-114554000D03*
%TD*%
D18*
%TO.P,C34,1*%
%TO.N,Net-(U20-C3-)*%
X188722000Y-99568000D03*
%TO.P,C34,2*%
%TO.N,Net-(U20-C3+)*%
X191008000Y-99568000D03*
%TD*%
%TO.P,C7,1*%
%TO.N,Net-(U2-V3)*%
X211328000Y-108839000D03*
%TO.P,C7,2*%
%TO.N,Net-(U2-V2)*%
X209042000Y-108839000D03*
%TD*%
D17*
%TO.P,C27,1*%
%TO.N,Net-(U20-V+)*%
X181737000Y-94869000D03*
%TO.P,C27,2*%
%TO.N,GND*%
X181737000Y-97155000D03*
%TD*%
D18*
%TO.P,R32,1*%
%TO.N,Net-(U7-SMBC)*%
X181864000Y-107950000D03*
%TO.P,R32,2*%
%TO.N,Net-(R32-Pad2)*%
X184150000Y-107950000D03*
%TD*%
D20*
%TO.P,U2,1,VDD*%
%TO.N,Net-(U2-VDD)*%
X214557000Y-109150000D03*
%TO.P,U2,2,V4*%
%TO.N,Net-(U2-V4)*%
X214057000Y-109150000D03*
%TO.P,U2,3,V3*%
%TO.N,Net-(U2-V3)*%
X213557000Y-109150000D03*
%TO.P,U2,4,V2*%
%TO.N,Net-(U2-V2)*%
X213057000Y-109150000D03*
%TO.P,U2,5,V1*%
%TO.N,Net-(U2-V1)*%
X213057000Y-107250000D03*
%TO.P,U2,6,VSS*%
%TO.N,GND1*%
X213557000Y-107250000D03*
%TO.P,U2,7,REG*%
%TO.N,Net-(U2-REG)*%
X214057000Y-107250000D03*
%TO.P,U2,8,OUT*%
%TO.N,Net-(U2-OUT)*%
X214557000Y-107250000D03*
D21*
%TO.P,U2,9,PWPD*%
%TO.N,GND1*%
X213807000Y-108200000D03*
%TD*%
D18*
%TO.P,C14,1*%
%TO.N,GND1*%
X170053000Y-93726000D03*
%TO.P,C14,2*%
%TO.N,Net-(U7-PBI)*%
X167767000Y-93726000D03*
%TD*%
%TO.P,R15,1*%
%TO.N,Net-(U7-SRN)*%
X166751000Y-100025200D03*
%TO.P,R15,2*%
%TO.N,GNDPWR*%
X164465000Y-100025200D03*
%TD*%
D22*
%TO.P,Q2,1,D*%
%TO.N,Net-(Q2-D)*%
X169526140Y-89179400D03*
%TO.P,Q2,2,G*%
%TO.N,/LDO_EN*%
X167023860Y-90129400D03*
%TO.P,Q2,3,S*%
%TO.N,GNDPWR*%
X167023860Y-88229400D03*
%TD*%
D23*
%TO.P,SYS_PRES1,1,Pin_1*%
%TO.N,/POD_SYS_PRES*%
X149275800Y-81407000D03*
%TO.P,SYS_PRES1,2,Pin_2*%
%TO.N,/Vin*%
X151775799Y-81407000D03*
%TD*%
D17*
%TO.P,C36,1*%
%TO.N,GNDPWR*%
X196723000Y-92710000D03*
%TO.P,C36,2*%
%TO.N,+3.3V*%
X196723000Y-90424000D03*
%TD*%
%TO.P,R1,1*%
%TO.N,/BAT+*%
X216281000Y-113284000D03*
%TO.P,R1,2*%
%TO.N,Net-(U2-VDD)*%
X216281000Y-110998000D03*
%TD*%
D18*
%TO.P,R39,1*%
%TO.N,Net-(R32-Pad2)*%
X188468000Y-107950000D03*
%TO.P,R39,2*%
%TO.N,Net-(SMBC_SEL1-C)*%
X190754000Y-107950000D03*
%TD*%
%TO.P,R42,1*%
%TO.N,+3.3V*%
X203327000Y-107823000D03*
%TO.P,R42,2*%
%TO.N,/SDA*%
X201041000Y-107823000D03*
%TD*%
%TO.P,C13,1*%
%TO.N,GND1*%
X218821000Y-108712000D03*
%TO.P,C13,2*%
%TO.N,Net-(U2-VDD)*%
X216535000Y-108712000D03*
%TD*%
D17*
%TO.P,R43,1*%
%TO.N,+3.3V*%
X194691000Y-109855000D03*
%TO.P,R43,2*%
%TO.N,/SCL*%
X194691000Y-112141000D03*
%TD*%
%TO.P,R2,1*%
%TO.N,/BAT+*%
X213868000Y-113284000D03*
%TO.P,R2,2*%
%TO.N,Net-(U2-V4)*%
X213868000Y-110998000D03*
%TD*%
D24*
%TO.P,Q4,1,D*%
%TO.N,/REED_MCU*%
X151384000Y-87090060D03*
%TO.P,Q4,2,G*%
%TO.N,/REED_OUT*%
X152334000Y-89592340D03*
%TO.P,Q4,3,S*%
%TO.N,GNDPWR*%
X150434000Y-89592340D03*
%TD*%
D25*
%TO.P,U18,1*%
%TO.N,/PRES{slash}SHUTDN*%
X159893000Y-124087890D03*
%TO.P,U18,2*%
%TO.N,GNDPWR*%
X159893000Y-125088650D03*
%TD*%
D18*
%TO.P,R27,1*%
%TO.N,Net-(U8-IREF)*%
X160909000Y-86741000D03*
%TO.P,R27,2*%
%TO.N,GNDPWR*%
X158623000Y-86741000D03*
%TD*%
D26*
%TO.P,U14,1*%
%TO.N,GNDPWR*%
X186309000Y-105664000D03*
%TO.P,U14,2*%
%TO.N,Net-(R33-Pad2)*%
X186309000Y-103428800D03*
%TD*%
D27*
%TO.P,Y1,1,1*%
%TO.N,Net-(IC1-PR1{slash}XTAL1{slash}TOSC1)*%
X205793340Y-84455000D03*
%TO.P,Y1,2,2*%
%TO.N,Net-(IC1-PR0{slash}XTAL2{slash}TOSC2)*%
X200911460Y-84455000D03*
%TD*%
D19*
%TO.P,U19,1*%
%TO.N,/PACK+*%
X113292890Y-122555000D03*
%TO.P,U19,2*%
%TO.N,GNDPWR*%
X114293650Y-122555000D03*
%TD*%
D17*
%TO.P,R4,1*%
%TO.N,Net-(BALANCE1-Pin_3)*%
X209042000Y-113284000D03*
%TO.P,R4,2*%
%TO.N,Net-(U2-V2)*%
X209042000Y-110998000D03*
%TD*%
%TO.P,C4,1*%
%TO.N,Net-(U7-VC2)*%
X169926000Y-113284000D03*
%TO.P,C4,2*%
%TO.N,Net-(U7-VC1)*%
X169926000Y-110998000D03*
%TD*%
%TO.P,C33,1*%
%TO.N,Net-(U20-C2-)*%
X181737000Y-86487000D03*
%TO.P,C33,2*%
%TO.N,Net-(U20-C2+)*%
X181737000Y-88773000D03*
%TD*%
D28*
%TO.P,THERMS1,1,Pin_1*%
%TO.N,Net-(THERMS1-Pin_1)*%
X161782850Y-81326600D03*
D29*
%TO.P,THERMS1,2,Pin_2*%
%TO.N,GND1*%
X164282850Y-81326600D03*
%TO.P,THERMS1,3,Pin_3*%
%TO.N,Net-(THERMS1-Pin_3)*%
X166782850Y-81326600D03*
%TO.P,THERMS1,4,Pin_4*%
%TO.N,GND1*%
X169282850Y-81326600D03*
%TO.P,THERMS1,5,Pin_5*%
%TO.N,Net-(THERMS1-Pin_5)*%
X171782850Y-81326600D03*
%TO.P,THERMS1,6,Pin_6*%
%TO.N,GND1*%
X174282850Y-81326600D03*
%TO.P,THERMS1,7,Pin_7*%
%TO.N,Net-(THERMS1-Pin_7)*%
X176782850Y-81326600D03*
%TO.P,THERMS1,8,Pin_8*%
%TO.N,GND1*%
X179282850Y-81326600D03*
%TD*%
D17*
%TO.P,R44,1*%
%TO.N,Net-(D7-A)*%
X196723000Y-98298000D03*
%TO.P,R44,2*%
%TO.N,Net-(IC1-PD4{slash}OC1A{slash}~{SS})*%
X196723000Y-100584000D03*
%TD*%
D18*
%TO.P,R40,1*%
%TO.N,Net-(R33-Pad2)*%
X188468000Y-104013000D03*
%TO.P,R40,2*%
%TO.N,Net-(SMBD_SEL1-C)*%
X190754000Y-104013000D03*
%TD*%
%TO.P,C31,1*%
%TO.N,GNDPWR*%
X205232000Y-102997000D03*
%TO.P,C31,2*%
%TO.N,+3.3V*%
X202946000Y-102997000D03*
%TD*%
%TO.P,C35,1*%
%TO.N,Net-(U20-C4-)*%
X184531000Y-99568000D03*
%TO.P,C35,2*%
%TO.N,Net-(U20-C4+)*%
X186817000Y-99568000D03*
%TD*%
D17*
%TO.P,R7,1*%
%TO.N,Net-(BALANCE1-Pin_2)*%
X172720000Y-109220000D03*
%TO.P,R7,2*%
%TO.N,Net-(U7-VC3)*%
X172720000Y-106934000D03*
%TD*%
%TO.P,D7,1,K*%
%TO.N,GNDPWR*%
X196723000Y-94615000D03*
%TO.P,D7,2,A*%
%TO.N,Net-(D7-A)*%
X196723000Y-96901000D03*
%TD*%
D28*
%TO.P,SMBUS_OUT1,1,Pin_1*%
%TO.N,GNDPWR*%
X182227150Y-119435000D03*
D29*
%TO.P,SMBUS_OUT1,2,Pin_2*%
%TO.N,Net-(SMBC_SEL1-B)*%
X179727150Y-119435000D03*
%TO.P,SMBUS_OUT1,3,Pin_3*%
%TO.N,Net-(SMBD_SEL1-A)*%
X177227150Y-119435000D03*
%TO.P,SMBUS_OUT1,4,Pin_4*%
%TO.N,unconnected-(SMBUS_OUT1-Pin_4-Pad4)*%
X174727150Y-119435000D03*
%TD*%
D17*
%TO.P,C8,1*%
%TO.N,Net-(U2-V2)*%
X206248000Y-108839000D03*
%TO.P,C8,2*%
%TO.N,Net-(U2-V1)*%
X206248000Y-106553000D03*
%TD*%
%TO.P,C3,1*%
%TO.N,Net-(U7-VC3)*%
X172593000Y-110998000D03*
%TO.P,C3,2*%
%TO.N,Net-(U7-VC2)*%
X172593000Y-113284000D03*
%TD*%
D25*
%TO.P,U17,1*%
%TO.N,Net-(SMBD_SEL1-C)*%
X201295000Y-114665760D03*
%TO.P,U17,2*%
%TO.N,GNDPWR*%
X201295000Y-113665000D03*
%TD*%
D17*
%TO.P,R3,1*%
%TO.N,Net-(BALANCE1-Pin_2)*%
X211455000Y-113284000D03*
%TO.P,R3,2*%
%TO.N,Net-(U2-V3)*%
X211455000Y-110998000D03*
%TD*%
D18*
%TO.P,R28,1*%
%TO.N,Net-(R28-Pad1)*%
X112369600Y-124460000D03*
%TO.P,R28,2*%
%TO.N,Net-(U7-DSG)*%
X114655600Y-124460000D03*
%TD*%
D23*
%TO.P,BALANCE1,1,Pin_1*%
%TO.N,/BAT+*%
X155088600Y-119463500D03*
%TO.P,BALANCE1,2,Pin_2*%
%TO.N,Net-(BALANCE1-Pin_2)*%
X152588600Y-119463500D03*
%TO.P,BALANCE1,3,Pin_3*%
%TO.N,Net-(BALANCE1-Pin_3)*%
X150088600Y-119463500D03*
%TO.P,BALANCE1,4,Pin_4*%
%TO.N,Net-(BALANCE1-Pin_4)*%
X147588600Y-119463500D03*
%TO.P,BALANCE1,5,Pin_5*%
%TO.N,GND1*%
X145088600Y-119463500D03*
%TD*%
D17*
%TO.P,C30,1*%
%TO.N,GNDPWR*%
X213360000Y-95758000D03*
%TO.P,C30,2*%
%TO.N,+3.3V*%
X213360000Y-98044000D03*
%TD*%
%TO.P,R8,1*%
%TO.N,Net-(BALANCE1-Pin_3)*%
X169926000Y-106934000D03*
%TO.P,R8,2*%
%TO.N,Net-(U7-VC2)*%
X169926000Y-109220000D03*
%TD*%
D30*
%TO.P,U20,1,C1-*%
%TO.N,Net-(U20-C1-)*%
X193201000Y-96056000D03*
%TO.P,U20,2,R1OUT*%
%TO.N,/RX_MCU*%
X192551000Y-96056000D03*
%TO.P,U20,3,R2OUT*%
%TO.N,unconnected-(U20-R2OUT-Pad3)*%
X191901000Y-96056000D03*
%TO.P,U20,4,T1IN*%
%TO.N,/TX_MCU*%
X191251000Y-96056000D03*
%TO.P,U20,5,T2IN*%
%TO.N,unconnected-(U20-T2IN-Pad5)*%
X190601000Y-96056000D03*
%TO.P,U20,6,NC*%
%TO.N,unconnected-(U20-NC-Pad6)*%
X189951000Y-96056000D03*
%TO.P,U20,7,NC*%
%TO.N,unconnected-(U20-NC-Pad7)*%
X189301000Y-96056000D03*
%TO.P,U20,8,C1+*%
%TO.N,Net-(U20-C1+)*%
X188651000Y-96056000D03*
%TO.P,U20,9,C3+*%
%TO.N,Net-(U20-C3+)*%
X188001000Y-96056000D03*
%TO.P,U20,10,V+*%
%TO.N,Net-(U20-V+)*%
X187351000Y-96056000D03*
%TO.P,U20,11,C3-*%
%TO.N,Net-(U20-C3-)*%
X186701000Y-96056000D03*
%TO.P,U20,12,C4+*%
%TO.N,Net-(U20-C4+)*%
X186051000Y-96056000D03*
%TO.P,U20,13,C4-*%
%TO.N,Net-(U20-C4-)*%
X185401000Y-96056000D03*
%TO.P,U20,14,V-*%
%TO.N,Net-(U20-V-)*%
X184751000Y-96056000D03*
%TO.P,U20,15,ISOCOM*%
%TO.N,GND*%
X184751000Y-88856000D03*
%TO.P,U20,16,T2OUT*%
%TO.N,unconnected-(U20-T2OUT-Pad16)*%
X185401000Y-88856000D03*
%TO.P,U20,17,T1OUT*%
%TO.N,/TX_OUT*%
X186051000Y-88856000D03*
%TO.P,U20,18,R2IN*%
%TO.N,unconnected-(U20-R2IN-Pad18)*%
X186701000Y-88856000D03*
%TO.P,U20,19,R1IN*%
%TO.N,/RX_OUT*%
X187351000Y-88856000D03*
%TO.P,U20,20,ISOVcc*%
%TO.N,Net-(U20-ISOVcc)*%
X188001000Y-88856000D03*
%TO.P,U20,21,C2+*%
%TO.N,Net-(U20-C2+)*%
X188651000Y-88856000D03*
%TO.P,U20,22,NC*%
%TO.N,unconnected-(U20-NC-Pad22)*%
X189301000Y-88856000D03*
%TO.P,U20,23,NC*%
%TO.N,unconnected-(U20-NC-Pad23)*%
X189951000Y-88856000D03*
%TO.P,U20,24,/SHDN*%
%TO.N,+3.3V*%
X190601000Y-88856000D03*
%TO.P,U20,25,/FAULT*%
%TO.N,unconnected-(U20-{slash}FAULT-Pad25)*%
X191251000Y-88856000D03*
%TO.P,U20,26,GND*%
%TO.N,GNDPWR*%
X191901000Y-88856000D03*
%TO.P,U20,27,C2-*%
%TO.N,Net-(U20-C2-)*%
X192551000Y-88856000D03*
%TO.P,U20,28,Vcc*%
%TO.N,+3.3V*%
X193201000Y-88856000D03*
%TD*%
D31*
%TO.P,SMBC_SEL1,1,A*%
%TO.N,/SCL*%
X194625200Y-116941600D03*
D32*
%TO.P,SMBC_SEL1,2,C*%
%TO.N,Net-(SMBC_SEL1-C)*%
X192085200Y-116941600D03*
%TO.P,SMBC_SEL1,3,B*%
%TO.N,Net-(SMBC_SEL1-B)*%
X189545200Y-116941600D03*
%TD*%
D33*
%TO.P,IC1,1,AC5/ADC5/PA5*%
%TO.N,unconnected-(IC1-AC5{slash}ADC5{slash}PA5-Pad1)*%
X211059000Y-90996000D03*
%TO.P,IC1,2,AC1OUT/AC6/ADC6/PA6*%
%TO.N,Net-(IC1-AC1OUT{slash}AC6{slash}ADC6{slash}PA6)*%
X211059000Y-91796000D03*
%TO.P,IC1,3,AC0OUT/AC7/ADC7/PA7*%
%TO.N,/OLED_RES*%
X211059000Y-92596000D03*
%TO.P,IC1,4,AREFB/ADC8/PB0*%
%TO.N,/REED_MCU*%
X211059000Y-93396000D03*
%TO.P,IC1,5,ADC9/PB1*%
%TO.N,unconnected-(IC1-ADC9{slash}PB1-Pad5)*%
X211059000Y-94196000D03*
%TO.P,IC1,6,DAC0/ADC10/PB2*%
%TO.N,unconnected-(IC1-DAC0{slash}ADC10{slash}PB2-Pad6)*%
X211059000Y-94996000D03*
%TO.P,IC1,7,DAC1/ACD11/PB3*%
%TO.N,unconnected-(IC1-DAC1{slash}ACD11{slash}PB3-Pad7)*%
X211059000Y-95796000D03*
%TO.P,IC1,8,GND*%
%TO.N,GNDPWR*%
X211059000Y-96596000D03*
%TO.P,IC1,9,VCC*%
%TO.N,+3.3V*%
X211059000Y-97396000D03*
%TO.P,IC1,10,SDAIN/SDA/~{OC0ALS}/OC0A/PC0*%
%TO.N,unconnected-(IC1-SDAIN{slash}SDA{slash}~{OC0ALS}{slash}OC0A{slash}PC0-Pad10)*%
X211059000Y-98196000D03*
%TO.P,IC1,11,SCLIN/SCL/XCK0/OC0AHS/OC0B/PC1*%
%TO.N,unconnected-(IC1-SCLIN{slash}SCL{slash}XCK0{slash}OC0AHS{slash}OC0B{slash}PC1-Pad11)*%
X211059000Y-98996000D03*
D34*
%TO.P,IC1,12,SDAOUT/RXD0/~{OC0BLS}/OC0C/PC2*%
%TO.N,/RX_MCU*%
X209359000Y-100696000D03*
%TO.P,IC1,13,SCLOUT/TXD0/OC0BHS/OC0D/PC3*%
%TO.N,/TX_MCU*%
X208559000Y-100696000D03*
%TO.P,IC1,14,~{SS}/~{OC0CLS}/OC1A/PC4*%
%TO.N,unconnected-(IC1-~{SS}{slash}~{OC0CLS}{slash}OC1A{slash}PC4-Pad14)*%
X207759000Y-100696000D03*
%TO.P,IC1,15,MOSI/XCK1/OC0CHS/OC1B/PC5*%
%TO.N,unconnected-(IC1-MOSI{slash}XCK1{slash}OC0CHS{slash}OC1B{slash}PC5-Pad15)*%
X206959000Y-100696000D03*
%TO.P,IC1,16,CLKRTC/MISO/RXD1/~{OC0DLS}/PC6*%
%TO.N,unconnected-(IC1-CLKRTC{slash}MISO{slash}RXD1{slash}~{OC0DLS}{slash}PC6-Pad16)*%
X206159000Y-100696000D03*
%TO.P,IC1,17,EVOUT/CLKOUT/SCK/TXD1/OC0DHS/PC7*%
%TO.N,unconnected-(IC1-EVOUT{slash}CLKOUT{slash}SCK{slash}TXD1{slash}OC0DHS{slash}PC7-Pad17)*%
X205359000Y-100696000D03*
%TO.P,IC1,18,GND*%
%TO.N,GNDPWR*%
X204559000Y-100696000D03*
%TO.P,IC1,19,VCC*%
%TO.N,+3.3V*%
X203759000Y-100696000D03*
%TO.P,IC1,20,PD0/OC0A*%
%TO.N,unconnected-(IC1-PD0{slash}OC0A-Pad20)*%
X202959000Y-100696000D03*
%TO.P,IC1,21,PD1/OC0B/XCK0*%
%TO.N,unconnected-(IC1-PD1{slash}OC0B{slash}XCK0-Pad21)*%
X202159000Y-100696000D03*
%TO.P,IC1,22,PD2/OC0C/RXD0*%
%TO.N,unconnected-(IC1-PD2{slash}OC0C{slash}RXD0-Pad22)*%
X201359000Y-100696000D03*
D33*
%TO.P,IC1,23,PD3/OC0D/TXD0*%
%TO.N,unconnected-(IC1-PD3{slash}OC0D{slash}TXD0-Pad23)*%
X199659000Y-98996000D03*
%TO.P,IC1,24,PD4/OC1A/~{SS}*%
%TO.N,Net-(IC1-PD4{slash}OC1A{slash}~{SS})*%
X199659000Y-98196000D03*
%TO.P,IC1,25,PD5/OC1B/XCK1/MOSI*%
%TO.N,unconnected-(IC1-PD5{slash}OC1B{slash}XCK1{slash}MOSI-Pad25)*%
X199659000Y-97396000D03*
%TO.P,IC1,26,PD6/D-/RXD1/MISO*%
%TO.N,unconnected-(IC1-PD6{slash}D-{slash}RXD1{slash}MISO-Pad26)*%
X199659000Y-96596000D03*
%TO.P,IC1,27,PD7/D+/TXD1/SCK/CLKOUT/EVOUT*%
%TO.N,unconnected-(IC1-PD7{slash}D+{slash}TXD1{slash}SCK{slash}CLKOUT{slash}EVOUT-Pad27)*%
X199659000Y-95796000D03*
%TO.P,IC1,28,PE0/OC0A/SDA*%
%TO.N,/SDA*%
X199659000Y-94996000D03*
%TO.P,IC1,29,PE1/OC0B/XCK0/SCL*%
%TO.N,/SCL*%
X199659000Y-94196000D03*
%TO.P,IC1,30,GND*%
%TO.N,GNDPWR*%
X199659000Y-93396000D03*
%TO.P,IC1,31,VCC*%
%TO.N,+3.3V*%
X199659000Y-92596000D03*
%TO.P,IC1,32,PE2/OC0C/RXD0*%
%TO.N,unconnected-(IC1-PE2{slash}OC0C{slash}RXD0-Pad32)*%
X199659000Y-91796000D03*
%TO.P,IC1,33,PE3/OC0D/TXD0*%
%TO.N,unconnected-(IC1-PE3{slash}OC0D{slash}TXD0-Pad33)*%
X199659000Y-90996000D03*
D34*
%TO.P,IC1,34,PDI_DATA*%
%TO.N,Net-(IC1-PDI_DATA)*%
X201359000Y-89296000D03*
%TO.P,IC1,35,~{RESET}/PDI_CLK*%
%TO.N,Net-(IC1-~{RESET}{slash}PDI_CLK)*%
X202159000Y-89296000D03*
%TO.P,IC1,36,PR0/XTAL2/TOSC2*%
%TO.N,Net-(IC1-PR0{slash}XTAL2{slash}TOSC2)*%
X202959000Y-89296000D03*
%TO.P,IC1,37,PR1/XTAL1/TOSC1*%
%TO.N,Net-(IC1-PR1{slash}XTAL1{slash}TOSC1)*%
X203759000Y-89296000D03*
%TO.P,IC1,38,GND*%
%TO.N,GNDPWR*%
X204559000Y-89296000D03*
%TO.P,IC1,39,AVCC*%
%TO.N,+3.3V*%
X205359000Y-89296000D03*
%TO.P,IC1,40,AREFA/AC0/ADC0/PA0*%
%TO.N,unconnected-(IC1-AREFA{slash}AC0{slash}ADC0{slash}PA0-Pad40)*%
X206159000Y-89296000D03*
%TO.P,IC1,41,AC1/ADC1/PA1*%
%TO.N,unconnected-(IC1-AC1{slash}ADC1{slash}PA1-Pad41)*%
X206959000Y-89296000D03*
%TO.P,IC1,42,AC2/ADC2/PA2*%
%TO.N,unconnected-(IC1-AC2{slash}ADC2{slash}PA2-Pad42)*%
X207759000Y-89296000D03*
%TO.P,IC1,43,AC3/ADC3/PA3*%
%TO.N,unconnected-(IC1-AC3{slash}ADC3{slash}PA3-Pad43)*%
X208559000Y-89296000D03*
%TO.P,IC1,44,AC4/ADC4/PA4*%
%TO.N,unconnected-(IC1-AC4{slash}ADC4{slash}PA4-Pad44)*%
X209359000Y-89296000D03*
%TD*%
D18*
%TO.P,R12,1*%
%TO.N,Net-(U7-SRP)*%
X166751000Y-97688400D03*
%TO.P,R12,2*%
%TO.N,GND1*%
X164465000Y-97688400D03*
%TD*%
D35*
%TO.P,SERIAL_OUT1,1,Pin_1*%
%TO.N,/RX_OUT*%
X193798200Y-81254600D03*
D36*
%TO.P,SERIAL_OUT1,2,Pin_2*%
%TO.N,GND*%
X191298200Y-81254600D03*
%TO.P,SERIAL_OUT1,3,Pin_3*%
%TO.N,/TX_OUT*%
X188798200Y-81254600D03*
%TD*%
D17*
%TO.P,C39,1*%
%TO.N,Net-(U20-ISOVcc)*%
X178308000Y-90551000D03*
%TO.P,C39,2*%
%TO.N,GND*%
X178308000Y-92837000D03*
%TD*%
D37*
%TO.P,D9,1,K*%
%TO.N,Net-(D9-K)*%
X141190000Y-108229400D03*
%TO.P,D9,2,A*%
%TO.N,/REED_OUT*%
X143290000Y-108229400D03*
%TD*%
D38*
%TO.P,R14,1*%
%TO.N,GND1*%
X121285000Y-100203000D03*
%TO.P,R14,2*%
%TO.N,GNDPWR*%
X113157000Y-100203000D03*
%TD*%
D17*
%TO.P,C2,1*%
%TO.N,Net-(U7-VC4)*%
X175514000Y-113284000D03*
%TO.P,C2,2*%
%TO.N,Net-(U7-VC3)*%
X175514000Y-110998000D03*
%TD*%
D39*
%TO.P,U22,1*%
%TO.N,Net-(R25-Pad1)*%
X145584800Y-112572800D03*
%TO.P,U22,2*%
%TO.N,GNDPWR*%
X145584800Y-110032800D03*
%TO.P,U22,3*%
%TO.N,Net-(R25-Pad1)*%
X145584800Y-107492800D03*
%TO.P,U22,4*%
%TO.N,GNDPWR*%
X145584800Y-104952800D03*
%TO.P,U22,5*%
%TO.N,/PWR_PRES{slash}SHUTDN*%
X152222200Y-104952800D03*
%TO.P,U22,6*%
%TO.N,GNDPWR*%
X152222200Y-107492800D03*
%TO.P,U22,7*%
%TO.N,/PRES{slash}SHUTDN*%
X152222200Y-110032800D03*
%TO.P,U22,8*%
%TO.N,GNDPWR*%
X152222200Y-112572800D03*
%TD*%
D23*
%TO.P,REED1,1,Pin_1*%
%TO.N,/Vin*%
X165974399Y-119532400D03*
%TO.P,REED1,2,Pin_2*%
%TO.N,/REED_OUT*%
X163474400Y-119532400D03*
%TD*%
D17*
%TO.P,R6,1*%
%TO.N,/BAT+*%
X175514000Y-109220000D03*
%TO.P,R6,2*%
%TO.N,Net-(U7-VC4)*%
X175514000Y-106934000D03*
%TD*%
D18*
%TO.P,R48,1*%
%TO.N,+3.3V*%
X155067000Y-102133400D03*
%TO.P,R48,2*%
%TO.N,/REED_MCU*%
X152781000Y-102133400D03*
%TD*%
D17*
%TO.P,C5,1*%
%TO.N,Net-(U7-VC1)*%
X167132000Y-110998000D03*
%TO.P,C5,2*%
%TO.N,GND1*%
X167132000Y-113284000D03*
%TD*%
D18*
%TO.P,C12,1*%
%TO.N,GND1*%
X215646000Y-103886000D03*
%TO.P,C12,2*%
%TO.N,Net-(C12-Pad2)*%
X213360000Y-103886000D03*
%TD*%
D17*
%TO.P,C6,1*%
%TO.N,Net-(U2-V4)*%
X206248000Y-111125000D03*
%TO.P,C6,2*%
%TO.N,Net-(U2-V3)*%
X206248000Y-113411000D03*
%TD*%
D26*
%TO.P,U13,1*%
%TO.N,GNDPWR*%
X186309000Y-110845600D03*
%TO.P,U13,2*%
%TO.N,Net-(R32-Pad2)*%
X186309000Y-108610400D03*
%TD*%
D18*
%TO.P,R33,1*%
%TO.N,Net-(U7-SMBD)*%
X181864000Y-104013000D03*
%TO.P,R33,2*%
%TO.N,Net-(R33-Pad2)*%
X184150000Y-104013000D03*
%TD*%
D17*
%TO.P,R35,1*%
%TO.N,/PACK+*%
X160274000Y-94996000D03*
%TO.P,R35,2*%
%TO.N,Net-(U7-PACK)*%
X160274000Y-97282000D03*
%TD*%
D31*
%TO.P,SMBD_SEL1,1,A*%
%TO.N,Net-(SMBD_SEL1-A)*%
X206527400Y-116941600D03*
D32*
%TO.P,SMBD_SEL1,2,C*%
%TO.N,Net-(SMBD_SEL1-C)*%
X203987400Y-116941600D03*
%TO.P,SMBD_SEL1,3,B*%
%TO.N,/SDA*%
X201447400Y-116941600D03*
%TD*%
D17*
%TO.P,C11,1*%
%TO.N,Net-(U7-SRP)*%
X168656000Y-97739200D03*
%TO.P,C11,2*%
%TO.N,Net-(U7-SRN)*%
X168656000Y-100025200D03*
%TD*%
%TO.P,C18,1*%
%TO.N,Net-(U8-VCOMH)*%
X218948000Y-94234000D03*
%TO.P,C18,2*%
%TO.N,GNDPWR*%
X218948000Y-91948000D03*
%TD*%
D40*
%TO.P,U7,1,PBI*%
%TO.N,Net-(U7-PBI)*%
X172294000Y-101222000D03*
D41*
%TO.P,U7,2,VC4*%
%TO.N,Net-(U7-VC4)*%
X172294000Y-100822000D03*
%TO.P,U7,3,VC3*%
%TO.N,Net-(U7-VC3)*%
X172294000Y-100422000D03*
%TO.P,U7,4,VC2*%
%TO.N,Net-(U7-VC2)*%
X172294000Y-100022000D03*
%TO.P,U7,5,VC1*%
%TO.N,Net-(U7-VC1)*%
X172294000Y-99622000D03*
%TO.P,U7,6,SRN*%
%TO.N,Net-(U7-SRN)*%
X172294000Y-99222000D03*
%TO.P,U7,7,NC*%
%TO.N,GND1*%
X172294000Y-98822000D03*
D42*
%TO.P,U7,8,SRP*%
%TO.N,Net-(U7-SRP)*%
X172294000Y-98422000D03*
D43*
%TO.P,U7,9,VSS*%
%TO.N,GND1*%
X172844000Y-97872000D03*
D44*
%TO.P,U7,10,TS1*%
%TO.N,Net-(THERMS1-Pin_1)*%
X173244000Y-97872000D03*
%TO.P,U7,11,TS2*%
%TO.N,Net-(THERMS1-Pin_3)*%
X173644000Y-97872000D03*
%TO.P,U7,12,TS3*%
%TO.N,Net-(THERMS1-Pin_5)*%
X174044000Y-97872000D03*
%TO.P,U7,13,TS4*%
%TO.N,Net-(THERMS1-Pin_7)*%
X174444000Y-97872000D03*
%TO.P,U7,14,NC*%
%TO.N,GND1*%
X174844000Y-97872000D03*
%TO.P,U7,15,BTP_INT*%
X175244000Y-97872000D03*
D45*
%TO.P,U7,16,PRES/SHUTDN*%
%TO.N,/BQ_PRES{slash}SHUTDN*%
X175644000Y-97872000D03*
D46*
%TO.P,U7,17,DISP*%
%TO.N,/DISP*%
X176194000Y-98422000D03*
D41*
%TO.P,U7,18,SMBD*%
%TO.N,Net-(U7-SMBD)*%
X176194000Y-98822000D03*
%TO.P,U7,19,SMBC*%
%TO.N,Net-(U7-SMBC)*%
X176194000Y-99222000D03*
%TO.P,U7,20,LEDCNTLA*%
%TO.N,/LEDCNTLA*%
X176194000Y-99622000D03*
%TO.P,U7,21,LEDCNTLB*%
%TO.N,/LEDCNTLB*%
X176194000Y-100022000D03*
%TO.P,U7,22,LEDCNTLC*%
%TO.N,/LEDCNTLC*%
X176194000Y-100422000D03*
%TO.P,U7,23,PTC*%
%TO.N,Net-(U7-PTC)*%
X176194000Y-100822000D03*
D47*
%TO.P,U7,24,PTCEN*%
%TO.N,/Vin*%
X176194000Y-101222000D03*
D48*
%TO.P,U7,25,FUSE*%
%TO.N,Net-(U7-FUSE)*%
X175644000Y-101772000D03*
D44*
%TO.P,U7,26,VCC*%
%TO.N,Net-(U7-VCC)*%
X175244000Y-101772000D03*
%TO.P,U7,27,PACK*%
%TO.N,Net-(U7-PACK)*%
X174844000Y-101772000D03*
%TO.P,U7,28,DSG*%
%TO.N,Net-(U7-DSG)*%
X174444000Y-101772000D03*
%TO.P,U7,29,NC*%
%TO.N,GND1*%
X174044000Y-101772000D03*
%TO.P,U7,30,PCHG*%
%TO.N,unconnected-(U7-PCHG-Pad30)*%
X173644000Y-101772000D03*
%TO.P,U7,31,CHG*%
%TO.N,Net-(U7-CHG)*%
X173244000Y-101772000D03*
D49*
%TO.P,U7,32,BAT*%
%TO.N,/Vin*%
X172844000Y-101772000D03*
D50*
%TO.P,U7,33,PAD*%
%TO.N,GND1*%
X174244000Y-99822000D03*
%TD*%
D18*
%TO.P,C28,1*%
%TO.N,Net-(U20-V-)*%
X184531000Y-101854000D03*
%TO.P,C28,2*%
%TO.N,GND*%
X186817000Y-101854000D03*
%TD*%
D17*
%TO.P,C32,1*%
%TO.N,Net-(U20-C1-)*%
X181737000Y-90551000D03*
%TO.P,C32,2*%
%TO.N,Net-(U20-C1+)*%
X181737000Y-92837000D03*
%TD*%
D51*
%TO.N,GNDPWR*%
X219456000Y-85979000D03*
X167309800Y-121793000D03*
X158435100Y-84963000D03*
X149860000Y-98552000D03*
X204978000Y-99060000D03*
X158623000Y-124587000D03*
X151333200Y-98577400D03*
X186309000Y-109728000D03*
X150368000Y-111455200D03*
X149860000Y-99949000D03*
X112522000Y-126619000D03*
X197358000Y-83185000D03*
X150266400Y-97434400D03*
X189484000Y-114173000D03*
X215392000Y-88646000D03*
X191770000Y-86868000D03*
X186309000Y-104775000D03*
X153035000Y-88392000D03*
X146227800Y-85064600D03*
X149352000Y-111963200D03*
X200370017Y-114294287D03*
X184785000Y-80899000D03*
X151333200Y-99974400D03*
X151333200Y-101193600D03*
X166776400Y-86578500D03*
X148336000Y-99949000D03*
X149860000Y-102489000D03*
X148336000Y-98552000D03*
X151384000Y-111912400D03*
X148336000Y-101219000D03*
X149860000Y-101219000D03*
X148336000Y-111455200D03*
X201041000Y-91059000D03*
X153111200Y-96723200D03*
X148336000Y-102489000D03*
X209296000Y-97663000D03*
X118877714Y-74681714D03*
X209473800Y-83032600D03*
%TO.N,GND*%
X177038000Y-88900000D03*
X189103000Y-101473000D03*
X182372000Y-98552000D03*
%TO.N,/Vin*%
X172257050Y-103540500D03*
X142875000Y-86868000D03*
X147066000Y-101346000D03*
X147066000Y-102489000D03*
X176819500Y-101854000D03*
X146685000Y-88138000D03*
X145415000Y-88138000D03*
X147066000Y-100203000D03*
X145415000Y-86868000D03*
X144145000Y-88138000D03*
X146050000Y-100203000D03*
X141859000Y-113792000D03*
X146050000Y-101346000D03*
X142875000Y-88138000D03*
X144145000Y-86868000D03*
X146050000Y-102489000D03*
X184277000Y-112903000D03*
X147421600Y-107950000D03*
X156083000Y-100838000D03*
X146685000Y-86868000D03*
X106680000Y-103759000D03*
%TO.N,Net-(Q3-G)*%
X143850298Y-125679200D03*
X154482800Y-125679200D03*
%TO.N,GND1*%
X163982400Y-90982800D03*
X219588714Y-88905714D03*
X170688000Y-90805000D03*
X175768000Y-96774000D03*
X219837000Y-97790000D03*
X172212000Y-96774000D03*
X218821000Y-107061000D03*
X167005000Y-112268000D03*
%TO.N,Net-(C19-Pad1)*%
X119068214Y-76777214D03*
X117983000Y-75783500D03*
X95123000Y-76835000D03*
%TO.N,/PACK+*%
X108458000Y-124333000D03*
X149034787Y-92130389D03*
X151413285Y-91344677D03*
X158299786Y-91658500D03*
%TO.N,+12V*%
X143002000Y-97917000D03*
X141732000Y-96647000D03*
X144272000Y-94234000D03*
X143002000Y-95377000D03*
X143002000Y-96647000D03*
X143002000Y-99314000D03*
X141732000Y-94234000D03*
X141732000Y-97917000D03*
X141732000Y-95377000D03*
X141732000Y-99314000D03*
X144272000Y-95377000D03*
X158623000Y-94996000D03*
X143002000Y-94234000D03*
%TO.N,+3.3V*%
X144399000Y-102489000D03*
X141732000Y-103886000D03*
X143002000Y-101219000D03*
X141732000Y-105156000D03*
X144399000Y-106553000D03*
X212344000Y-75565000D03*
X194564000Y-108458000D03*
X141732000Y-101219000D03*
X143002000Y-106553000D03*
X204597000Y-107696000D03*
X193277500Y-86868000D03*
X218313000Y-98298000D03*
X213487000Y-89880502D03*
X144399000Y-101219000D03*
X141732000Y-106553000D03*
X201295000Y-102616000D03*
X143002000Y-102489000D03*
X156489400Y-99542600D03*
X141732000Y-102489000D03*
X198628000Y-89154000D03*
%TO.N,/RX_MCU*%
X192551000Y-98933000D03*
%TO.N,Net-(D1-K)*%
X108077000Y-77978000D03*
X153543000Y-86741000D03*
%TO.N,/LEDCNTLB*%
X179324000Y-104140000D03*
%TO.N,/LEDCNTLC*%
X194411600Y-123088400D03*
X197535800Y-122097800D03*
X179324000Y-105410000D03*
%TO.N,/LEDCNTLA*%
X179324000Y-102870000D03*
%TO.N,/OLED_RES*%
X202438000Y-90932000D03*
X190373000Y-85979000D03*
X165227000Y-86995000D03*
X193456500Y-85598000D03*
%TO.N,/BAT+*%
X174244000Y-108331000D03*
X148920200Y-120700800D03*
X142148500Y-83058000D03*
X197739000Y-105664000D03*
X185547000Y-113411000D03*
X143941800Y-85572600D03*
X166878000Y-115570000D03*
X140970000Y-119761000D03*
%TO.N,Net-(BALANCE1-Pin_2)*%
X168402000Y-115824000D03*
X173990000Y-110109000D03*
X207772000Y-114427000D03*
X207060800Y-120827800D03*
%TO.N,Net-(BALANCE1-Pin_3)*%
X207645000Y-112903000D03*
X169926000Y-107985498D03*
X165826500Y-112141000D03*
X207518000Y-122682000D03*
%TO.N,Net-(BALANCE1-Pin_4)*%
X191897000Y-102235000D03*
X168529000Y-112141000D03*
X200787000Y-105826500D03*
X166624000Y-108168502D03*
X180213000Y-108458000D03*
X208280000Y-107442000D03*
%TO.N,/SDA*%
X199644000Y-107823000D03*
X203454000Y-98806000D03*
%TO.N,/PRES{slash}SHUTDN*%
X160045400Y-122885200D03*
X146329400Y-121031000D03*
X161544000Y-124079000D03*
%TO.N,Net-(SMBC_SEL1-C)*%
X191516000Y-113411000D03*
%TO.N,/SCL*%
X204216000Y-96774000D03*
X193802000Y-113665000D03*
%TO.N,/LDO_EN*%
X149148800Y-96875600D03*
X163398200Y-86944200D03*
X156006800Y-88773000D03*
X154940000Y-106334498D03*
X148539200Y-106375200D03*
X152635586Y-98418014D03*
%TO.N,Net-(Q2-D)*%
X161239200Y-84683600D03*
%TO.N,/PWR_PRES{slash}SHUTDN*%
X149606000Y-114300000D03*
X156616400Y-104597200D03*
%TO.N,Net-(U2-V3)*%
X210227911Y-109939089D03*
X204978000Y-109982000D03*
%TO.N,Net-(R26-Pad1)*%
X143637000Y-75819000D03*
X113030000Y-77851000D03*
%TO.N,Net-(U2-V1)*%
X211582000Y-104140000D03*
%TO.N,Net-(U7-PBI)*%
X171196000Y-104013000D03*
X160147000Y-100838000D03*
%TO.N,Net-(U7-PTC)*%
X184277000Y-109601000D03*
X106680000Y-96901000D03*
%TO.N,Net-(U20-C1-)*%
X193277500Y-90805000D03*
X193294000Y-97790000D03*
%TO.N,Net-(U20-C2-)*%
X191824500Y-90551000D03*
X183769000Y-86360000D03*
%TO.N,Net-(U20-ISOVcc)*%
X188849000Y-87122000D03*
X179197000Y-89027000D03*
%TO.N,/REED_OUT*%
X164769800Y-117830600D03*
X157866714Y-116820314D03*
X141442135Y-89309167D03*
X149645815Y-91017730D03*
%TO.N,Net-(U2-REG)*%
X217043000Y-101600000D03*
X216027000Y-105918000D03*
%TO.N,Net-(U2-OUT)*%
X217043000Y-106680000D03*
X171069000Y-126746000D03*
X156464000Y-126111000D03*
%TO.N,Net-(U7-FUSE)*%
X176062700Y-103124000D03*
%TO.N,Net-(U7-CHG)*%
X173101000Y-105230450D03*
X175646714Y-116205000D03*
X158886000Y-89290000D03*
X172466000Y-115297500D03*
X157480000Y-79756000D03*
%TO.N,Net-(U7-VCC)*%
X171069000Y-96520000D03*
X158369000Y-82931000D03*
X154000200Y-79596614D03*
X149352000Y-77851000D03*
X177329500Y-111633000D03*
X157093286Y-81020286D03*
X162814000Y-84074000D03*
%TO.N,Net-(R28-Pad1)*%
X108585000Y-125984000D03*
X106679500Y-121828500D03*
%TO.N,Net-(U7-DSG)*%
X173608500Y-103581528D03*
X165862000Y-103124000D03*
X157734000Y-103200200D03*
%TO.N,Net-(R29-Pad1)*%
X106553000Y-78867000D03*
X102743000Y-76708000D03*
X108204000Y-76200000D03*
%TO.N,Net-(U7-PACK)*%
X160401000Y-98806000D03*
X174371000Y-104394000D03*
%TO.N,/DISP*%
X179705000Y-97282000D03*
%TO.N,Net-(IC1-AC1OUT{slash}AC6{slash}ADC6{slash}PA6)*%
X203962000Y-91059000D03*
%TO.N,/REED_MCU*%
X152476200Y-86029800D03*
X151511000Y-76073000D03*
%TO.N,Net-(R25-Pad1)*%
X143176014Y-79937586D03*
%TO.N,/BQ_PRES{slash}SHUTDN*%
X177292000Y-96774000D03*
%TD*%
D52*
%TO.N,GNDPWR*%
X159124650Y-125088650D02*
X158623000Y-124587000D01*
D53*
X204559000Y-100696000D02*
X204559000Y-102324000D01*
X218948000Y-91948000D02*
X218948000Y-91440000D01*
X196977000Y-92456000D02*
X196723000Y-92710000D01*
X153136600Y-107492800D02*
X152222200Y-107492800D01*
X197409000Y-93396000D02*
X196723000Y-92710000D01*
X205105000Y-102870000D02*
X205537000Y-102438000D01*
X204559000Y-99479000D02*
X204978000Y-99060000D01*
X158623000Y-86741000D02*
X158623000Y-85150900D01*
X212522000Y-96596000D02*
X213360000Y-95758000D01*
X191901000Y-86999000D02*
X191770000Y-86868000D01*
D52*
X114293650Y-122555000D02*
X114293650Y-121786650D01*
D53*
X191901000Y-88856000D02*
X191901000Y-86999000D01*
X146913600Y-110032800D02*
X148336000Y-111455200D01*
X186309000Y-110845600D02*
X186309000Y-109728000D01*
X116509800Y-101346000D02*
X115366800Y-100203000D01*
X200663000Y-93396000D02*
X199659000Y-93396000D01*
D52*
X114293650Y-121786650D02*
X113665000Y-121158000D01*
D53*
X117500400Y-123698000D02*
X116509800Y-122707400D01*
X164465000Y-100025200D02*
X163576000Y-100914200D01*
D52*
X201295000Y-113665000D02*
X200999304Y-113665000D01*
D53*
X145584800Y-110032800D02*
X146913600Y-110032800D01*
X213487000Y-88646000D02*
X215392000Y-88646000D01*
X148336000Y-103327200D02*
X148336000Y-102489000D01*
X201041000Y-91059000D02*
X201041000Y-93018000D01*
X210185000Y-88011000D02*
X204840000Y-88011000D01*
D52*
X189865000Y-114554000D02*
X189484000Y-114173000D01*
D53*
X210820000Y-88646000D02*
X210185000Y-88011000D01*
X155600400Y-123698000D02*
X117500400Y-123698000D01*
X158623000Y-85150900D02*
X158435100Y-84963000D01*
X155117800Y-109474000D02*
X153136600Y-107492800D01*
X163576000Y-100914200D02*
X163576000Y-115722400D01*
X145584800Y-104952800D02*
X146710400Y-104952800D01*
D52*
X200999304Y-113665000D02*
X200370017Y-114294287D01*
D53*
X163576000Y-115722400D02*
X155600400Y-123698000D01*
X115366800Y-100203000D02*
X113157000Y-100203000D01*
X211059000Y-96596000D02*
X210363000Y-96596000D01*
X151634340Y-88392000D02*
X153035000Y-88392000D01*
X201041000Y-93018000D02*
X200663000Y-93396000D01*
X196723000Y-94615000D02*
X196723000Y-92710000D01*
X154648258Y-109474000D02*
X155117800Y-109474000D01*
X199659000Y-93396000D02*
X197409000Y-93396000D01*
X211059000Y-96596000D02*
X212522000Y-96596000D01*
X116509800Y-122707400D02*
X116509800Y-101346000D01*
X186309000Y-105664000D02*
X186309000Y-104775000D01*
D52*
X159893000Y-125088650D02*
X159124650Y-125088650D01*
D53*
X153111200Y-96723200D02*
X153162000Y-96672400D01*
X151384000Y-111912400D02*
X152209858Y-111912400D01*
X204559000Y-100696000D02*
X204559000Y-99479000D01*
X204840000Y-88011000D02*
X204559000Y-88292000D01*
X204559000Y-102324000D02*
X205232000Y-102997000D01*
X218948000Y-91440000D02*
X221488000Y-88900000D01*
X204559000Y-88292000D02*
X204559000Y-89296000D01*
X146710400Y-104952800D02*
X148336000Y-103327200D01*
D52*
X190515240Y-114554000D02*
X189865000Y-114554000D01*
D53*
X150434000Y-89592340D02*
X151634340Y-88392000D01*
D52*
X166776400Y-87981940D02*
X167023860Y-88229400D01*
D53*
X210363000Y-96596000D02*
X209296000Y-97663000D01*
X152209858Y-111912400D02*
X154648258Y-109474000D01*
D52*
X166776400Y-86578500D02*
X166776400Y-87981940D01*
D53*
X213487000Y-88646000D02*
X210820000Y-88646000D01*
%TO.N,Net-(IC1-PR0{slash}XTAL2{slash}TOSC2)*%
X200939400Y-84455000D02*
X200911460Y-84455000D01*
X202959000Y-89296000D02*
X202959000Y-86474600D01*
X202959000Y-86474600D02*
X200939400Y-84455000D01*
%TO.N,Net-(IC1-PR1{slash}XTAL1{slash}TOSC1)*%
X205765400Y-84455000D02*
X205793340Y-84455000D01*
X203759000Y-86461400D02*
X205765400Y-84455000D01*
X203759000Y-89296000D02*
X203759000Y-86461400D01*
%TO.N,GND*%
X191429000Y-81280000D02*
X191429000Y-81066000D01*
X178308000Y-92837000D02*
X177038000Y-91567000D01*
X181737000Y-97155000D02*
X178308000Y-93726000D01*
X187198000Y-79756000D02*
X184751000Y-82203000D01*
X188722000Y-101854000D02*
X189103000Y-101473000D01*
X184751000Y-82203000D02*
X184751000Y-88856000D01*
X184751000Y-88856000D02*
X183706000Y-87811000D01*
X178127000Y-87811000D02*
X177038000Y-88900000D01*
X182372000Y-98552000D02*
X182372000Y-97790000D01*
X191429000Y-81066000D02*
X190119000Y-79756000D01*
X182372000Y-97790000D02*
X181737000Y-97155000D01*
X186817000Y-101854000D02*
X188722000Y-101854000D01*
X177038000Y-91567000D02*
X177038000Y-88900000D01*
X178308000Y-93726000D02*
X178308000Y-92837000D01*
X190119000Y-79756000D02*
X187198000Y-79756000D01*
X183706000Y-87811000D02*
X178127000Y-87811000D01*
%TO.N,Net-(C12-Pad2)*%
X213360000Y-101092000D02*
X213360000Y-103886000D01*
D54*
%TO.N,/Vin*%
X172257050Y-102358950D02*
X172844000Y-101772000D01*
D53*
X181991000Y-111125000D02*
X183769000Y-112903000D01*
D54*
X172257050Y-103540500D02*
X172257050Y-102358950D01*
D53*
X183769000Y-112903000D02*
X184277000Y-112903000D01*
D54*
X176819500Y-101854000D02*
X176819500Y-101847500D01*
X176819500Y-101847500D02*
X176194000Y-101222000D01*
D53*
%TO.N,Net-(Q3-G)*%
X154482800Y-125679200D02*
X143850298Y-125679200D01*
%TO.N,GND1*%
X145074000Y-119507000D02*
X143891000Y-119507000D01*
D54*
X174844000Y-84490000D02*
X176784000Y-82550000D01*
D53*
X170053000Y-93726000D02*
X170053000Y-91440000D01*
X178028600Y-80086200D02*
X179273200Y-81330800D01*
X117652800Y-122123200D02*
X118059200Y-122529600D01*
X169282850Y-81326600D02*
X169282850Y-80805550D01*
D54*
X175244000Y-97872000D02*
X175244000Y-97298000D01*
X176784000Y-82550000D02*
X178054000Y-82550000D01*
D53*
X173609000Y-80086200D02*
X178028600Y-80086200D01*
X167132000Y-112395000D02*
X167005000Y-112268000D01*
X213557000Y-107950000D02*
X213557000Y-107250000D01*
X167132000Y-113284000D02*
X167132000Y-112395000D01*
D54*
X175244000Y-97298000D02*
X175768000Y-96774000D01*
D53*
X118059200Y-122529600D02*
X155016200Y-122529600D01*
X213807000Y-108200000D02*
X213557000Y-107950000D01*
X117652800Y-101346000D02*
X117652800Y-122123200D01*
X219588714Y-88905714D02*
X217493214Y-91001214D01*
D54*
X175244000Y-97872000D02*
X174844000Y-97872000D01*
D53*
X218821000Y-108712000D02*
X218821000Y-107061000D01*
X135991600Y-111607600D02*
X135890000Y-111607600D01*
X163423600Y-97688400D02*
X164465000Y-97688400D01*
D54*
X172844000Y-97872000D02*
X172844000Y-97406000D01*
D53*
X170002200Y-80086200D02*
X173609000Y-80086200D01*
X218821000Y-107061000D02*
X215646000Y-103886000D01*
D54*
X172844000Y-97406000D02*
X172212000Y-96774000D01*
D53*
X170053000Y-91440000D02*
X170688000Y-90805000D01*
D54*
X174044000Y-101772000D02*
X174044000Y-100022000D01*
X174044000Y-100022000D02*
X174244000Y-99822000D01*
D53*
X165517800Y-80086200D02*
X170002200Y-80086200D01*
X174282850Y-80760050D02*
X173609000Y-80086200D01*
D54*
X174244000Y-99822000D02*
X174844000Y-99222000D01*
X174844000Y-97872000D02*
X174844000Y-84490000D01*
X174244000Y-99822000D02*
X173244000Y-98822000D01*
D53*
X143891000Y-119507000D02*
X135991600Y-111607600D01*
X164273200Y-81330800D02*
X165517800Y-80086200D01*
X217493214Y-91001214D02*
X217493214Y-95446214D01*
X155016200Y-122529600D02*
X162560000Y-114985800D01*
X213557000Y-105975000D02*
X213557000Y-107250000D01*
X215646000Y-103886000D02*
X213557000Y-105975000D01*
X118795800Y-100203000D02*
X117652800Y-101346000D01*
D54*
X178054000Y-82550000D02*
X179273200Y-81330800D01*
D53*
X169282850Y-80805550D02*
X170002200Y-80086200D01*
D54*
X173244000Y-98822000D02*
X172294000Y-98822000D01*
D53*
X162560000Y-98552000D02*
X163423600Y-97688400D01*
D54*
X174844000Y-99222000D02*
X174844000Y-97872000D01*
D53*
X121285000Y-100203000D02*
X118795800Y-100203000D01*
X162560000Y-114985800D02*
X162560000Y-98552000D01*
X217493214Y-95446214D02*
X219837000Y-97790000D01*
X174282850Y-81326600D02*
X174282850Y-80760050D01*
%TO.N,Net-(C19-Pad1)*%
X119068214Y-76777214D02*
X118976714Y-76777214D01*
X117475000Y-74295000D02*
X117983000Y-74803000D01*
X95123000Y-76835000D02*
X97663000Y-74295000D01*
X118976714Y-76777214D02*
X117983000Y-75783500D01*
X117983000Y-74803000D02*
X117983000Y-75783500D01*
X97663000Y-74295000D02*
X117475000Y-74295000D01*
%TO.N,/PACK+*%
X150627573Y-92130389D02*
X151413285Y-91344677D01*
D52*
X113292890Y-122555000D02*
X110236000Y-122555000D01*
D53*
X149034787Y-92130389D02*
X150627573Y-92130389D01*
X158299786Y-93021786D02*
X160274000Y-94996000D01*
D52*
X110236000Y-122555000D02*
X108458000Y-124333000D01*
D53*
X158299786Y-91658500D02*
X158299786Y-93021786D01*
D55*
%TO.N,+12V*%
X143129000Y-89789000D02*
X141294500Y-87954500D01*
X141732000Y-94234000D02*
X143129000Y-92837000D01*
X141294500Y-87954500D02*
X141294500Y-79064500D01*
X143129000Y-92837000D02*
X143129000Y-89789000D01*
X141294500Y-79064500D02*
X138684000Y-76454000D01*
X138684000Y-76454000D02*
X136652000Y-76454000D01*
D53*
%TO.N,+3.3V*%
X216281000Y-98044000D02*
X213360000Y-98044000D01*
X202946000Y-102997000D02*
X203759000Y-102184000D01*
X203759000Y-102184000D02*
X203759000Y-100696000D01*
X190601000Y-88856000D02*
X190601000Y-87008866D01*
X205359000Y-90175000D02*
X205359000Y-89296000D01*
X156810000Y-101279400D02*
X156810000Y-99863200D01*
X210566000Y-89789000D02*
X209677000Y-90678000D01*
X190601000Y-87008866D02*
X191468866Y-86141000D01*
X201676000Y-102997000D02*
X201295000Y-102616000D01*
X205862000Y-90678000D02*
X205359000Y-90175000D01*
X194691000Y-108585000D02*
X194564000Y-108458000D01*
X155956000Y-102133400D02*
X156810000Y-101279400D01*
X216281000Y-98044000D02*
X218059000Y-98044000D01*
X196723000Y-90424000D02*
X197358000Y-90424000D01*
X192550500Y-86141000D02*
X193277500Y-86868000D01*
X194691000Y-109855000D02*
X194691000Y-108585000D01*
X199659000Y-92596000D02*
X198655000Y-92596000D01*
X218059000Y-98044000D02*
X218313000Y-98298000D01*
X209677000Y-90678000D02*
X205862000Y-90678000D01*
X193277500Y-86868000D02*
X193277500Y-88779500D01*
X196723000Y-90664000D02*
X196723000Y-90424000D01*
X204470000Y-107823000D02*
X204597000Y-107696000D01*
X156810000Y-99863200D02*
X156489400Y-99542600D01*
X202946000Y-102997000D02*
X201676000Y-102997000D01*
X213487000Y-89880502D02*
X213487000Y-90932000D01*
X155067000Y-102133400D02*
X155956000Y-102133400D01*
X213487000Y-90932000D02*
X212344000Y-89789000D01*
X197358000Y-90424000D02*
X198628000Y-89154000D01*
X198655000Y-92596000D02*
X196723000Y-90664000D01*
X213360000Y-98044000D02*
X212712000Y-97396000D01*
X212344000Y-89789000D02*
X210566000Y-89789000D01*
X212712000Y-97396000D02*
X211059000Y-97396000D01*
X203327000Y-107823000D02*
X204470000Y-107823000D01*
X193277500Y-88779500D02*
X193201000Y-88856000D01*
X191468866Y-86141000D02*
X192550500Y-86141000D01*
%TO.N,Net-(IC1-PDI_DATA)*%
X197353000Y-78364000D02*
X195834000Y-79883000D01*
X195834000Y-79883000D02*
X195834000Y-84683600D01*
X202428000Y-78364000D02*
X197353000Y-78364000D01*
X195834000Y-84683600D02*
X200446400Y-89296000D01*
X200446400Y-89296000D02*
X201359000Y-89296000D01*
%TO.N,/RX_MCU*%
X192551000Y-96056000D02*
X192551000Y-98933000D01*
X192551000Y-98933000D02*
X192551000Y-99127053D01*
X206883000Y-105410000D02*
X209359000Y-102934000D01*
X209359000Y-102934000D02*
X209359000Y-100696000D01*
X201422000Y-105410000D02*
X206883000Y-105410000D01*
X199590000Y-103578000D02*
X201422000Y-105410000D01*
X192551000Y-99127053D02*
X197001947Y-103578000D01*
X197001947Y-103578000D02*
X199590000Y-103578000D01*
%TO.N,/TX_MCU*%
X208559000Y-102718000D02*
X206629000Y-104648000D01*
X197104000Y-77089000D02*
X195380000Y-78813000D01*
X208559000Y-100696000D02*
X208559000Y-102718000D01*
X201422000Y-104648000D02*
X199898000Y-103124000D01*
X195326000Y-101260001D02*
X195326000Y-96427000D01*
X206629000Y-104648000D02*
X201422000Y-104648000D01*
X193133000Y-94234000D02*
X191969000Y-94234000D01*
X191969000Y-94234000D02*
X191251000Y-94952000D01*
X194183000Y-93184000D02*
X193133000Y-94234000D01*
X195380000Y-83893000D02*
X194183000Y-85090000D01*
X203703000Y-77089000D02*
X197104000Y-77089000D01*
X197189999Y-103124000D02*
X195326000Y-101260001D01*
X194183000Y-85090000D02*
X194183000Y-93184000D01*
X195380000Y-78813000D02*
X195380000Y-83893000D01*
X191251000Y-94952000D02*
X191251000Y-96056000D01*
X204968000Y-75824000D02*
X203703000Y-77089000D01*
X199898000Y-103124000D02*
X197189999Y-103124000D01*
X195326000Y-96427000D02*
X193133000Y-94234000D01*
%TO.N,Net-(IC1-~{RESET}{slash}PDI_CLK)*%
X197358000Y-80137000D02*
X196469000Y-81026000D01*
X207508000Y-78364000D02*
X205735000Y-80137000D01*
X202159000Y-88292000D02*
X202159000Y-89296000D01*
X207508000Y-78364000D02*
X207358145Y-78364000D01*
X201624000Y-87757000D02*
X202159000Y-88292000D01*
X205735000Y-80137000D02*
X197358000Y-80137000D01*
X196469000Y-81026000D02*
X196469000Y-84505800D01*
X196469000Y-84505800D02*
X199720200Y-87757000D01*
X199720200Y-87757000D02*
X201624000Y-87757000D01*
%TO.N,Net-(D1-K)*%
X131826000Y-78613000D02*
X135563000Y-74876000D01*
X135563000Y-74876000D02*
X138757000Y-74876000D01*
X108077000Y-77978000D02*
X108712000Y-78613000D01*
X142875000Y-78994000D02*
X151968200Y-78994000D01*
X153543000Y-80568800D02*
X153543000Y-86741000D01*
X108712000Y-78613000D02*
X131826000Y-78613000D01*
X151968200Y-78994000D02*
X153543000Y-80568800D01*
X138757000Y-74876000D02*
X142875000Y-78994000D01*
D54*
%TO.N,/LEDCNTLB*%
X178562000Y-103378000D02*
X179324000Y-104140000D01*
X176194000Y-100022000D02*
X178127000Y-100022000D01*
X178562000Y-100457000D02*
X178562000Y-103378000D01*
X178127000Y-100022000D02*
X178562000Y-100457000D01*
D53*
%TO.N,/LEDCNTLC*%
X197535800Y-122097800D02*
X196545200Y-123088400D01*
X196545200Y-123088400D02*
X194411600Y-123088400D01*
D54*
X177892000Y-100422000D02*
X178209600Y-100739600D01*
X178209600Y-100739600D02*
X178209600Y-104295600D01*
X176194000Y-100422000D02*
X177892000Y-100422000D01*
X178209600Y-104295600D02*
X179324000Y-105410000D01*
%TO.N,/LEDCNTLA*%
X179324000Y-100457000D02*
X179324000Y-102870000D01*
X176194000Y-99622000D02*
X178489000Y-99622000D01*
X178489000Y-99622000D02*
X179324000Y-100457000D01*
D53*
%TO.N,Net-(D7-A)*%
X196723000Y-96901000D02*
X196723000Y-98298000D01*
%TO.N,/OLED_RES*%
X193456500Y-85598000D02*
X190754000Y-85598000D01*
X164973000Y-86995000D02*
X160528000Y-91440000D01*
X211059000Y-92596000D02*
X204102000Y-92596000D01*
X190754000Y-85598000D02*
X190373000Y-85979000D01*
X204102000Y-92596000D02*
X202438000Y-90932000D01*
X165227000Y-86995000D02*
X164973000Y-86995000D01*
%TO.N,Net-(IC1-PD4{slash}OC1A{slash}~{SS})*%
X196723000Y-100253000D02*
X196723000Y-100584000D01*
X198780000Y-98196000D02*
X196723000Y-100253000D01*
X199659000Y-98196000D02*
X198780000Y-98196000D01*
D54*
%TO.N,Net-(U7-VC4)*%
X171392800Y-102018936D02*
X170307000Y-103104736D01*
X170307000Y-103104736D02*
X170307000Y-104267000D01*
D53*
X176603000Y-112195000D02*
X176603000Y-108023000D01*
D54*
X171720000Y-100822000D02*
X171392800Y-101149200D01*
X174602800Y-106022800D02*
X175514000Y-106934000D01*
X172062800Y-106022800D02*
X174602800Y-106022800D01*
X171392800Y-101149200D02*
X171392800Y-102018936D01*
X170307000Y-104267000D02*
X172062800Y-106022800D01*
D53*
X176603000Y-108023000D02*
X175514000Y-106934000D01*
X175514000Y-113284000D02*
X176603000Y-112195000D01*
D54*
X172294000Y-100822000D02*
X171720000Y-100822000D01*
D53*
%TO.N,/BAT+*%
X168275000Y-116967000D02*
X166878000Y-115570000D01*
X202365000Y-106988000D02*
X201930000Y-106553000D01*
X145906819Y-120167400D02*
X145534419Y-120539800D01*
X175514000Y-109220000D02*
X175133000Y-109220000D01*
X148920200Y-120700800D02*
X147303781Y-120700800D01*
X145534419Y-120539800D02*
X141748800Y-120539800D01*
X141748800Y-120539800D02*
X140970000Y-119761000D01*
X175133000Y-109220000D02*
X174244000Y-108331000D01*
X204524000Y-113738000D02*
X204524000Y-111052000D01*
X176801848Y-116078000D02*
X175912848Y-116967000D01*
X182880000Y-116078000D02*
X176801848Y-116078000D01*
X213868000Y-113284000D02*
X211963000Y-115189000D01*
X143941800Y-85572600D02*
X143941800Y-84851300D01*
X147303781Y-120700800D02*
X146770381Y-120167400D01*
X175912848Y-116967000D02*
X168275000Y-116967000D01*
X205975000Y-115189000D02*
X204524000Y-113738000D01*
X201930000Y-106553000D02*
X198628000Y-106553000D01*
X198628000Y-106553000D02*
X197739000Y-105664000D01*
X211963000Y-115189000D02*
X205975000Y-115189000D01*
X204524000Y-111052000D02*
X202365000Y-108893000D01*
X185547000Y-113411000D02*
X182880000Y-116078000D01*
X146770381Y-120167400D02*
X145906819Y-120167400D01*
X202365000Y-108893000D02*
X202365000Y-106988000D01*
X216281000Y-113284000D02*
X213868000Y-113284000D01*
X143941800Y-84851300D02*
X142148500Y-83058000D01*
%TO.N,Net-(BALANCE1-Pin_2)*%
X174692266Y-124412400D02*
X166116000Y-115836134D01*
X203476200Y-124412400D02*
X174692266Y-124412400D01*
X207060800Y-120827800D02*
X203476200Y-124412400D01*
X207953000Y-114246000D02*
X207772000Y-114427000D01*
X166576866Y-114843000D02*
X167421000Y-114843000D01*
X210493000Y-114246000D02*
X207953000Y-114246000D01*
X172720000Y-109220000D02*
X173101000Y-109220000D01*
X167421000Y-114843000D02*
X168402000Y-115824000D01*
X173101000Y-109220000D02*
X173990000Y-110109000D01*
X166116000Y-115836134D02*
X166116000Y-115303866D01*
X211455000Y-113284000D02*
X210493000Y-114246000D01*
X166116000Y-115303866D02*
X166576866Y-114843000D01*
%TO.N,Net-(BALANCE1-Pin_3)*%
X209042000Y-113284000D02*
X208026000Y-113284000D01*
X165608000Y-115970186D02*
X165608000Y-112359500D01*
X207518000Y-122682000D02*
X204851000Y-125349000D01*
X165608000Y-112359500D02*
X165826500Y-112141000D01*
X174986814Y-125349000D02*
X165608000Y-115970186D01*
X204851000Y-125349000D02*
X174986814Y-125349000D01*
X208026000Y-113284000D02*
X207645000Y-112903000D01*
X169926000Y-106934000D02*
X169926000Y-106299000D01*
X169926000Y-107985498D02*
X169926000Y-106934000D01*
%TO.N,Net-(BALANCE1-Pin_4)*%
X167132000Y-109220000D02*
X167513000Y-109220000D01*
X168837000Y-114500000D02*
X168529000Y-114192000D01*
X176603000Y-114500000D02*
X168837000Y-114500000D01*
X200787000Y-105826500D02*
X199897500Y-104937000D01*
X180213000Y-108458000D02*
X180213000Y-110890000D01*
X180213000Y-110890000D02*
X176603000Y-114500000D01*
X168529000Y-114192000D02*
X168529000Y-112141000D01*
X195107000Y-104937000D02*
X192405000Y-102235000D01*
X209796948Y-107442000D02*
X208280000Y-107442000D01*
X211328000Y-106045000D02*
X211193948Y-106045000D01*
X167132000Y-108676502D02*
X167132000Y-109220000D01*
X211193948Y-106045000D02*
X209796948Y-107442000D01*
X192405000Y-102235000D02*
X191897000Y-102235000D01*
X166624000Y-108168502D02*
X167132000Y-108676502D01*
X199897500Y-104937000D02*
X195107000Y-104937000D01*
%TO.N,/RX_OUT*%
X193729000Y-81480000D02*
X193729000Y-83766000D01*
X193929000Y-81280000D02*
X193729000Y-81480000D01*
X187351000Y-87591866D02*
X187351000Y-88856000D01*
X193729000Y-83766000D02*
X192351000Y-85144000D01*
X189798866Y-85144000D02*
X187351000Y-87591866D01*
X192351000Y-85144000D02*
X189798866Y-85144000D01*
%TO.N,/TX_OUT*%
X188929000Y-81280000D02*
X188929000Y-84756000D01*
X186051000Y-87634000D02*
X186051000Y-88856000D01*
X188929000Y-84756000D02*
X186051000Y-87634000D01*
%TO.N,Net-(SMBD_SEL1-C)*%
X203073000Y-115967510D02*
X204139800Y-117034310D01*
D52*
X201295000Y-114665760D02*
X201771250Y-114665760D01*
X201771250Y-114665760D02*
X203073000Y-115967510D01*
D53*
X193421000Y-104013000D02*
X203073000Y-113665000D01*
X203073000Y-113665000D02*
X203073000Y-115967510D01*
X190754000Y-104013000D02*
X193421000Y-104013000D01*
%TO.N,/SDA*%
X202400060Y-94996000D02*
X199659000Y-94996000D01*
X203454000Y-98806000D02*
X203454000Y-96049940D01*
X201041000Y-107823000D02*
X199644000Y-107823000D01*
X203454000Y-96049940D02*
X202400060Y-94996000D01*
%TO.N,/PRES{slash}SHUTDN*%
X157149800Y-117652800D02*
X158062362Y-117652800D01*
X147812200Y-106676334D02*
X151168666Y-110032800D01*
X150291800Y-103581200D02*
X147812200Y-106060800D01*
X155377181Y-117652800D02*
X157149800Y-117652800D01*
X154012300Y-119017681D02*
X155377181Y-117652800D01*
X152146419Y-121427800D02*
X154012300Y-119561919D01*
X158062362Y-117652800D02*
X159248400Y-116466762D01*
X156641800Y-103581200D02*
X150291800Y-103581200D01*
X146329400Y-121031000D02*
X146726200Y-121427800D01*
X161544000Y-124079000D02*
X159901890Y-124079000D01*
X159893000Y-124087890D02*
X159893000Y-123037600D01*
X154012300Y-119561919D02*
X154012300Y-119017681D01*
X159893000Y-123037600D02*
X160045400Y-122885200D01*
X147812200Y-106060800D02*
X147812200Y-106676334D01*
X151168666Y-110032800D02*
X152222200Y-110032800D01*
X146726200Y-121427800D02*
X152146419Y-121427800D01*
X159248400Y-106187800D02*
X156641800Y-103581200D01*
X159248400Y-116466762D02*
X159248400Y-106187800D01*
X159901890Y-124079000D02*
X159893000Y-124087890D01*
%TO.N,Net-(SMBC_SEL1-C)*%
X195259400Y-107731000D02*
X196240400Y-108712000D01*
X190754000Y-107950000D02*
X190973000Y-107731000D01*
X196240400Y-108712000D02*
X196240400Y-112894110D01*
X196240400Y-112894110D02*
X192100200Y-117034310D01*
X190973000Y-107731000D02*
X195259400Y-107731000D01*
X191516000Y-113411000D02*
X191516000Y-114554000D01*
%TO.N,/SCL*%
X204216000Y-96774000D02*
X204216000Y-95886940D01*
X204216000Y-96774000D02*
X207040000Y-99598000D01*
X219486000Y-99598000D02*
X221488000Y-101600000D01*
X207040000Y-99598000D02*
X219486000Y-99598000D01*
X204216000Y-95886940D02*
X202525060Y-94196000D01*
X202525060Y-94196000D02*
X199659000Y-94196000D01*
X194691000Y-112141000D02*
X194691000Y-112776000D01*
X194691000Y-112776000D02*
X193802000Y-113665000D01*
%TO.N,Net-(D9-K)*%
X142036800Y-110185200D02*
X142036800Y-109076200D01*
X142036800Y-109076200D02*
X141190000Y-108229400D01*
%TO.N,Net-(U7-VC3)*%
X175514000Y-110998000D02*
X172593000Y-110998000D01*
D54*
X172294000Y-100422000D02*
X171612000Y-100422000D01*
D53*
X171631000Y-108023000D02*
X172720000Y-106934000D01*
D54*
X171040400Y-100993600D02*
X171040400Y-101872968D01*
X172085000Y-106934000D02*
X172720000Y-106934000D01*
X171612000Y-100422000D02*
X171040400Y-100993600D01*
X171040400Y-101872968D02*
X169799000Y-103114368D01*
D53*
X171631000Y-110036000D02*
X171631000Y-108023000D01*
D54*
X169799000Y-104648000D02*
X172085000Y-106934000D01*
D53*
X172593000Y-110998000D02*
X171631000Y-110036000D01*
D54*
X169799000Y-103114368D02*
X169799000Y-104648000D01*
D53*
%TO.N,/LDO_EN*%
X150545800Y-96570800D02*
X152393014Y-98418014D01*
X168529000Y-88624260D02*
X167023860Y-90129400D01*
X163398200Y-86944200D02*
X164490400Y-85852000D01*
X151783860Y-93025000D02*
X151783860Y-92995940D01*
X149832610Y-106199390D02*
X154804892Y-106199390D01*
X149656800Y-106375200D02*
X149832610Y-106199390D01*
X152393014Y-98418014D02*
X152635586Y-98418014D01*
X149148800Y-94771060D02*
X150894860Y-93025000D01*
X149148800Y-96875600D02*
X149148800Y-94771060D01*
X167265340Y-85852000D02*
X168529000Y-87115660D01*
X148539200Y-106375200D02*
X149656800Y-106375200D01*
X150894860Y-93025000D02*
X151783860Y-93025000D01*
X149148800Y-96875600D02*
X149453600Y-96570800D01*
X168529000Y-87115660D02*
X168529000Y-88624260D01*
X164490400Y-85852000D02*
X167265340Y-85852000D01*
X151783860Y-92995940D02*
X156006800Y-88773000D01*
X149453600Y-96570800D02*
X150545800Y-96570800D01*
X154804892Y-106199390D02*
X154940000Y-106334498D01*
D52*
%TO.N,Net-(Q2-D)*%
X169526140Y-87473576D02*
X166851564Y-84799000D01*
X166851564Y-84799000D02*
X161354600Y-84799000D01*
X161354600Y-84799000D02*
X161239200Y-84683600D01*
X169526140Y-89179400D02*
X169526140Y-87473576D01*
D54*
%TO.N,Net-(U7-VC2)*%
X171504000Y-100022000D02*
X170688000Y-100838000D01*
X170688000Y-100838000D02*
X170688000Y-101727000D01*
X168887800Y-103527200D02*
X168887800Y-108181800D01*
D53*
X171177000Y-110224052D02*
X171177000Y-109836000D01*
D54*
X168887800Y-108181800D02*
X169926000Y-109220000D01*
D53*
X171446474Y-110493526D02*
X171177000Y-110224052D01*
D54*
X170688000Y-101727000D02*
X168887800Y-103527200D01*
X172294000Y-100022000D02*
X171504000Y-100022000D01*
D53*
X170561000Y-109220000D02*
X169926000Y-109220000D01*
X169926000Y-113284000D02*
X171446474Y-111763526D01*
X172593000Y-113284000D02*
X169926000Y-113284000D01*
X171446474Y-111763526D02*
X171446474Y-110493526D01*
X171177000Y-109836000D02*
X170561000Y-109220000D01*
%TO.N,Net-(U7-VC1)*%
X166497000Y-106934000D02*
X167132000Y-106934000D01*
D54*
X167132000Y-104775000D02*
X170335600Y-101571400D01*
D53*
X165735000Y-107696000D02*
X166497000Y-106934000D01*
X169926000Y-110998000D02*
X167132000Y-110998000D01*
D54*
X170335600Y-101571400D02*
X170335600Y-100682400D01*
X170335600Y-100682400D02*
X171396000Y-99622000D01*
D53*
X165735000Y-110236000D02*
X165735000Y-107696000D01*
X166497000Y-110998000D02*
X165735000Y-110236000D01*
D54*
X171396000Y-99622000D02*
X172294000Y-99622000D01*
X167132000Y-104775000D02*
X167132000Y-106934000D01*
D53*
X167132000Y-110998000D02*
X166497000Y-110998000D01*
%TO.N,/PWR_PRES{slash}SHUTDN*%
X156616400Y-104597200D02*
X152577800Y-104597200D01*
X156616400Y-104597200D02*
X156845000Y-104825800D01*
X156845000Y-112014000D02*
X154559000Y-114300000D01*
X152577800Y-104597200D02*
X152222200Y-104952800D01*
X156845000Y-104825800D02*
X156845000Y-112014000D01*
X154559000Y-114300000D02*
X149606000Y-114300000D01*
%TO.N,Net-(U2-V4)*%
X207083000Y-111960000D02*
X206248000Y-111125000D01*
X212906000Y-111960000D02*
X207083000Y-111960000D01*
X214057000Y-109150000D02*
X214057000Y-110809000D01*
X213868000Y-110998000D02*
X212906000Y-111960000D01*
X214057000Y-110809000D02*
X213868000Y-110998000D01*
%TO.N,Net-(U2-V3)*%
X204978000Y-109982000D02*
X204978000Y-112141000D01*
X213361000Y-109727000D02*
X213557000Y-109531000D01*
X211328000Y-108839000D02*
X212216000Y-109727000D01*
X211286822Y-110998000D02*
X210227911Y-109939089D01*
X213557000Y-109531000D02*
X213557000Y-109150000D01*
X211455000Y-110998000D02*
X211286822Y-110998000D01*
X204978000Y-112141000D02*
X206248000Y-113411000D01*
X211455000Y-108966000D02*
X211328000Y-108839000D01*
X212216000Y-109727000D02*
X213361000Y-109727000D01*
X211455000Y-110998000D02*
X211455000Y-108966000D01*
%TO.N,Net-(R26-Pad1)*%
X124333000Y-75438000D02*
X124333000Y-76581000D01*
X113284000Y-78105000D02*
X113030000Y-77851000D01*
X142240000Y-74422000D02*
X125349000Y-74422000D01*
X124333000Y-76581000D02*
X122809000Y-78105000D01*
X125349000Y-74422000D02*
X124333000Y-75438000D01*
X122809000Y-78105000D02*
X113284000Y-78105000D01*
X143637000Y-75819000D02*
X142240000Y-74422000D01*
%TO.N,Net-(U2-V2)*%
X212290000Y-107750000D02*
X210131000Y-107750000D01*
X210131000Y-107750000D02*
X209042000Y-108839000D01*
X212471000Y-108585000D02*
X212471000Y-107931000D01*
X213057000Y-109150000D02*
X213036000Y-109150000D01*
X209042000Y-108839000D02*
X209042000Y-110998000D01*
X213036000Y-109150000D02*
X212471000Y-108585000D01*
X212471000Y-107931000D02*
X212290000Y-107750000D01*
X209042000Y-108839000D02*
X206248000Y-108839000D01*
%TO.N,Net-(U2-V1)*%
X212090000Y-104956000D02*
X212290000Y-104956000D01*
X213057000Y-105723000D02*
X213057000Y-107250000D01*
X210131000Y-104956000D02*
X212090000Y-104956000D01*
X209042000Y-106045000D02*
X206756000Y-106045000D01*
X211582000Y-104140000D02*
X211582000Y-104448000D01*
X211582000Y-104448000D02*
X212090000Y-104956000D01*
X212290000Y-104956000D02*
X213057000Y-105723000D01*
X209042000Y-106045000D02*
X210131000Y-104956000D01*
X206756000Y-106045000D02*
X206248000Y-106553000D01*
%TO.N,Net-(SMBC_SEL1-B)*%
X193167000Y-109982000D02*
X192532000Y-109347000D01*
X193075000Y-113249000D02*
X193167000Y-113157000D01*
X183454134Y-116532000D02*
X182334000Y-116532000D01*
X191151510Y-115443000D02*
X192405000Y-115443000D01*
X187579000Y-112407134D02*
X183454134Y-116532000D01*
X187579000Y-110363000D02*
X187579000Y-112407134D01*
X193167000Y-113157000D02*
X193167000Y-109982000D01*
X189357000Y-109347000D02*
X189103000Y-109601000D01*
X193075000Y-114773000D02*
X193075000Y-113249000D01*
X189560200Y-117034310D02*
X191151510Y-115443000D01*
X188341000Y-109601000D02*
X187579000Y-110363000D01*
X182334000Y-116532000D02*
X179558000Y-119308000D01*
X192532000Y-109347000D02*
X189357000Y-109347000D01*
X189103000Y-109601000D02*
X188341000Y-109601000D01*
X179558000Y-119308000D02*
X179558000Y-119562000D01*
X192405000Y-115443000D02*
X193075000Y-114773000D01*
D54*
%TO.N,Net-(U7-SRP)*%
X168656000Y-97739200D02*
X169214800Y-98298000D01*
X169214800Y-98298000D02*
X172170000Y-98298000D01*
D53*
X168605200Y-97688400D02*
X168656000Y-97739200D01*
X166751000Y-97688400D02*
X168605200Y-97688400D01*
D54*
X172170000Y-98298000D02*
X172294000Y-98422000D01*
D53*
%TO.N,Net-(U7-SRN)*%
X166751000Y-100025200D02*
X168656000Y-100025200D01*
D54*
X169459200Y-99222000D02*
X172294000Y-99222000D01*
X168656000Y-100025200D02*
X169459200Y-99222000D01*
%TO.N,Net-(THERMS1-Pin_1)*%
X171196000Y-83566000D02*
X164008400Y-83566000D01*
X173244000Y-97872000D02*
X173244000Y-85614000D01*
X164008400Y-83566000D02*
X161773200Y-81330800D01*
X173244000Y-85614000D02*
X171196000Y-83566000D01*
%TO.N,Net-(THERMS1-Pin_3)*%
X173644000Y-84998000D02*
X171450000Y-82804000D01*
X173644000Y-97872000D02*
X173644000Y-84998000D01*
X168246400Y-82804000D02*
X166773200Y-81330800D01*
X171450000Y-82804000D02*
X168246400Y-82804000D01*
%TO.N,Net-(THERMS1-Pin_5)*%
X174044000Y-97872000D02*
X174044000Y-83601600D01*
X174044000Y-83601600D02*
X171773200Y-81330800D01*
%TO.N,Net-(THERMS1-Pin_7)*%
X174444000Y-97872000D02*
X174444000Y-83660000D01*
X174444000Y-83660000D02*
X176773200Y-81330800D01*
D53*
%TO.N,Net-(SMBD_SEL1-A)*%
X202505310Y-121208800D02*
X178704800Y-121208800D01*
X178704800Y-121208800D02*
X177058000Y-119562000D01*
X206679800Y-117034310D02*
X202505310Y-121208800D01*
%TO.N,Net-(U2-VDD)*%
X216281000Y-110998000D02*
X216281000Y-108966000D01*
X216535000Y-108712000D02*
X216097000Y-109150000D01*
X216097000Y-109150000D02*
X214557000Y-109150000D01*
X216281000Y-108966000D02*
X216535000Y-108712000D01*
%TO.N,Net-(U7-PBI)*%
X158223500Y-98914500D02*
X160147000Y-100838000D01*
X158823500Y-96174000D02*
X158223500Y-96774000D01*
X161750866Y-96174000D02*
X158823500Y-96174000D01*
D54*
X171196000Y-104013000D02*
X171196000Y-103645258D01*
D53*
X167767000Y-93726000D02*
X164198866Y-93726000D01*
X164198866Y-93726000D02*
X161750866Y-96174000D01*
X158223500Y-96774000D02*
X158223500Y-98914500D01*
D54*
X171904650Y-101611350D02*
X172294000Y-101222000D01*
X171196000Y-103645258D02*
X171904650Y-102936608D01*
X171904650Y-102936608D02*
X171904650Y-101611350D01*
D53*
%TO.N,Net-(U8-VCOMH)*%
X218948000Y-94234000D02*
X221234000Y-94234000D01*
X221234000Y-94234000D02*
X221488000Y-93980000D01*
D54*
%TO.N,Net-(U7-PTC)*%
X177857200Y-105086200D02*
X180952800Y-108181800D01*
X177857200Y-101149200D02*
X177857200Y-105086200D01*
X183134000Y-109982000D02*
X184277000Y-111125000D01*
X180952800Y-108181800D02*
X180952800Y-108988200D01*
X181946600Y-109982000D02*
X183134000Y-109982000D01*
D52*
X184277000Y-109601000D02*
X184277000Y-111125000D01*
D54*
X176194000Y-100822000D02*
X177530000Y-100822000D01*
X177530000Y-100822000D02*
X177857200Y-101149200D01*
X180952800Y-108988200D02*
X181946600Y-109982000D01*
D53*
%TO.N,Net-(U20-V+)*%
X182118000Y-94488000D02*
X181737000Y-94869000D01*
X187351000Y-94927000D02*
X186912000Y-94488000D01*
X186912000Y-94488000D02*
X182118000Y-94488000D01*
X187351000Y-96056000D02*
X187351000Y-94927000D01*
%TO.N,Net-(U20-V-)*%
X184531000Y-101854000D02*
X184531000Y-101537789D01*
X184531000Y-101537789D02*
X183388000Y-100394789D01*
X184751000Y-96300000D02*
X183388000Y-97663000D01*
X184751000Y-96056000D02*
X184751000Y-96300000D01*
X183388000Y-100394789D02*
X183388000Y-97663000D01*
%TO.N,Net-(U20-C1-)*%
X184023000Y-92837000D02*
X181737000Y-90551000D01*
X193277500Y-90805000D02*
X191245500Y-92837000D01*
X193294000Y-97790000D02*
X193294000Y-96149000D01*
X191245500Y-92837000D02*
X184023000Y-92837000D01*
X193294000Y-96149000D02*
X193201000Y-96056000D01*
%TO.N,Net-(U20-C1+)*%
X182753000Y-92837000D02*
X183388000Y-93472000D01*
X188651000Y-94927000D02*
X188651000Y-96056000D01*
X181737000Y-92837000D02*
X182753000Y-92837000D01*
X187196000Y-93472000D02*
X188651000Y-94927000D01*
X183388000Y-93472000D02*
X187196000Y-93472000D01*
%TO.N,Net-(U20-C2-)*%
X191824500Y-90551000D02*
X192551000Y-89824500D01*
X183642000Y-86487000D02*
X183769000Y-86360000D01*
X192551000Y-89824500D02*
X192551000Y-88856000D01*
X181737000Y-86487000D02*
X183642000Y-86487000D01*
%TO.N,Net-(U20-C2+)*%
X188651000Y-88856000D02*
X188651000Y-89985000D01*
X188651000Y-89985000D02*
X188085000Y-90551000D01*
X188085000Y-90551000D02*
X184023000Y-90551000D01*
X182245000Y-88773000D02*
X181737000Y-88773000D01*
X184023000Y-90551000D02*
X182245000Y-88773000D01*
%TO.N,Net-(U20-C3-)*%
X186701000Y-97185000D02*
X188722000Y-99206000D01*
X188722000Y-99206000D02*
X188722000Y-99568000D01*
X186701000Y-96056000D02*
X186701000Y-97185000D01*
%TO.N,Net-(U20-C3+)*%
X188001000Y-96056000D02*
X188001000Y-97323000D01*
X188001000Y-97323000D02*
X188722000Y-98044000D01*
X188722000Y-98044000D02*
X189484000Y-98044000D01*
X189484000Y-98044000D02*
X191008000Y-99568000D01*
%TO.N,Net-(U20-C4-)*%
X185401000Y-96056000D02*
X185401000Y-98698000D01*
X185401000Y-98698000D02*
X184531000Y-99568000D01*
%TO.N,Net-(U20-C4+)*%
X186051000Y-96056000D02*
X186051000Y-98802000D01*
X186051000Y-98802000D02*
X186817000Y-99568000D01*
%TO.N,Net-(U20-ISOVcc)*%
X188001000Y-87727000D02*
X188606000Y-87122000D01*
X188606000Y-87122000D02*
X188849000Y-87122000D01*
X188001000Y-88856000D02*
X188001000Y-87727000D01*
X179197000Y-89662000D02*
X178308000Y-90551000D01*
X179197000Y-89027000D02*
X179197000Y-89662000D01*
%TO.N,/REED_OUT*%
X142380266Y-108229400D02*
X143290000Y-108229400D01*
X143472466Y-116433600D02*
X140716000Y-113677134D01*
X143332200Y-110769400D02*
X143332200Y-108271600D01*
X146681266Y-113224800D02*
X143472466Y-116433600D01*
X142722600Y-111379000D02*
X143332200Y-110769400D01*
X141442135Y-89309167D02*
X140643000Y-90108302D01*
X164769800Y-118244201D02*
X163481301Y-119532700D01*
X149764380Y-90627200D02*
X151299140Y-90627200D01*
X141198600Y-111379000D02*
X142722600Y-111379000D01*
X140643000Y-90108302D02*
X140643000Y-106492134D01*
X149645815Y-91017730D02*
X149645815Y-90745765D01*
X163481301Y-119532700D02*
X163481301Y-119119099D01*
X140716000Y-113677134D02*
X140716000Y-111861600D01*
X149645815Y-90745765D02*
X149764380Y-90627200D01*
X143332200Y-108271600D02*
X143290000Y-108229400D01*
X153653000Y-113224800D02*
X146681266Y-113224800D01*
X151299140Y-90627200D02*
X152334000Y-89592340D01*
X164769800Y-117830600D02*
X164769800Y-118244201D01*
X140716000Y-111861600D02*
X141198600Y-111379000D01*
X155117800Y-111760000D02*
X153653000Y-113224800D01*
X140643000Y-106492134D02*
X142380266Y-108229400D01*
X157480000Y-116433600D02*
X143472466Y-116433600D01*
X157866714Y-116820314D02*
X157480000Y-116433600D01*
%TO.N,Net-(U2-REG)*%
X214860000Y-105918000D02*
X216027000Y-105918000D01*
X214057000Y-107250000D02*
X214057000Y-106721000D01*
X216154000Y-101600000D02*
X215646000Y-101092000D01*
X214057000Y-106721000D02*
X214860000Y-105918000D01*
X217043000Y-101600000D02*
X216154000Y-101600000D01*
%TO.N,Net-(U2-OUT)*%
X157099000Y-126746000D02*
X171069000Y-126746000D01*
X156464000Y-126111000D02*
X157099000Y-126746000D01*
X214557000Y-107250000D02*
X216473000Y-107250000D01*
X216473000Y-107250000D02*
X217043000Y-106680000D01*
D54*
%TO.N,Net-(U7-FUSE)*%
X175644000Y-101772000D02*
X175644000Y-102705300D01*
X175644000Y-102705300D02*
X176062700Y-103124000D01*
D52*
%TO.N,Net-(U7-CHG)*%
X159893000Y-82169000D02*
X157480000Y-79756000D01*
D53*
X174739214Y-115297500D02*
X175646714Y-116205000D01*
D52*
X159385000Y-88505749D02*
X159893000Y-87997749D01*
D54*
X172932750Y-103152501D02*
X173244000Y-102841251D01*
D52*
X159249000Y-89290000D02*
X159385000Y-89154000D01*
X159385000Y-89154000D02*
X159385000Y-88505749D01*
D54*
X173244000Y-102841251D02*
X173244000Y-101772000D01*
X172932750Y-105062200D02*
X172932750Y-103152501D01*
D52*
X159893000Y-87997749D02*
X159893000Y-82169000D01*
X158886000Y-89290000D02*
X159249000Y-89290000D01*
D53*
X172466000Y-115297500D02*
X174739214Y-115297500D01*
D54*
X173101000Y-105230450D02*
X172932750Y-105062200D01*
%TO.N,Net-(U7-VCC)*%
X175380621Y-103423693D02*
X175244000Y-103287072D01*
X175380621Y-104006621D02*
X175380621Y-103423693D01*
D52*
X162814000Y-84074000D02*
X171136618Y-84074000D01*
X172085000Y-95504000D02*
X171069000Y-96520000D01*
X152254586Y-77851000D02*
X149352000Y-77851000D01*
X172085000Y-85022382D02*
X172085000Y-95504000D01*
D54*
X177329500Y-105955500D02*
X175380621Y-104006621D01*
D52*
X157093286Y-81020286D02*
X157093286Y-81655286D01*
X154000200Y-79596614D02*
X152254586Y-77851000D01*
D54*
X177329500Y-111633000D02*
X177329500Y-105955500D01*
D52*
X171136618Y-84074000D02*
X172085000Y-85022382D01*
D54*
X175244000Y-103287072D02*
X175244000Y-101772000D01*
D52*
X157093286Y-81655286D02*
X158369000Y-82931000D01*
D53*
%TO.N,Net-(U8-IREF)*%
X160909000Y-88519000D02*
X160528000Y-88900000D01*
X160909000Y-86741000D02*
X160909000Y-88519000D01*
%TO.N,Net-(R28-Pad1)*%
X108585000Y-125984000D02*
X110109000Y-124460000D01*
X110109000Y-124460000D02*
X112369600Y-124460000D01*
X106679500Y-124078500D02*
X106679500Y-121828500D01*
X108585000Y-125984000D02*
X106679500Y-124078500D01*
%TO.N,Net-(U7-DSG)*%
X150714000Y-76800000D02*
X152644400Y-76800000D01*
X117935400Y-77651000D02*
X119580000Y-77651000D01*
D54*
X173870386Y-103581528D02*
X174444000Y-103007914D01*
X173608500Y-103581528D02*
X173870386Y-103581528D01*
D53*
X116408200Y-76123800D02*
X117935400Y-77651000D01*
X152644400Y-76800000D02*
X156366286Y-80521886D01*
X117246400Y-127050800D02*
X114655600Y-124460000D01*
X119888000Y-77343000D02*
X119888000Y-75438000D01*
X119888000Y-75438000D02*
X121412000Y-73914000D01*
X154203400Y-127050800D02*
X117246400Y-127050800D01*
X119580000Y-77651000D02*
X119888000Y-77343000D01*
D54*
X174444000Y-103007914D02*
X174444000Y-101772000D01*
D53*
X165100000Y-116154200D02*
X154203400Y-127050800D01*
X156366286Y-80521886D02*
X156366286Y-81567510D01*
X121412000Y-73914000D02*
X147828000Y-73914000D01*
X165100000Y-103886000D02*
X165100000Y-116154200D01*
X165862000Y-103124000D02*
X165100000Y-103886000D01*
X157353000Y-82554224D02*
X157353000Y-102819200D01*
X147828000Y-73914000D02*
X150714000Y-76800000D01*
X156366286Y-81567510D02*
X157353000Y-82554224D01*
X157353000Y-102819200D02*
X157734000Y-103200200D01*
%TO.N,Net-(R29-Pad1)*%
X106553000Y-78867000D02*
X106553000Y-77851000D01*
X102743000Y-76708000D02*
X103759000Y-77724000D01*
X106553000Y-77851000D02*
X106680000Y-77724000D01*
X108280200Y-76123800D02*
X108204000Y-76200000D01*
X106680000Y-77724000D02*
X108204000Y-76200000D01*
X114122200Y-76123800D02*
X108280200Y-76123800D01*
X103759000Y-77724000D02*
X106680000Y-77724000D01*
D54*
%TO.N,Net-(U7-SMBC)*%
X180594000Y-106680000D02*
X181864000Y-107950000D01*
X180594000Y-101228632D02*
X180594000Y-106680000D01*
X176194000Y-99222000D02*
X178587368Y-99222000D01*
X178587368Y-99222000D02*
X180594000Y-101228632D01*
D53*
%TO.N,Net-(R32-Pad2)*%
X186969400Y-107950000D02*
X186309000Y-108610400D01*
X188468000Y-107950000D02*
X186969400Y-107950000D01*
X185648600Y-107950000D02*
X186309000Y-108610400D01*
X184150000Y-107950000D02*
X185648600Y-107950000D01*
D54*
%TO.N,Net-(U7-SMBD)*%
X176194000Y-98822000D02*
X176210000Y-98806000D01*
X183388000Y-102489000D02*
X181864000Y-104013000D01*
X182984800Y-100561800D02*
X183388000Y-100965000D01*
X183388000Y-100965000D02*
X183388000Y-102489000D01*
X181610000Y-98806000D02*
X182984800Y-100180800D01*
X176210000Y-98806000D02*
X181610000Y-98806000D01*
X182984800Y-100180800D02*
X182984800Y-100561800D01*
D53*
%TO.N,Net-(R33-Pad2)*%
X186893200Y-104013000D02*
X188468000Y-104013000D01*
X185724800Y-104013000D02*
X186309000Y-103428800D01*
X184150000Y-104013000D02*
X185724800Y-104013000D01*
X186309000Y-103428800D02*
X186893200Y-104013000D01*
%TO.N,Net-(U7-PACK)*%
X160274000Y-98679000D02*
X160401000Y-98806000D01*
D54*
X174844000Y-103921000D02*
X174844000Y-101772000D01*
D53*
X160274000Y-97282000D02*
X160274000Y-98679000D01*
D54*
X174371000Y-104394000D02*
X174844000Y-103921000D01*
%TO.N,/DISP*%
X179705000Y-97282000D02*
X178565000Y-98422000D01*
X178565000Y-98422000D02*
X176194000Y-98422000D01*
D53*
%TO.N,Net-(IC1-AC1OUT{slash}AC6{slash}ADC6{slash}PA6)*%
X204699000Y-91796000D02*
X211059000Y-91796000D01*
X203962000Y-91059000D02*
X204699000Y-91796000D01*
%TO.N,/REED_MCU*%
X220183000Y-77816000D02*
X220183000Y-87284000D01*
X156733800Y-98180600D02*
X152781000Y-102133400D01*
X155956000Y-87680800D02*
X156733800Y-88458600D01*
X213919000Y-93396000D02*
X213741000Y-93396000D01*
X220183000Y-87284000D02*
X214071000Y-93396000D01*
X151384000Y-87090060D02*
X152761194Y-87090060D01*
X156733800Y-88458600D02*
X156733800Y-98180600D01*
X216916000Y-74549000D02*
X220183000Y-77816000D01*
X152444260Y-86029800D02*
X151384000Y-87090060D01*
X153351934Y-87680800D02*
X155956000Y-87680800D01*
X214071000Y-93396000D02*
X213741000Y-93396000D01*
X213741000Y-93396000D02*
X211059000Y-93396000D01*
X151511000Y-76073000D02*
X153035000Y-74549000D01*
X152761194Y-87090060D02*
X153351934Y-87680800D01*
X152476200Y-86029800D02*
X152444260Y-86029800D01*
X153035000Y-74549000D02*
X216916000Y-74549000D01*
%TO.N,Net-(R25-Pad1)*%
X147412000Y-84173572D02*
X147419572Y-84173572D01*
X145483200Y-112471200D02*
X142036800Y-112471200D01*
X149063000Y-97817934D02*
X149063000Y-104014600D01*
X147419572Y-84173572D02*
X148132800Y-84886800D01*
X149063000Y-104014600D02*
X145584800Y-107492800D01*
X145584800Y-112572800D02*
X145483200Y-112471200D01*
X145631466Y-107492800D02*
X143941800Y-109182466D01*
X145584800Y-107492800D02*
X145631466Y-107492800D01*
X148132800Y-84886800D02*
X148132800Y-96887734D01*
X143176014Y-79937586D02*
X147412000Y-84173572D01*
X143941800Y-109182466D02*
X143941800Y-110929800D01*
X143941800Y-110929800D02*
X145584800Y-112572800D01*
X148132800Y-96887734D02*
X149063000Y-97817934D01*
D54*
%TO.N,/BQ_PRES{slash}SHUTDN*%
X177292000Y-96774000D02*
X176194000Y-97872000D01*
X176194000Y-97872000D02*
X175644000Y-97872000D01*
%TD*%
%TA.AperFunction,NonConductor*%
G36*
X118285025Y-101355809D02*
G01*
X118340958Y-101397681D01*
X118365375Y-101463145D01*
X118365691Y-101471862D01*
X118386939Y-121869200D01*
X118034299Y-121869200D01*
X118034299Y-101555382D01*
X118053984Y-101488344D01*
X118070613Y-101467707D01*
X118154012Y-101384308D01*
X118215333Y-101350825D01*
X118285025Y-101355809D01*
G37*
%TD.AperFunction*%
%TA.AperFunction,NonConductor*%
G36*
X118307168Y-99867085D02*
G01*
X118352923Y-99919889D01*
X118364129Y-99971273D01*
X118364203Y-100043582D01*
X118344587Y-100110642D01*
X118327884Y-100131390D01*
X117420109Y-101039166D01*
X117400254Y-101055291D01*
X117390845Y-101061438D01*
X117390841Y-101061442D01*
X117368656Y-101089944D01*
X117363578Y-101095696D01*
X117360698Y-101098577D01*
X117360684Y-101098593D01*
X117346898Y-101117901D01*
X117312643Y-101161912D01*
X117308835Y-101168947D01*
X117305324Y-101176131D01*
X117289409Y-101229586D01*
X117271299Y-101282340D01*
X117269985Y-101290214D01*
X117268994Y-101298162D01*
X117271300Y-101353883D01*
X117271300Y-121869200D01*
X116891300Y-121869200D01*
X116891300Y-101398427D01*
X116893939Y-101372982D01*
X116894610Y-101369779D01*
X116896245Y-101361983D01*
X116892943Y-101335490D01*
X116891777Y-101326133D01*
X116891300Y-101318457D01*
X116891300Y-101314393D01*
X116891299Y-101314385D01*
X116888591Y-101298159D01*
X116887396Y-101290995D01*
X116880496Y-101235640D01*
X116880495Y-101235637D01*
X116878219Y-101227994D01*
X116875616Y-101220409D01*
X116849070Y-101171358D01*
X116847891Y-101168947D01*
X116824576Y-101121254D01*
X116824573Y-101121251D01*
X116824573Y-101121250D01*
X116819931Y-101114747D01*
X116815020Y-101108437D01*
X116773980Y-101070658D01*
X116246480Y-100543158D01*
X115809516Y-100106194D01*
X115776033Y-100044873D01*
X115773200Y-100018524D01*
X115773200Y-99971396D01*
X115792884Y-99904361D01*
X115845688Y-99858606D01*
X115897199Y-99847400D01*
X118240129Y-99847400D01*
X118307168Y-99867085D01*
G37*
%TD.AperFunction*%
%TA.AperFunction,NonConductor*%
G36*
X115978403Y-101354571D02*
G01*
X115984881Y-101360603D01*
X116091981Y-101467703D01*
X116125466Y-101529026D01*
X116128300Y-101555384D01*
X116128300Y-121869200D01*
X115773200Y-121869200D01*
X115773200Y-101448284D01*
X115792885Y-101381245D01*
X115845689Y-101335490D01*
X115914847Y-101325546D01*
X115978403Y-101354571D01*
G37*
%TD.AperFunction*%
%TA.AperFunction,NonConductor*%
G36*
X170123039Y-96260285D02*
G01*
X170168794Y-96313089D01*
X170180000Y-96364600D01*
X170180000Y-97536000D01*
X172360514Y-97536000D01*
X172427553Y-97555685D01*
X172473308Y-97608489D01*
X172484514Y-97660000D01*
X172484514Y-97879502D01*
X172464829Y-97946541D01*
X172412025Y-97992296D01*
X172342867Y-98002240D01*
X172322475Y-97996165D01*
X172322394Y-97996468D01*
X172313412Y-97994061D01*
X172308289Y-97991939D01*
X172308118Y-97991888D01*
X172307733Y-97991708D01*
X172289204Y-97984033D01*
X172284852Y-97982449D01*
X172244310Y-97975300D01*
X172239028Y-97974129D01*
X172199266Y-97963475D01*
X172167098Y-97966290D01*
X172158251Y-97967064D01*
X172152851Y-97967300D01*
X169796500Y-97967300D01*
X169729461Y-97947615D01*
X169683706Y-97894811D01*
X169672500Y-97843300D01*
X169672499Y-97079136D01*
X169672499Y-97079134D01*
X169657734Y-97004899D01*
X169615993Y-96942430D01*
X169601484Y-96920715D01*
X169544995Y-96882971D01*
X169517301Y-96864466D01*
X169517299Y-96864465D01*
X169517296Y-96864464D01*
X169443069Y-96849700D01*
X167868936Y-96849700D01*
X167794698Y-96864466D01*
X167783416Y-96869140D01*
X167782535Y-96867014D01*
X167731564Y-96882971D01*
X167664185Y-96864482D01*
X167626257Y-96827882D01*
X167625263Y-96826395D01*
X167590254Y-96774000D01*
X167569484Y-96742915D01*
X167519019Y-96709196D01*
X167485301Y-96686666D01*
X167485299Y-96686665D01*
X167485296Y-96686664D01*
X167411069Y-96671900D01*
X166090936Y-96671900D01*
X166016698Y-96686666D01*
X165932515Y-96742915D01*
X165876266Y-96827099D01*
X165876264Y-96827103D01*
X165861500Y-96901328D01*
X165861500Y-98475463D01*
X165876266Y-98549701D01*
X165932515Y-98633884D01*
X165954218Y-98648385D01*
X166016699Y-98690134D01*
X166016702Y-98690134D01*
X166016703Y-98690135D01*
X166037864Y-98694344D01*
X166090933Y-98704900D01*
X167411066Y-98704899D01*
X167485301Y-98690134D01*
X167569484Y-98633884D01*
X167579323Y-98619158D01*
X167632934Y-98574353D01*
X167702259Y-98565644D01*
X167751313Y-98584944D01*
X167794699Y-98613934D01*
X167794702Y-98613934D01*
X167794703Y-98613935D01*
X167819666Y-98618900D01*
X167868933Y-98628700D01*
X169154931Y-98628699D01*
X169180932Y-98632122D01*
X169185531Y-98632524D01*
X169185532Y-98632523D01*
X169185533Y-98632524D01*
X169226548Y-98628935D01*
X169231949Y-98628700D01*
X171515500Y-98628700D01*
X171582539Y-98648385D01*
X171628294Y-98701189D01*
X171639500Y-98752700D01*
X171639500Y-98767300D01*
X171619815Y-98834339D01*
X171567011Y-98880094D01*
X171515500Y-98891300D01*
X169476341Y-98891300D01*
X169470941Y-98891064D01*
X169462093Y-98890290D01*
X169429933Y-98887476D01*
X169429929Y-98887476D01*
X169390169Y-98898129D01*
X169384891Y-98899299D01*
X169344350Y-98906448D01*
X169339989Y-98908035D01*
X169321481Y-98915701D01*
X169317284Y-98917659D01*
X169283561Y-98941272D01*
X169278999Y-98944178D01*
X169243355Y-98964757D01*
X169243348Y-98964764D01*
X169216880Y-98996305D01*
X169213225Y-99000293D01*
X169114137Y-99099381D01*
X169052814Y-99132866D01*
X169026456Y-99135700D01*
X167868936Y-99135700D01*
X167794698Y-99150466D01*
X167794696Y-99150467D01*
X167774781Y-99163774D01*
X167708103Y-99184651D01*
X167640723Y-99166165D01*
X167602791Y-99129563D01*
X167569484Y-99079716D01*
X167485301Y-99023466D01*
X167485299Y-99023465D01*
X167485296Y-99023464D01*
X167411069Y-99008700D01*
X166090936Y-99008700D01*
X166016698Y-99023466D01*
X165932515Y-99079715D01*
X165876266Y-99163899D01*
X165876264Y-99163903D01*
X165861500Y-99238128D01*
X165861500Y-100812263D01*
X165876266Y-100886501D01*
X165932515Y-100970684D01*
X165966234Y-100993214D01*
X166016699Y-101026934D01*
X166016702Y-101026934D01*
X166016703Y-101026935D01*
X166041666Y-101031900D01*
X166090933Y-101041700D01*
X167411066Y-101041699D01*
X167485301Y-101026934D01*
X167569484Y-100970684D01*
X167602790Y-100920837D01*
X167656401Y-100876033D01*
X167725725Y-100867324D01*
X167774781Y-100886625D01*
X167794698Y-100899933D01*
X167794699Y-100899934D01*
X167794703Y-100899935D01*
X167819666Y-100904900D01*
X167868933Y-100914700D01*
X169443066Y-100914699D01*
X169517301Y-100899934D01*
X169601484Y-100843684D01*
X169657734Y-100759501D01*
X169672500Y-100685267D01*
X169672499Y-99676699D01*
X169692183Y-99609661D01*
X169744987Y-99563906D01*
X169796499Y-99552700D01*
X170698257Y-99552700D01*
X170765296Y-99572385D01*
X170811051Y-99625189D01*
X170820995Y-99694347D01*
X170791970Y-99757903D01*
X170785930Y-99764390D01*
X170780623Y-99769696D01*
X170719297Y-99803175D01*
X170694505Y-99805996D01*
X170180000Y-99812446D01*
X170180000Y-100318957D01*
X170160315Y-100385996D01*
X170143684Y-100406635D01*
X170113958Y-100436360D01*
X170113892Y-100436427D01*
X170109905Y-100440080D01*
X170078364Y-100466548D01*
X170078358Y-100466554D01*
X170057777Y-100502200D01*
X170054872Y-100506761D01*
X170031259Y-100540484D01*
X170029306Y-100544671D01*
X170021625Y-100563218D01*
X170020047Y-100567553D01*
X170012900Y-100608089D01*
X170011729Y-100613372D01*
X170001075Y-100653133D01*
X170001075Y-100653134D01*
X170004663Y-100694144D01*
X170004899Y-100699550D01*
X170004900Y-101383056D01*
X169985216Y-101450095D01*
X169968581Y-101470737D01*
X169875636Y-101563682D01*
X169814316Y-101597166D01*
X169787957Y-101600000D01*
X163957500Y-101600000D01*
X163957500Y-101165699D01*
X163977185Y-101098660D01*
X164029989Y-101052905D01*
X164081500Y-101041699D01*
X165125064Y-101041699D01*
X165125066Y-101041699D01*
X165199301Y-101026934D01*
X165283484Y-100970684D01*
X165339734Y-100886501D01*
X165354500Y-100812267D01*
X165354499Y-99238134D01*
X165339734Y-99163899D01*
X165296624Y-99099381D01*
X165283484Y-99079715D01*
X165233019Y-99045996D01*
X165199301Y-99023466D01*
X165199299Y-99023465D01*
X165199296Y-99023464D01*
X165125069Y-99008700D01*
X163804936Y-99008700D01*
X163730698Y-99023466D01*
X163646515Y-99079715D01*
X163590266Y-99163899D01*
X163590264Y-99163903D01*
X163575500Y-99238128D01*
X163575500Y-100323814D01*
X163555815Y-100390853D01*
X163539181Y-100411495D01*
X163343309Y-100607366D01*
X163323454Y-100623491D01*
X163314045Y-100629638D01*
X163314041Y-100629642D01*
X163291856Y-100658144D01*
X163286778Y-100663896D01*
X163283898Y-100666777D01*
X163283884Y-100666793D01*
X163270098Y-100686101D01*
X163235843Y-100730112D01*
X163232035Y-100737147D01*
X163228524Y-100744331D01*
X163212609Y-100797786D01*
X163194499Y-100850540D01*
X163193185Y-100858414D01*
X163192194Y-100866362D01*
X163194500Y-100922083D01*
X163194500Y-101600000D01*
X162941500Y-101600000D01*
X162941500Y-98761383D01*
X162961185Y-98694344D01*
X162977814Y-98673707D01*
X163363821Y-98287700D01*
X163425142Y-98254217D01*
X163494834Y-98259201D01*
X163550767Y-98301073D01*
X163575184Y-98366537D01*
X163575500Y-98375382D01*
X163575500Y-98475463D01*
X163590266Y-98549701D01*
X163646515Y-98633884D01*
X163668218Y-98648385D01*
X163730699Y-98690134D01*
X163730702Y-98690134D01*
X163730703Y-98690135D01*
X163751864Y-98694344D01*
X163804933Y-98704900D01*
X165125066Y-98704899D01*
X165199301Y-98690134D01*
X165283484Y-98633884D01*
X165339734Y-98549701D01*
X165354500Y-98475467D01*
X165354499Y-96901334D01*
X165339734Y-96827099D01*
X165304254Y-96774000D01*
X165283484Y-96742915D01*
X165233019Y-96709196D01*
X165199301Y-96686666D01*
X165199299Y-96686665D01*
X165199296Y-96686664D01*
X165125069Y-96671900D01*
X163804936Y-96671900D01*
X163730698Y-96686666D01*
X163646515Y-96742915D01*
X163590266Y-96827099D01*
X163590264Y-96827103D01*
X163575500Y-96901328D01*
X163575500Y-97178342D01*
X163555815Y-97245381D01*
X163503011Y-97291136D01*
X163446372Y-97302236D01*
X163439582Y-97301954D01*
X163403734Y-97306423D01*
X163396058Y-97306900D01*
X163391988Y-97306900D01*
X163368593Y-97310804D01*
X163313236Y-97317704D01*
X163305587Y-97319981D01*
X163298013Y-97322581D01*
X163248959Y-97349128D01*
X163198852Y-97373625D01*
X163192342Y-97378272D01*
X163186035Y-97383181D01*
X163148258Y-97424219D01*
X162327309Y-98245166D01*
X162307454Y-98261291D01*
X162298045Y-98267438D01*
X162298041Y-98267442D01*
X162275856Y-98295944D01*
X162270778Y-98301696D01*
X162267898Y-98304577D01*
X162267884Y-98304593D01*
X162254098Y-98323901D01*
X162219843Y-98367912D01*
X162216035Y-98374947D01*
X162212524Y-98382131D01*
X162196609Y-98435586D01*
X162178499Y-98488340D01*
X162177185Y-98496214D01*
X162176194Y-98504162D01*
X162178500Y-98559883D01*
X162178500Y-101600000D01*
X161366200Y-101600000D01*
X161329881Y-101563681D01*
X161331309Y-101562252D01*
X161301206Y-101527511D01*
X161290000Y-101476000D01*
X161290000Y-97950188D01*
X161290299Y-97944105D01*
X161290497Y-97942077D01*
X161290500Y-97942067D01*
X161290499Y-96679499D01*
X161310184Y-96612461D01*
X161362987Y-96566706D01*
X161414499Y-96555500D01*
X161698439Y-96555500D01*
X161723884Y-96558139D01*
X161727827Y-96558965D01*
X161734883Y-96560445D01*
X161753442Y-96558131D01*
X161770732Y-96555977D01*
X161778408Y-96555500D01*
X161782474Y-96555500D01*
X161782477Y-96555500D01*
X161805870Y-96551596D01*
X161861226Y-96544696D01*
X161868879Y-96542416D01*
X161876448Y-96539818D01*
X161876452Y-96539818D01*
X161925507Y-96513270D01*
X161975612Y-96488776D01*
X161975613Y-96488774D01*
X161982129Y-96484122D01*
X161988424Y-96479223D01*
X161988425Y-96479221D01*
X161988428Y-96479220D01*
X162026207Y-96438180D01*
X162187468Y-96276918D01*
X162248791Y-96243434D01*
X162275149Y-96240600D01*
X170056000Y-96240600D01*
X170123039Y-96260285D01*
G37*
%TD.AperFunction*%
%TA.AperFunction,NonConductor*%
G36*
X152781000Y-122148100D02*
G01*
X118268584Y-122148100D01*
X118201545Y-122128415D01*
X118180908Y-122111785D01*
X118070617Y-122001494D01*
X118037134Y-121940173D01*
X118034300Y-121913815D01*
X118034300Y-121869200D01*
X118386939Y-121869200D01*
X152781000Y-121869200D01*
X152781000Y-122148100D01*
G37*
%TD.AperFunction*%
%TA.AperFunction,NonConductor*%
G36*
X117271300Y-122070772D02*
G01*
X117268661Y-122096220D01*
X117266354Y-122107217D01*
X117270823Y-122143065D01*
X117271300Y-122150741D01*
X117271300Y-122154811D01*
X117274227Y-122172355D01*
X117275203Y-122178205D01*
X117282104Y-122233561D01*
X117284380Y-122241209D01*
X117286981Y-122248785D01*
X117313529Y-122297841D01*
X117338024Y-122347947D01*
X117342669Y-122354453D01*
X117347581Y-122360764D01*
X117388619Y-122398541D01*
X117752362Y-122762284D01*
X117768489Y-122782143D01*
X117774636Y-122791552D01*
X117774638Y-122791554D01*
X117774639Y-122791555D01*
X117774640Y-122791556D01*
X117803156Y-122813750D01*
X117808908Y-122818830D01*
X117811791Y-122821713D01*
X117831089Y-122835491D01*
X117875115Y-122869758D01*
X117875117Y-122869758D01*
X117882139Y-122873559D01*
X117889325Y-122877071D01*
X117889330Y-122877075D01*
X117942789Y-122892990D01*
X117995539Y-122911100D01*
X117995540Y-122911100D01*
X118003422Y-122912415D01*
X118011357Y-122913404D01*
X118011358Y-122913405D01*
X118011358Y-122913404D01*
X118011359Y-122913405D01*
X118039220Y-122912252D01*
X118067084Y-122911100D01*
X152781000Y-122911100D01*
X152781000Y-123316500D01*
X117709784Y-123316500D01*
X117642745Y-123296815D01*
X117622103Y-123280181D01*
X116927619Y-122585696D01*
X116894134Y-122524373D01*
X116891300Y-122498015D01*
X116891300Y-121869200D01*
X117271300Y-121869200D01*
X117271300Y-122070772D01*
G37*
%TD.AperFunction*%
%TA.AperFunction,NonConductor*%
G36*
X116128300Y-122654972D02*
G01*
X116125661Y-122680420D01*
X116123354Y-122691417D01*
X116127823Y-122727265D01*
X116128300Y-122734941D01*
X116128300Y-122739011D01*
X116131227Y-122756555D01*
X116132203Y-122762405D01*
X116139104Y-122817761D01*
X116141380Y-122825409D01*
X116143981Y-122832985D01*
X116170529Y-122882041D01*
X116195024Y-122932147D01*
X116199669Y-122938653D01*
X116204582Y-122944964D01*
X116245619Y-122982742D01*
X117193565Y-123930688D01*
X117209693Y-123950548D01*
X117215838Y-123959954D01*
X117215839Y-123959955D01*
X117215840Y-123959956D01*
X117244344Y-123982141D01*
X117250101Y-123987224D01*
X117252991Y-123990114D01*
X117272300Y-124003900D01*
X117316315Y-124038158D01*
X117316322Y-124038160D01*
X117323352Y-124041965D01*
X117330525Y-124045471D01*
X117330530Y-124045475D01*
X117366167Y-124056084D01*
X117383985Y-124061389D01*
X117410362Y-124070444D01*
X117436739Y-124079500D01*
X117436740Y-124079500D01*
X117444619Y-124080815D01*
X117452558Y-124081804D01*
X117452559Y-124081805D01*
X117452559Y-124081804D01*
X117452560Y-124081805D01*
X117480421Y-124080652D01*
X117508284Y-124079500D01*
X152781000Y-124079500D01*
X152781000Y-124663200D01*
X152806400Y-124688600D01*
X134517741Y-124688600D01*
X134450702Y-124668915D01*
X134446618Y-124666175D01*
X134286010Y-124553716D01*
X134286006Y-124553714D01*
X134286004Y-124553713D01*
X134094595Y-124464458D01*
X134094591Y-124464457D01*
X134094587Y-124464455D01*
X133890599Y-124409797D01*
X133890595Y-124409796D01*
X133890594Y-124409796D01*
X133890593Y-124409795D01*
X133890588Y-124409795D01*
X133680202Y-124391389D01*
X133680198Y-124391389D01*
X133469811Y-124409795D01*
X133469800Y-124409797D01*
X133265812Y-124464455D01*
X133265803Y-124464459D01*
X133074396Y-124553713D01*
X133074394Y-124553714D01*
X132913783Y-124666175D01*
X132847577Y-124688502D01*
X132842660Y-124688600D01*
X129971141Y-124688600D01*
X129904102Y-124668915D01*
X129900018Y-124666175D01*
X129739410Y-124553716D01*
X129739406Y-124553714D01*
X129739404Y-124553713D01*
X129547995Y-124464458D01*
X129547991Y-124464457D01*
X129547987Y-124464455D01*
X129343999Y-124409797D01*
X129343995Y-124409796D01*
X129343994Y-124409796D01*
X129343993Y-124409795D01*
X129343988Y-124409795D01*
X129133602Y-124391389D01*
X129133598Y-124391389D01*
X128923211Y-124409795D01*
X128923200Y-124409797D01*
X128719212Y-124464455D01*
X128719203Y-124464459D01*
X128527796Y-124553713D01*
X128527794Y-124553714D01*
X128367183Y-124666175D01*
X128300977Y-124688502D01*
X128296060Y-124688600D01*
X115897200Y-124688600D01*
X115830161Y-124668915D01*
X115784406Y-124616111D01*
X115773200Y-124564600D01*
X115773200Y-121869200D01*
X116128300Y-121869200D01*
X116128300Y-122654972D01*
G37*
%TD.AperFunction*%
%TA.AperFunction,NonConductor*%
G36*
X162178500Y-114776414D02*
G01*
X162158815Y-114843453D01*
X162142181Y-114864095D01*
X154894496Y-122111781D01*
X154833173Y-122145266D01*
X154806815Y-122148100D01*
X152781000Y-122148100D01*
X152781000Y-121869200D01*
X154178000Y-121869200D01*
X157972383Y-118074816D01*
X158033704Y-118041333D01*
X158044725Y-118039451D01*
X158046378Y-118039244D01*
X158046379Y-118039245D01*
X158051347Y-118038625D01*
X158082229Y-118034777D01*
X158089905Y-118034300D01*
X158093970Y-118034300D01*
X158093973Y-118034300D01*
X158117366Y-118030396D01*
X158172722Y-118023496D01*
X158180375Y-118021216D01*
X158187944Y-118018618D01*
X158187948Y-118018618D01*
X158237003Y-117992070D01*
X158287108Y-117967576D01*
X158287109Y-117967574D01*
X158293625Y-117962922D01*
X158299920Y-117958023D01*
X158299921Y-117958021D01*
X158299924Y-117958020D01*
X158337703Y-117916980D01*
X159481093Y-116773590D01*
X159500942Y-116757471D01*
X159510356Y-116751322D01*
X159532555Y-116722798D01*
X159537626Y-116717058D01*
X159540514Y-116714171D01*
X159554300Y-116694861D01*
X159588558Y-116650847D01*
X159588559Y-116650841D01*
X159592357Y-116643826D01*
X159595868Y-116636640D01*
X159595875Y-116636632D01*
X159605657Y-116603771D01*
X159611790Y-116583175D01*
X159620711Y-116557186D01*
X159629900Y-116530423D01*
X159629900Y-116530420D01*
X159631215Y-116522542D01*
X159632205Y-116514602D01*
X159630496Y-116473297D01*
X159647392Y-116405501D01*
X159666705Y-116380494D01*
X161366200Y-114681000D01*
X161366200Y-112379253D01*
X161380841Y-112320802D01*
X161471667Y-112150880D01*
X161529792Y-111959269D01*
X161549418Y-111760000D01*
X161529792Y-111560731D01*
X161471667Y-111369120D01*
X161426100Y-111283870D01*
X161380842Y-111199197D01*
X161366200Y-111140744D01*
X161366200Y-109839254D01*
X161380841Y-109780802D01*
X161471667Y-109610880D01*
X161529792Y-109419269D01*
X161549418Y-109220000D01*
X161529792Y-109020731D01*
X161471667Y-108829120D01*
X161426100Y-108743870D01*
X161380842Y-108659197D01*
X161366200Y-108600744D01*
X161366200Y-101600000D01*
X162178500Y-101600000D01*
X162178500Y-114776414D01*
G37*
%TD.AperFunction*%
%TA.AperFunction,NonConductor*%
G36*
X163194500Y-115513015D02*
G01*
X163174815Y-115580054D01*
X163158181Y-115600696D01*
X155478696Y-123280181D01*
X155417373Y-123313666D01*
X155391015Y-123316500D01*
X152781000Y-123316500D01*
X152781000Y-122911100D01*
X154963773Y-122911100D01*
X154989218Y-122913739D01*
X154993161Y-122914565D01*
X155000217Y-122916045D01*
X155018776Y-122913731D01*
X155036066Y-122911577D01*
X155043742Y-122911100D01*
X155047808Y-122911100D01*
X155047811Y-122911100D01*
X155071204Y-122907196D01*
X155126560Y-122900296D01*
X155134213Y-122898016D01*
X155141782Y-122895418D01*
X155141786Y-122895418D01*
X155190841Y-122868870D01*
X155240946Y-122844376D01*
X155240947Y-122844374D01*
X155247463Y-122839722D01*
X155253758Y-122834823D01*
X155253759Y-122834821D01*
X155253762Y-122834820D01*
X155291541Y-122793780D01*
X162792689Y-115292631D01*
X162812539Y-115276511D01*
X162821956Y-115270360D01*
X162844159Y-115241831D01*
X162849230Y-115236091D01*
X162852113Y-115233209D01*
X162865891Y-115213910D01*
X162900158Y-115169885D01*
X162900159Y-115169879D01*
X162903956Y-115162866D01*
X162907471Y-115155674D01*
X162907475Y-115155670D01*
X162913414Y-115135717D01*
X162923391Y-115102210D01*
X162932311Y-115076223D01*
X162941500Y-115049461D01*
X162941500Y-115049458D01*
X162942815Y-115041577D01*
X162943805Y-115033640D01*
X162941500Y-114977917D01*
X162941500Y-101600000D01*
X163194500Y-101600000D01*
X163194500Y-115513015D01*
G37*
%TD.AperFunction*%
%TA.AperFunction,NonConductor*%
G36*
X164541200Y-115975838D02*
G01*
X164521515Y-116042877D01*
X164504881Y-116063519D01*
X155916119Y-124652281D01*
X155854796Y-124685766D01*
X155828438Y-124688600D01*
X152806400Y-124688600D01*
X152781000Y-124663200D01*
X152781000Y-124079500D01*
X155547973Y-124079500D01*
X155573418Y-124082139D01*
X155577361Y-124082965D01*
X155584417Y-124084445D01*
X155602976Y-124082131D01*
X155620266Y-124079977D01*
X155627942Y-124079500D01*
X155632008Y-124079500D01*
X155632011Y-124079500D01*
X155655404Y-124075596D01*
X155710760Y-124068696D01*
X155718413Y-124066416D01*
X155725982Y-124063818D01*
X155725986Y-124063818D01*
X155775041Y-124037270D01*
X155825146Y-124012776D01*
X155825147Y-124012774D01*
X155831663Y-124008122D01*
X155837958Y-124003223D01*
X155837959Y-124003221D01*
X155837962Y-124003220D01*
X155875741Y-123962180D01*
X163808693Y-116029228D01*
X163828542Y-116013109D01*
X163837956Y-116006960D01*
X163860155Y-115978436D01*
X163865226Y-115972696D01*
X163868114Y-115969809D01*
X163881898Y-115950501D01*
X163916158Y-115906485D01*
X163916159Y-115906481D01*
X163919946Y-115899483D01*
X163923471Y-115892273D01*
X163923475Y-115892269D01*
X163939388Y-115838817D01*
X163957500Y-115786061D01*
X163957500Y-115786057D01*
X163957501Y-115786055D01*
X163958815Y-115778180D01*
X163959805Y-115770239D01*
X163957500Y-115714516D01*
X163957500Y-101600000D01*
X164541200Y-101600000D01*
X164541200Y-115975838D01*
G37*
%TD.AperFunction*%
%TA.AperFunction,Conductor*%
%TO.N,GNDPWR*%
G36*
X96697187Y-79013685D02*
G01*
X96742942Y-79066489D01*
X96752886Y-79135647D01*
X96752402Y-79138732D01*
X96725098Y-79299432D01*
X96705724Y-79413458D01*
X96705722Y-79413470D01*
X96686487Y-79755999D01*
X96705722Y-80098529D01*
X96705724Y-80098541D01*
X96763189Y-80436757D01*
X96763191Y-80436766D01*
X96858163Y-80766421D01*
X96989453Y-81083384D01*
X97155408Y-81383657D01*
X97155411Y-81383662D01*
X97353929Y-81663445D01*
X97353933Y-81663450D01*
X97582539Y-81919261D01*
X97838350Y-82147867D01*
X97838353Y-82147869D01*
X97838354Y-82147870D01*
X98118137Y-82346388D01*
X98118142Y-82346391D01*
X98118145Y-82346392D01*
X98118147Y-82346394D01*
X98418414Y-82512346D01*
X98735373Y-82643635D01*
X99065039Y-82738610D01*
X99403266Y-82796077D01*
X99745800Y-82815313D01*
X100088334Y-82796077D01*
X100426561Y-82738610D01*
X100756227Y-82643635D01*
X101073186Y-82512346D01*
X101373453Y-82346394D01*
X101373458Y-82346390D01*
X101373462Y-82346388D01*
X101489101Y-82264336D01*
X101653250Y-82147867D01*
X101909061Y-81919261D01*
X102137667Y-81663450D01*
X102336194Y-81383653D01*
X102502146Y-81083386D01*
X102633435Y-80766427D01*
X102728410Y-80436761D01*
X102785877Y-80098534D01*
X102805113Y-79756000D01*
X102785877Y-79413466D01*
X102739204Y-79138769D01*
X102747381Y-79069381D01*
X102791774Y-79015428D01*
X102858290Y-78994040D01*
X102861452Y-78994000D01*
X105815586Y-78994000D01*
X105882625Y-79013685D01*
X105928380Y-79066489D01*
X105931524Y-79074020D01*
X105969213Y-79173395D01*
X106059502Y-79304201D01*
X106059504Y-79304203D01*
X106059506Y-79304205D01*
X106178469Y-79409598D01*
X106178471Y-79409599D01*
X106319207Y-79483463D01*
X106396367Y-79502481D01*
X106473528Y-79521500D01*
X106473529Y-79521500D01*
X106632472Y-79521500D01*
X106683911Y-79508821D01*
X106786793Y-79483463D01*
X106927529Y-79409599D01*
X107046498Y-79304201D01*
X107136787Y-79173395D01*
X107174472Y-79074027D01*
X107216651Y-79018326D01*
X107282248Y-78994269D01*
X107290414Y-78994000D01*
X108635065Y-78994000D01*
X108653958Y-78995566D01*
X108653963Y-78995534D01*
X108654741Y-78995631D01*
X108655477Y-78995692D01*
X108656204Y-78995813D01*
X108664157Y-78996804D01*
X108664159Y-78996805D01*
X108664160Y-78996804D01*
X108664161Y-78996805D01*
X108719895Y-78994500D01*
X115446000Y-78994500D01*
X115513039Y-79014185D01*
X115558794Y-79066989D01*
X115570000Y-79118500D01*
X115570000Y-99750872D01*
X115555875Y-99808347D01*
X115543897Y-99831244D01*
X115524211Y-99898282D01*
X115513756Y-99971007D01*
X115513700Y-99971396D01*
X115513700Y-100025474D01*
X115514444Y-100039355D01*
X115514445Y-100039363D01*
X115518020Y-100072615D01*
X115518020Y-100072619D01*
X115548272Y-100169230D01*
X115548275Y-100169239D01*
X115554833Y-100181248D01*
X115570000Y-100240674D01*
X115570000Y-101227758D01*
X115555875Y-101285233D01*
X115543898Y-101308129D01*
X115543895Y-101308134D01*
X115524213Y-101375166D01*
X115524210Y-101375178D01*
X115513700Y-101448282D01*
X115513700Y-121542000D01*
X115494015Y-121609039D01*
X115441211Y-121654794D01*
X115389700Y-121666000D01*
X107403451Y-121666000D01*
X107336412Y-121646315D01*
X107290657Y-121593511D01*
X107287509Y-121585972D01*
X107270832Y-121542000D01*
X107263287Y-121522105D01*
X107262682Y-121521229D01*
X107172999Y-121391301D01*
X107172998Y-121391299D01*
X107172995Y-121391296D01*
X107172993Y-121391294D01*
X107054030Y-121285901D01*
X106913291Y-121212036D01*
X106758972Y-121174000D01*
X106758971Y-121174000D01*
X106600029Y-121174000D01*
X106600028Y-121174000D01*
X106445708Y-121212036D01*
X106304969Y-121285901D01*
X106186006Y-121391294D01*
X106186000Y-121391301D01*
X106095713Y-121522103D01*
X106071491Y-121585972D01*
X106029312Y-121641674D01*
X105963714Y-121665731D01*
X105955549Y-121666000D01*
X102883031Y-121666000D01*
X102815992Y-121646315D01*
X102770237Y-121593511D01*
X102760293Y-121524353D01*
X102760783Y-121521229D01*
X102782858Y-121391301D01*
X102785877Y-121373534D01*
X102805113Y-121031000D01*
X102785877Y-120688466D01*
X102728410Y-120350239D01*
X102633435Y-120020573D01*
X102502146Y-119703614D01*
X102336194Y-119403347D01*
X102336192Y-119403345D01*
X102336191Y-119403342D01*
X102336188Y-119403337D01*
X102137670Y-119123554D01*
X102137669Y-119123553D01*
X102137667Y-119123550D01*
X101909061Y-118867739D01*
X101653250Y-118639133D01*
X101653247Y-118639131D01*
X101653245Y-118639129D01*
X101373462Y-118440611D01*
X101373457Y-118440608D01*
X101073184Y-118274653D01*
X100990393Y-118240360D01*
X100756227Y-118143365D01*
X100756223Y-118143363D01*
X100756221Y-118143363D01*
X100426566Y-118048391D01*
X100426557Y-118048389D01*
X100088341Y-117990924D01*
X100088329Y-117990922D01*
X99745800Y-117971687D01*
X99403270Y-117990922D01*
X99403258Y-117990924D01*
X99065042Y-118048389D01*
X99065033Y-118048391D01*
X98735378Y-118143363D01*
X98418415Y-118274653D01*
X98118142Y-118440608D01*
X98118137Y-118440611D01*
X97838354Y-118639129D01*
X97582539Y-118867739D01*
X97353929Y-119123554D01*
X97155411Y-119403337D01*
X97155408Y-119403342D01*
X96989453Y-119703615D01*
X96858163Y-120020578D01*
X96763191Y-120350233D01*
X96763189Y-120350242D01*
X96705724Y-120688458D01*
X96705722Y-120688470D01*
X96686487Y-121030999D01*
X96705722Y-121373529D01*
X96705724Y-121373541D01*
X96730817Y-121521229D01*
X96722640Y-121590619D01*
X96678246Y-121644572D01*
X96611731Y-121665960D01*
X96608569Y-121666000D01*
X93596000Y-121666000D01*
X93528961Y-121646315D01*
X93483206Y-121593511D01*
X93472000Y-121542000D01*
X93472000Y-103759000D01*
X106020693Y-103759000D01*
X106039850Y-103916781D01*
X106080427Y-104023773D01*
X106096213Y-104065395D01*
X106186502Y-104196201D01*
X106186504Y-104196203D01*
X106186506Y-104196205D01*
X106305469Y-104301598D01*
X106305471Y-104301599D01*
X106446207Y-104375463D01*
X106523367Y-104394481D01*
X106600528Y-104413500D01*
X106600529Y-104413500D01*
X106759472Y-104413500D01*
X106810911Y-104400820D01*
X106913793Y-104375463D01*
X107054529Y-104301599D01*
X107173498Y-104196201D01*
X107263787Y-104065395D01*
X107320149Y-103916782D01*
X107339307Y-103759000D01*
X107320149Y-103601218D01*
X107263787Y-103452605D01*
X107173498Y-103321799D01*
X107173495Y-103321796D01*
X107173493Y-103321794D01*
X107054530Y-103216401D01*
X106913791Y-103142536D01*
X106759472Y-103104500D01*
X106759471Y-103104500D01*
X106600529Y-103104500D01*
X106600528Y-103104500D01*
X106446208Y-103142536D01*
X106305469Y-103216401D01*
X106186506Y-103321794D01*
X106186500Y-103321801D01*
X106096214Y-103452602D01*
X106039850Y-103601218D01*
X106020693Y-103758999D01*
X106020693Y-103759000D01*
X93472000Y-103759000D01*
X93472000Y-100258003D01*
X94526408Y-100258003D01*
X94546758Y-100607392D01*
X94546759Y-100607403D01*
X94607528Y-100952042D01*
X94607530Y-100952051D01*
X94607532Y-100952060D01*
X94658728Y-101123066D01*
X94707909Y-101287342D01*
X94846526Y-101608693D01*
X94846532Y-101608706D01*
X95021523Y-101911799D01*
X95230515Y-102192524D01*
X95230520Y-102192530D01*
X95354560Y-102324004D01*
X95470693Y-102447098D01*
X95470699Y-102447103D01*
X95470701Y-102447105D01*
X95738788Y-102672058D01*
X95738791Y-102672060D01*
X95738796Y-102672064D01*
X96031204Y-102864383D01*
X96333367Y-103016135D01*
X96343954Y-103021452D01*
X96343955Y-103021453D01*
X96343958Y-103021454D01*
X96343962Y-103021456D01*
X96672839Y-103141158D01*
X96853596Y-103183998D01*
X97013374Y-103221867D01*
X97013381Y-103221868D01*
X97013390Y-103221870D01*
X97361008Y-103262500D01*
X97361015Y-103262500D01*
X97710985Y-103262500D01*
X97710992Y-103262500D01*
X98058610Y-103221870D01*
X98058619Y-103221867D01*
X98058625Y-103221867D01*
X98170593Y-103195329D01*
X98399161Y-103141158D01*
X98728038Y-103021456D01*
X99040796Y-102864383D01*
X99333204Y-102672064D01*
X99601307Y-102447098D01*
X99841481Y-102192528D01*
X100050477Y-101911798D01*
X100225470Y-101608702D01*
X100364091Y-101287341D01*
X100464468Y-100952060D01*
X100525242Y-100607392D01*
X100545592Y-100258000D01*
X100525242Y-99908608D01*
X100464468Y-99563940D01*
X100364091Y-99228659D01*
X100225470Y-98907298D01*
X100050477Y-98604202D01*
X100050476Y-98604200D01*
X99841484Y-98323475D01*
X99841479Y-98323469D01*
X99725348Y-98200378D01*
X99601307Y-98068902D01*
X99601300Y-98068896D01*
X99601298Y-98068894D01*
X99333211Y-97843941D01*
X99333206Y-97843937D01*
X99333204Y-97843936D01*
X99040796Y-97651617D01*
X99035498Y-97648956D01*
X98728045Y-97494547D01*
X98728044Y-97494546D01*
X98399167Y-97374844D01*
X98399165Y-97374843D01*
X98399161Y-97374842D01*
X98372315Y-97368479D01*
X98058625Y-97294132D01*
X98058610Y-97294130D01*
X97710992Y-97253500D01*
X97361008Y-97253500D01*
X97056842Y-97289051D01*
X97013389Y-97294130D01*
X97013374Y-97294132D01*
X96672847Y-97374840D01*
X96672839Y-97374842D01*
X96672837Y-97374842D01*
X96672832Y-97374844D01*
X96343955Y-97494546D01*
X96343954Y-97494547D01*
X96031207Y-97651615D01*
X95738788Y-97843941D01*
X95470701Y-98068894D01*
X95470691Y-98068904D01*
X95230520Y-98323469D01*
X95230515Y-98323475D01*
X95021523Y-98604200D01*
X94846532Y-98907293D01*
X94846526Y-98907306D01*
X94707909Y-99228657D01*
X94607530Y-99563948D01*
X94607528Y-99563957D01*
X94546759Y-99908596D01*
X94546758Y-99908607D01*
X94526408Y-100257996D01*
X94526408Y-100258003D01*
X93472000Y-100258003D01*
X93472000Y-96901000D01*
X106020693Y-96901000D01*
X106039850Y-97058781D01*
X106080427Y-97165773D01*
X106096213Y-97207395D01*
X106186502Y-97338201D01*
X106186504Y-97338203D01*
X106186506Y-97338205D01*
X106305469Y-97443598D01*
X106305471Y-97443599D01*
X106446207Y-97517463D01*
X106523367Y-97536481D01*
X106600528Y-97555500D01*
X106600529Y-97555500D01*
X106759472Y-97555500D01*
X106810911Y-97542820D01*
X106913793Y-97517463D01*
X107054529Y-97443599D01*
X107173498Y-97338201D01*
X107263787Y-97207395D01*
X107320149Y-97058782D01*
X107339307Y-96901000D01*
X107320149Y-96743218D01*
X107263787Y-96594605D01*
X107173498Y-96463799D01*
X107173495Y-96463796D01*
X107173493Y-96463794D01*
X107054530Y-96358401D01*
X106913791Y-96284536D01*
X106759472Y-96246500D01*
X106759471Y-96246500D01*
X106600529Y-96246500D01*
X106600528Y-96246500D01*
X106446208Y-96284536D01*
X106305469Y-96358401D01*
X106186506Y-96463794D01*
X106186500Y-96463801D01*
X106096214Y-96594602D01*
X106039850Y-96743218D01*
X106020693Y-96900999D01*
X106020693Y-96901000D01*
X93472000Y-96901000D01*
X93472000Y-79118000D01*
X93491685Y-79050961D01*
X93544489Y-79005206D01*
X93596000Y-78994000D01*
X96630148Y-78994000D01*
X96697187Y-79013685D01*
G37*
%TD.AperFunction*%
%TD*%
%TA.AperFunction,Conductor*%
%TO.N,GND1*%
G36*
X140151039Y-79013685D02*
G01*
X140196794Y-79066489D01*
X140208000Y-79118000D01*
X140208000Y-121485700D01*
X140188315Y-121552739D01*
X140135511Y-121598494D01*
X140084000Y-121609700D01*
X118770040Y-121609700D01*
X118703001Y-121590015D01*
X118657246Y-121537211D01*
X118646040Y-121485829D01*
X118625186Y-101467025D01*
X118624705Y-101453745D01*
X118624704Y-101453741D01*
X118620389Y-101432076D01*
X118618000Y-101407852D01*
X118618000Y-100330003D01*
X133134408Y-100330003D01*
X133154758Y-100679392D01*
X133154759Y-100679403D01*
X133215528Y-101024042D01*
X133215530Y-101024051D01*
X133215532Y-101024060D01*
X133283924Y-101252503D01*
X133315909Y-101359342D01*
X133454526Y-101680693D01*
X133454532Y-101680706D01*
X133629523Y-101983799D01*
X133838515Y-102264524D01*
X133838520Y-102264530D01*
X133962560Y-102396004D01*
X134078693Y-102519098D01*
X134078699Y-102519103D01*
X134078701Y-102519105D01*
X134346788Y-102744058D01*
X134346791Y-102744060D01*
X134346796Y-102744064D01*
X134639204Y-102936383D01*
X134941367Y-103088135D01*
X134951954Y-103093452D01*
X134951955Y-103093453D01*
X134951958Y-103093454D01*
X134951962Y-103093456D01*
X135280839Y-103213158D01*
X135461596Y-103255998D01*
X135621374Y-103293867D01*
X135621381Y-103293868D01*
X135621390Y-103293870D01*
X135969008Y-103334500D01*
X135969015Y-103334500D01*
X136318985Y-103334500D01*
X136318992Y-103334500D01*
X136666610Y-103293870D01*
X136666619Y-103293867D01*
X136666625Y-103293867D01*
X136778593Y-103267329D01*
X137007161Y-103213158D01*
X137336038Y-103093456D01*
X137648796Y-102936383D01*
X137941204Y-102744064D01*
X138209307Y-102519098D01*
X138449481Y-102264528D01*
X138658477Y-101983798D01*
X138833470Y-101680702D01*
X138972091Y-101359341D01*
X139072468Y-101024060D01*
X139133242Y-100679392D01*
X139153592Y-100330000D01*
X139133242Y-99980608D01*
X139131549Y-99971009D01*
X139072471Y-99635957D01*
X139072469Y-99635948D01*
X139072468Y-99635940D01*
X138972091Y-99300659D01*
X138833470Y-98979298D01*
X138658477Y-98676202D01*
X138658476Y-98676200D01*
X138449484Y-98395475D01*
X138449479Y-98395469D01*
X138333348Y-98272378D01*
X138209307Y-98140902D01*
X138209300Y-98140896D01*
X138209298Y-98140894D01*
X137941211Y-97915941D01*
X137941206Y-97915937D01*
X137941204Y-97915936D01*
X137648796Y-97723617D01*
X137643498Y-97720956D01*
X137336045Y-97566547D01*
X137336044Y-97566546D01*
X137007167Y-97446844D01*
X137007165Y-97446843D01*
X137007161Y-97446842D01*
X136980315Y-97440479D01*
X136666625Y-97366132D01*
X136666610Y-97366130D01*
X136318992Y-97325500D01*
X135969008Y-97325500D01*
X135664842Y-97361051D01*
X135621389Y-97366130D01*
X135621374Y-97366132D01*
X135280847Y-97446840D01*
X135280839Y-97446842D01*
X135280837Y-97446842D01*
X135280832Y-97446844D01*
X134951955Y-97566546D01*
X134951954Y-97566547D01*
X134639207Y-97723615D01*
X134346788Y-97915941D01*
X134078701Y-98140894D01*
X134078691Y-98140904D01*
X133838520Y-98395469D01*
X133838515Y-98395475D01*
X133629523Y-98676200D01*
X133454532Y-98979293D01*
X133454526Y-98979306D01*
X133315909Y-99300657D01*
X133255431Y-99502665D01*
X133229915Y-99587900D01*
X133215530Y-99635948D01*
X133215528Y-99635957D01*
X133154759Y-99980596D01*
X133154758Y-99980607D01*
X133134408Y-100329996D01*
X133134408Y-100330003D01*
X118618000Y-100330003D01*
X118618000Y-100092077D01*
X118619244Y-100074554D01*
X118619521Y-100072614D01*
X118623703Y-100043316D01*
X118623629Y-99971007D01*
X118618359Y-99922345D01*
X118618000Y-99915694D01*
X118618000Y-79118499D01*
X118637685Y-79051461D01*
X118690489Y-79005706D01*
X118742000Y-78994500D01*
X131773573Y-78994500D01*
X131799018Y-78997139D01*
X131802961Y-78997965D01*
X131810017Y-78999445D01*
X131828576Y-78997131D01*
X131845866Y-78994977D01*
X131853542Y-78994500D01*
X131857612Y-78994500D01*
X131861091Y-78994212D01*
X131866212Y-78994000D01*
X140084000Y-78994000D01*
X140151039Y-79013685D01*
G37*
%TD.AperFunction*%
%TD*%
%TA.AperFunction,Conductor*%
%TO.N,/Vin*%
G36*
X143576803Y-86120202D02*
G01*
X143708007Y-86189063D01*
X143708009Y-86189063D01*
X143708010Y-86189064D01*
X143862328Y-86227100D01*
X143862329Y-86227100D01*
X144021272Y-86227100D01*
X144175589Y-86189064D01*
X144175589Y-86189063D01*
X144175593Y-86189063D01*
X144306796Y-86120202D01*
X144364419Y-86106000D01*
X147577000Y-86106000D01*
X147644039Y-86125685D01*
X147689794Y-86178489D01*
X147701000Y-86230000D01*
X147701000Y-98358271D01*
X147697397Y-98387946D01*
X147695850Y-98394219D01*
X147676693Y-98551999D01*
X147676693Y-98552000D01*
X147695850Y-98709782D01*
X147697395Y-98716046D01*
X147701000Y-98745727D01*
X147701000Y-99755271D01*
X147697397Y-99784946D01*
X147695850Y-99791219D01*
X147676693Y-99948999D01*
X147676693Y-99949000D01*
X147695850Y-100106782D01*
X147697395Y-100113046D01*
X147701000Y-100142727D01*
X147701000Y-101025271D01*
X147697397Y-101054946D01*
X147695850Y-101061219D01*
X147676693Y-101218999D01*
X147676693Y-101219000D01*
X147695850Y-101376782D01*
X147697395Y-101383046D01*
X147701000Y-101412727D01*
X147701000Y-102295271D01*
X147697397Y-102324946D01*
X147695850Y-102331219D01*
X147676693Y-102488999D01*
X147676693Y-102489000D01*
X147695850Y-102646782D01*
X147697395Y-102653046D01*
X147701000Y-102682727D01*
X147701000Y-103254000D01*
X147681315Y-103321039D01*
X147628511Y-103366794D01*
X147577000Y-103378000D01*
X145412000Y-103378000D01*
X145344961Y-103358315D01*
X145299206Y-103305511D01*
X145288000Y-103254000D01*
X145288000Y-88900000D01*
X143010490Y-88900000D01*
X142943451Y-88880315D01*
X142922809Y-88863681D01*
X142225519Y-88166390D01*
X142192034Y-88105067D01*
X142189200Y-88078709D01*
X142189200Y-86230000D01*
X142208885Y-86162961D01*
X142261689Y-86117206D01*
X142313200Y-86106000D01*
X143519181Y-86106000D01*
X143576803Y-86120202D01*
G37*
%TD.AperFunction*%
%TD*%
M02*
