  0
SECTION
  2
HEADER
  9
$ANGBASE
  50
0.0
  9
$ANGDIR
  70
1
  9
$MEASUREMENT
  70
1
  0
ENDSEC
  0
SECTION
  2
TABLES
  0
TABLE
  2
LTYPE
  70
4
  0
LTYPE
  5
40F
  2
CONTINUOUS
  70
0
  3
Solid line
  72
65
  73
0
  40
0.0
  0
LTYPE
  5
410
  2
DASHDOT
 70
0
  3
Dash Dot ____ _ ____ _
 72
65
 73
4
 40
2.0
 49
1.25
 49
-0.25
 49
0.25
 49
-0.25
  0
LTYPE
  5
411
  2
DASHED
 70
0
  3
Dashed __ __ __ __ __
 72
65
 73
2
 40
0.75
 49
0.5
 49
-0.25
  0
LTYPE
  5
43B
  2
DOTTED
 70
0
  3
Dotted .  .  .  .
 72
65
 73
2
 40
0.2
 49
0.0
 49
-0.2
  0
ENDTAB
  0
TABLE
  2
STYLE
  70
4
  0
STYLE
  2
KICAD
  70
0
  40
0
  41
1
  42
1
  50
0
  71
0
  3
isocp.shx
  0
STYLE
  2
KICADB
  70
0
  40
0
  41
1
  42
1
  50
0
  71
0
  3
isocp.shx
  0
STYLE
  2
KICADI
  70
0
  40
0
  41
1
  42
1
  50
15
  71
0
  3
isocp.shx
  0
STYLE
  2
KICADBI
  70
0
  40
0
  41
1
  42
1
  50
15
  71
0
  3
isocp.shx
  0
ENDTAB
  0
TABLE
  2
LAYER
  70
1
  0
LAYER
  2
BLACK
  70
0
  62
7
  6
CONTINUOUS
  0
ENDTAB
  0
ENDSEC
  0
SECTION
  2
ENTITIES
0
LINE
8
BLACK
6
CONTINUOUS
10
93.3958
20
-73.3806
11
222.936
21
-73.3806
0
LINE
8
BLACK
6
CONTINUOUS
10
222.936
20
-73.3806
11
222.936
21
-127.356
0
LINE
8
BLACK
6
CONTINUOUS
10
222.936
20
-127.356
11
93.3958
21
-127.356
0
LINE
8
BLACK
6
CONTINUOUS
10
93.3958
20
-127.356
11
93.3958
21
-73.3806
0
LINE
8
BLACK
6
CONTINUOUS
10
95.9536
20
-130.52
11
95.9536
21
-128.52
0
LINE
8
BLACK
6
CONTINUOUS
10
95.9536
20
-128.52
11
96.4298
21
-128.52
0
LINE
8
BLACK
6
CONTINUOUS
10
96.4298
20
-128.52
11
96.7155
21
-128.616
0
LINE
8
BLACK
6
CONTINUOUS
10
96.7155
20
-128.616
11
96.9059
21
-128.806
0
LINE
8
BLACK
6
CONTINUOUS
10
96.9059
20
-128.806
11
97.0012
21
-128.997
0
LINE
8
BLACK
6
CONTINUOUS
10
97.0012
20
-128.997
11
97.0964
21
-129.378
0
LINE
8
BLACK
6
CONTINUOUS
10
97.0964
20
-129.378
11
97.0964
21
-129.663
0
LINE
8
BLACK
6
CONTINUOUS
10
97.0964
20
-129.663
11
97.0012
21
-130.044
0
LINE
8
BLACK
6
CONTINUOUS
10
97.0012
20
-130.044
11
96.9059
21
-130.235
0
LINE
8
BLACK
6
CONTINUOUS
10
96.9059
20
-130.235
11
96.7155
21
-130.425
0
LINE
8
BLACK
6
CONTINUOUS
10
96.7155
20
-130.425
11
96.4298
21
-130.52
0
LINE
8
BLACK
6
CONTINUOUS
10
96.4298
20
-130.52
11
95.9536
21
-130.52
0
LINE
8
BLACK
6
CONTINUOUS
10
97.9536
20
-130.52
11
97.9536
21
-129.187
0
LINE
8
BLACK
6
CONTINUOUS
10
97.9536
20
-129.568
11
98.0488
21
-129.378
0
LINE
8
BLACK
6
CONTINUOUS
10
98.0488
20
-129.378
11
98.144
21
-129.282
0
LINE
8
BLACK
6
CONTINUOUS
10
98.144
20
-129.282
11
98.3345
21
-129.187
0
LINE
8
BLACK
6
CONTINUOUS
10
98.3345
20
-129.187
11
98.525
21
-129.187
0
LINE
8
BLACK
6
CONTINUOUS
10
99.1917
20
-130.52
11
99.1917
21
-129.187
0
LINE
8
BLACK
6
CONTINUOUS
10
99.1917
20
-128.52
11
99.0964
21
-128.616
0
LINE
8
BLACK
6
CONTINUOUS
10
99.0964
20
-128.616
11
99.1917
21
-128.711
0
LINE
8
BLACK
6
CONTINUOUS
10
99.1917
20
-128.711
11
99.2869
21
-128.616
0
LINE
8
BLACK
6
CONTINUOUS
10
99.2869
20
-128.616
11
99.1917
21
-128.52
0
LINE
8
BLACK
6
CONTINUOUS
10
99.1917
20
-128.52
11
99.1917
21
-128.711
0
LINE
8
BLACK
6
CONTINUOUS
10
100.43
20
-130.52
11
100.239
21
-130.425
0
LINE
8
BLACK
6
CONTINUOUS
10
100.239
20
-130.425
11
100.144
21
-130.235
0
LINE
8
BLACK
6
CONTINUOUS
10
100.144
20
-130.235
11
100.144
21
-128.52
0
LINE
8
BLACK
6
CONTINUOUS
10
101.477
20
-130.52
11
101.287
21
-130.425
0
LINE
8
BLACK
6
CONTINUOUS
10
101.287
20
-130.425
11
101.192
21
-130.235
0
LINE
8
BLACK
6
CONTINUOUS
10
101.192
20
-130.235
11
101.192
21
-128.52
0
LINE
8
BLACK
6
CONTINUOUS
10
103.763
20
-130.52
11
103.763
21
-128.52
0
LINE
8
BLACK
6
CONTINUOUS
10
103.763
20
-128.52
11
104.43
21
-129.949
0
LINE
8
BLACK
6
CONTINUOUS
10
104.43
20
-129.949
11
105.096
21
-128.52
0
LINE
8
BLACK
6
CONTINUOUS
10
105.096
20
-128.52
11
105.096
21
-130.52
0
LINE
8
BLACK
6
CONTINUOUS
10
106.906
20
-130.52
11
106.906
21
-129.473
0
LINE
8
BLACK
6
CONTINUOUS
10
106.906
20
-129.473
11
106.811
21
-129.282
0
LINE
8
BLACK
6
CONTINUOUS
10
106.811
20
-129.282
11
106.62
21
-129.187
0
LINE
8
BLACK
6
CONTINUOUS
10
106.62
20
-129.187
11
106.239
21
-129.187
0
LINE
8
BLACK
6
CONTINUOUS
10
106.239
20
-129.187
11
106.049
21
-129.282
0
LINE
8
BLACK
6
CONTINUOUS
10
106.906
20
-130.425
11
106.715
21
-130.52
0
LINE
8
BLACK
6
CONTINUOUS
10
106.715
20
-130.52
11
106.239
21
-130.52
0
LINE
8
BLACK
6
CONTINUOUS
10
106.239
20
-130.52
11
106.049
21
-130.425
0
LINE
8
BLACK
6
CONTINUOUS
10
106.049
20
-130.425
11
105.954
21
-130.235
0
LINE
8
BLACK
6
CONTINUOUS
10
105.954
20
-130.235
11
105.954
21
-130.044
0
LINE
8
BLACK
6
CONTINUOUS
10
105.954
20
-130.044
11
106.049
21
-129.854
0
LINE
8
BLACK
6
CONTINUOUS
10
106.049
20
-129.854
11
106.239
21
-129.759
0
LINE
8
BLACK
6
CONTINUOUS
10
106.239
20
-129.759
11
106.715
21
-129.759
0
LINE
8
BLACK
6
CONTINUOUS
10
106.715
20
-129.759
11
106.906
21
-129.663
0
LINE
8
BLACK
6
CONTINUOUS
10
107.858
20
-129.187
11
107.858
21
-131.187
0
LINE
8
BLACK
6
CONTINUOUS
10
107.858
20
-129.282
11
108.049
21
-129.187
0
LINE
8
BLACK
6
CONTINUOUS
10
108.049
20
-129.187
11
108.43
21
-129.187
0
LINE
8
BLACK
6
CONTINUOUS
10
108.43
20
-129.187
11
108.62
21
-129.282
0
LINE
8
BLACK
6
CONTINUOUS
10
108.62
20
-129.282
11
108.715
21
-129.378
0
LINE
8
BLACK
6
CONTINUOUS
10
108.715
20
-129.378
11
108.811
21
-129.568
0
LINE
8
BLACK
6
CONTINUOUS
10
108.811
20
-129.568
11
108.811
21
-130.139
0
LINE
8
BLACK
6
CONTINUOUS
10
108.811
20
-130.139
11
108.715
21
-130.33
0
LINE
8
BLACK
6
CONTINUOUS
10
108.715
20
-130.33
11
108.62
21
-130.425
0
LINE
8
BLACK
6
CONTINUOUS
10
108.62
20
-130.425
11
108.43
21
-130.52
0
LINE
8
BLACK
6
CONTINUOUS
10
108.43
20
-130.52
11
108.049
21
-130.52
0
LINE
8
BLACK
6
CONTINUOUS
10
108.049
20
-130.52
11
107.858
21
-130.425
0
LINE
8
BLACK
6
CONTINUOUS
10
109.668
20
-130.33
11
109.763
21
-130.425
0
LINE
8
BLACK
6
CONTINUOUS
10
109.763
20
-130.425
11
109.668
21
-130.52
0
LINE
8
BLACK
6
CONTINUOUS
10
109.668
20
-130.52
11
109.573
21
-130.425
0
LINE
8
BLACK
6
CONTINUOUS
10
109.573
20
-130.425
11
109.668
21
-130.33
0
LINE
8
BLACK
6
CONTINUOUS
10
109.668
20
-130.33
11
109.668
21
-130.52
0
LINE
8
BLACK
6
CONTINUOUS
10
109.668
20
-129.282
11
109.763
21
-129.378
0
LINE
8
BLACK
6
CONTINUOUS
10
109.763
20
-129.378
11
109.668
21
-129.473
0
LINE
8
BLACK
6
CONTINUOUS
10
109.668
20
-129.473
11
109.573
21
-129.378
0
LINE
8
BLACK
6
CONTINUOUS
10
109.573
20
-129.378
11
109.668
21
-129.282
0
LINE
8
BLACK
6
CONTINUOUS
10
109.668
20
-129.282
11
109.668
21
-129.473
  0
ENDSEC
  0
EOF
