%TF.GenerationSoftware,KiCad,Pcbnew,7.0.7*%
%TF.CreationDate,2024-03-21T09:31:29-04:00*%
%TF.ProjectId,BMB,424d422e-6b69-4636-9164-5f7063625858,rev?*%
%TF.SameCoordinates,Original*%
%TF.FileFunction,Paste,Top*%
%TF.FilePolarity,Positive*%
%FSLAX46Y46*%
G04 Gerber Fmt 4.6, Leading zero omitted, Abs format (unit mm)*
G04 Created by KiCad (PCBNEW 7.0.7) date 2024-03-21 09:31:29*
%MOMM*%
%LPD*%
G01*
G04 APERTURE LIST*
G04 Aperture macros list*
%AMRoundRect*
0 Rectangle with rounded corners*
0 $1 Rounding radius*
0 $2 $3 $4 $5 $6 $7 $8 $9 X,Y pos of 4 corners*
0 Add a 4 corners polygon primitive as box body*
4,1,4,$2,$3,$4,$5,$6,$7,$8,$9,$2,$3,0*
0 Add four circle primitives for the rounded corners*
1,1,$1+$1,$2,$3*
1,1,$1+$1,$4,$5*
1,1,$1+$1,$6,$7*
1,1,$1+$1,$8,$9*
0 Add four rect primitives between the rounded corners*
20,1,$1+$1,$2,$3,$4,$5,0*
20,1,$1+$1,$4,$5,$6,$7,0*
20,1,$1+$1,$6,$7,$8,$9,0*
20,1,$1+$1,$8,$9,$2,$3,0*%
%AMOutline4P*
0 Free polygon, 4 corners , with rotation*
0 The origin of the aperture is its center*
0 number of corners: always 4*
0 $1 to $8 corner X, Y*
0 $9 Rotation angle, in degrees counterclockwise*
0 create outline with 4 corners*
4,1,4,$1,$2,$3,$4,$5,$6,$7,$8,$1,$2,$9*%
%AMOutline5P*
0 Free polygon, 5 corners , with rotation*
0 The origin of the aperture is its center*
0 number of corners: always 5*
0 $1 to $10 corner X, Y*
0 $11 Rotation angle, in degrees counterclockwise*
0 create outline with 5 corners*
4,1,5,$1,$2,$3,$4,$5,$6,$7,$8,$9,$10,$1,$2,$11*%
%AMOutline6P*
0 Free polygon, 6 corners , with rotation*
0 The origin of the aperture is its center*
0 number of corners: always 6*
0 $1 to $12 corner X, Y*
0 $13 Rotation angle, in degrees counterclockwise*
0 create outline with 6 corners*
4,1,6,$1,$2,$3,$4,$5,$6,$7,$8,$9,$10,$11,$12,$1,$2,$13*%
%AMOutline7P*
0 Free polygon, 7 corners , with rotation*
0 The origin of the aperture is its center*
0 number of corners: always 7*
0 $1 to $14 corner X, Y*
0 $15 Rotation angle, in degrees counterclockwise*
0 create outline with 7 corners*
4,1,7,$1,$2,$3,$4,$5,$6,$7,$8,$9,$10,$11,$12,$13,$14,$1,$2,$15*%
%AMOutline8P*
0 Free polygon, 8 corners , with rotation*
0 The origin of the aperture is its center*
0 number of corners: always 8*
0 $1 to $16 corner X, Y*
0 $17 Rotation angle, in degrees counterclockwise*
0 create outline with 8 corners*
4,1,8,$1,$2,$3,$4,$5,$6,$7,$8,$9,$10,$11,$12,$13,$14,$15,$16,$1,$2,$17*%
G04 Aperture macros list end*
%ADD10R,1.270000X1.524000*%
%ADD11R,0.635000X0.838200*%
%ADD12R,1.270000X1.905000*%
%ADD13RoundRect,0.407500X-0.415000X-0.407500X0.415000X-0.407500X0.415000X0.407500X-0.415000X0.407500X0*%
%ADD14RoundRect,0.102500X-0.257500X-0.102500X0.257500X-0.102500X0.257500X0.102500X-0.257500X0.102500X0*%
%ADD15R,0.510000X0.585000*%
%ADD16R,0.410000X0.470000*%
%ADD17R,1.041400X0.660400*%
%ADD18R,1.524000X1.270000*%
%ADD19RoundRect,0.150000X0.587500X0.150000X-0.587500X0.150000X-0.587500X-0.150000X0.587500X-0.150000X0*%
%ADD20RoundRect,0.407500X0.415000X0.407500X-0.415000X0.407500X-0.415000X-0.407500X0.415000X-0.407500X0*%
%ADD21RoundRect,0.102500X0.257500X0.102500X-0.257500X0.102500X-0.257500X-0.102500X0.257500X-0.102500X0*%
%ADD22R,0.800100X1.300860*%
%ADD23R,1.300860X0.800100*%
%ADD24RoundRect,0.150000X0.512500X0.150000X-0.512500X0.150000X-0.512500X-0.150000X0.512500X-0.150000X0*%
%ADD25R,0.600000X2.200000*%
%ADD26R,3.450000X2.150000*%
%ADD27Outline5P,-3.810000X1.270000X3.810000X1.270000X3.810000X-1.270000X-3.302000X-1.270000X-3.810000X-0.762000X270.000000*%
%ADD28Outline4P,-1.514475X-0.663575X1.514475X-0.663575X0.371475X0.663575X-0.371475X0.663575X180.000000*%
%ADD29Outline5P,-3.810000X0.762000X-3.302000X1.270000X3.810000X1.270000X3.810000X-1.270000X-3.810000X-1.270000X270.000000*%
G04 APERTURE END LIST*
D10*
%TO.C,D8*%
X217627200Y-86360000D03*
X215341200Y-86360000D03*
%TD*%
%TO.C,C20*%
X99060000Y-75057000D03*
X101346000Y-75057000D03*
%TD*%
%TO.C,C1*%
X149428200Y-87579200D03*
X151714200Y-87579200D03*
%TD*%
%TO.C,C22*%
X117932200Y-123190000D03*
X120218200Y-123190000D03*
%TD*%
%TO.C,C38*%
X142113000Y-116332000D03*
X144399000Y-116332000D03*
%TD*%
D11*
%TO.C,U3*%
X141706600Y-87503000D03*
X139471400Y-87503000D03*
%TD*%
D12*
%TO.C,TH1*%
X108839000Y-100330000D03*
X105537000Y-100330000D03*
%TD*%
D13*
%TO.C,U10*%
X108305600Y-92888200D03*
X108305600Y-94818200D03*
X110250600Y-92888200D03*
X110250600Y-94818200D03*
D14*
X105483100Y-91948200D03*
X105483100Y-93218200D03*
X105483100Y-94488200D03*
X105483100Y-95758200D03*
D15*
X108198100Y-91580700D03*
X108198100Y-96125700D03*
D16*
X111068100Y-91638200D03*
X111068100Y-96068200D03*
%TD*%
D10*
%TO.C,R13*%
X154686000Y-85217000D03*
X156972000Y-85217000D03*
%TD*%
D17*
%TO.C,WAKE1*%
X143213000Y-90085600D03*
X147363000Y-90085600D03*
X143213000Y-92235600D03*
X147363000Y-92235600D03*
%TD*%
D18*
%TO.C,D2*%
X195961000Y-124485400D03*
X195961000Y-122199400D03*
%TD*%
D10*
%TO.C,R31*%
X104902000Y-125857000D03*
X107188000Y-125857000D03*
%TD*%
D18*
%TO.C,C10*%
X158089600Y-104978200D03*
X158089600Y-107264200D03*
%TD*%
%TO.C,D6*%
X201857400Y-124485400D03*
X201857400Y-122199400D03*
%TD*%
%TO.C,R38*%
X170561000Y-123571000D03*
X170561000Y-121285000D03*
%TD*%
D10*
%TO.C,C26*%
X145110200Y-83870800D03*
X147396200Y-83870800D03*
%TD*%
D19*
%TO.C,U12*%
X112395000Y-125410000D03*
X112395000Y-123510000D03*
X110520000Y-124460000D03*
%TD*%
D18*
%TO.C,R49*%
X146812000Y-79121000D03*
X146812000Y-81407000D03*
%TD*%
%TO.C,D5*%
X193014600Y-124485400D03*
X193014600Y-122199400D03*
%TD*%
%TO.C,C17*%
X157861000Y-100838000D03*
X157861000Y-98552000D03*
%TD*%
D17*
%TO.C,MCU_RES1*%
X151526600Y-95132000D03*
X155676600Y-95132000D03*
X151526600Y-97282000D03*
X155676600Y-97282000D03*
%TD*%
D10*
%TO.C,R17*%
X146939000Y-123444000D03*
X149225000Y-123444000D03*
%TD*%
%TO.C,R23*%
X213233000Y-86360000D03*
X210947000Y-86360000D03*
%TD*%
%TO.C,R19*%
X151917400Y-123444000D03*
X154203400Y-123444000D03*
%TD*%
D18*
%TO.C,R45*%
X210693000Y-75819000D03*
X210693000Y-78105000D03*
%TD*%
D10*
%TO.C,R30*%
X103378000Y-74803000D03*
X105664000Y-74803000D03*
%TD*%
%TO.C,R26*%
X145415000Y-77216000D03*
X147701000Y-77216000D03*
%TD*%
D17*
%TO.C,DISP1*%
X151518800Y-90161800D03*
X155668800Y-90161800D03*
X151518800Y-92311800D03*
X155668800Y-92311800D03*
%TD*%
D10*
%TO.C,R24*%
X123952000Y-125730000D03*
X126238000Y-125730000D03*
%TD*%
%TO.C,C23*%
X122021600Y-123164600D03*
X124307600Y-123164600D03*
%TD*%
D20*
%TO.C,U5*%
X117500400Y-94817800D03*
X117500400Y-92887800D03*
X115555400Y-94817800D03*
X115555400Y-92887800D03*
D21*
X120322900Y-95757800D03*
X120322900Y-94487800D03*
X120322900Y-93217800D03*
X120322900Y-91947800D03*
D15*
X117607900Y-96125300D03*
X117607900Y-91580300D03*
D16*
X114737900Y-96067800D03*
X114737900Y-91637800D03*
%TD*%
D18*
%TO.C,C16*%
X157835600Y-109194600D03*
X157835600Y-111480600D03*
%TD*%
D10*
%TO.C,C24*%
X198602600Y-81661000D03*
X200888600Y-81661000D03*
%TD*%
D19*
%TO.C,U11*%
X111760000Y-77150000D03*
X111760000Y-75250000D03*
X109885000Y-76200000D03*
%TD*%
D10*
%TO.C,R10*%
X143510000Y-113919000D03*
X145796000Y-113919000D03*
%TD*%
%TO.C,C15*%
X145034000Y-122707400D03*
X142748000Y-122707400D03*
%TD*%
D13*
%TO.C,U9*%
X108305600Y-105842200D03*
X108305600Y-107772200D03*
X110250600Y-105842200D03*
X110250600Y-107772200D03*
D14*
X105483100Y-104902200D03*
X105483100Y-106172200D03*
X105483100Y-107442200D03*
X105483100Y-108712200D03*
D15*
X108198100Y-104534700D03*
X108198100Y-109079700D03*
D16*
X111068100Y-104592200D03*
X111068100Y-109022200D03*
%TD*%
D22*
%TO.C,Q1*%
X155194000Y-99586860D03*
X154244000Y-102089140D03*
X156144000Y-102089140D03*
%TD*%
D10*
%TO.C,C19*%
X94869000Y-75057000D03*
X97155000Y-75057000D03*
%TD*%
%TO.C,R18*%
X142798800Y-125603000D03*
X145084800Y-125603000D03*
%TD*%
%TO.C,R21*%
X114300000Y-77597000D03*
X116586000Y-77597000D03*
%TD*%
D18*
%TO.C,R11*%
X154940000Y-105283000D03*
X154940000Y-107569000D03*
%TD*%
D10*
%TO.C,R22*%
X140335000Y-77851000D03*
X142621000Y-77851000D03*
%TD*%
D18*
%TO.C,C29*%
X183261000Y-82042000D03*
X183261000Y-84328000D03*
%TD*%
D10*
%TO.C,R36*%
X114300000Y-75057000D03*
X116586000Y-75057000D03*
%TD*%
D23*
%TO.C,Q3*%
X137223120Y-124653000D03*
X139725400Y-125603000D03*
X139725400Y-123703000D03*
%TD*%
D10*
%TO.C,C25*%
X208051400Y-81661000D03*
X205765400Y-81661000D03*
%TD*%
D24*
%TO.C,U1*%
X146679500Y-98994000D03*
X146679500Y-98044000D03*
X146679500Y-97094000D03*
X144404500Y-97094000D03*
X144404500Y-98994000D03*
%TD*%
D10*
%TO.C,R41*%
X168402000Y-123317000D03*
X166116000Y-123317000D03*
%TD*%
D20*
%TO.C,U6*%
X117500400Y-107758500D03*
X117500400Y-105828500D03*
X115555400Y-107758500D03*
X115555400Y-105828500D03*
D21*
X120322900Y-108698500D03*
X120322900Y-107428500D03*
X120322900Y-106158500D03*
X120322900Y-104888500D03*
D15*
X117607900Y-109066000D03*
X117607900Y-104521000D03*
D16*
X114737900Y-109008500D03*
X114737900Y-104578500D03*
%TD*%
D11*
%TO.C,U15*%
X166243000Y-121158000D03*
X168478200Y-121158000D03*
%TD*%
D10*
%TO.C,R34*%
X114833400Y-125780800D03*
X117119400Y-125780800D03*
%TD*%
D18*
%TO.C,C9*%
X210185000Y-115062000D03*
X210185000Y-117348000D03*
%TD*%
D10*
%TO.C,R37*%
X151866600Y-83870800D03*
X149580600Y-83870800D03*
%TD*%
D25*
%TO.C,U21*%
X148336000Y-104431500D03*
X147066000Y-104431500D03*
X145796000Y-104431500D03*
X144526000Y-104431500D03*
X143256000Y-104431500D03*
D26*
X145796000Y-110731500D03*
%TD*%
D10*
%TO.C,R20*%
X118872000Y-125857000D03*
X121158000Y-125857000D03*
%TD*%
D18*
%TO.C,D3*%
X190068200Y-124485400D03*
X190068200Y-122199400D03*
%TD*%
D27*
%TO.C,U4*%
X128765300Y-100799900D03*
D28*
X126504700Y-96148525D03*
D29*
X124244100Y-100799900D03*
%TD*%
D18*
%TO.C,D4*%
X198907400Y-124485400D03*
X198907400Y-122199400D03*
%TD*%
D10*
%TO.C,D1*%
X106680000Y-77470000D03*
X104394000Y-77470000D03*
%TD*%
M02*
