M48
; DRILL file {KiCad 7.0.7} date Tue Nov 14 12:33:44 2023
; FORMAT={3:3/ absolute / metric / suppress leading zeros}
; #@! TF.CreationDate,2023-11-14T12:33:44-05:00
; #@! TF.GenerationSoftware,Kicad,Pcbnew,7.0.7
; #@! TF.FileFunction,Plated,1,4,PTH
FMAT,2
METRIC,TZ
; #@! TA.AperFunction,Plated,PTH,ViaDrill
T1C0.400
; #@! TA.AperFunction,Plated,PTH,ComponentDrill
T2C0.800
; #@! TA.AperFunction,Plated,PTH,ComponentDrill
T3C0.965
; #@! TA.AperFunction,Plated,PTH,ComponentDrill
T4C1.000
; #@! TA.AperFunction,Plated,PTH,ComponentDrill
T5C1.016
; #@! TA.AperFunction,Plated,PTH,ComponentDrill
T6C1.270
; #@! TA.AperFunction,Plated,PTH,ComponentDrill
T7C3.175
; #@! TA.AperFunction,Plated,PTH,ComponentDrill
T8C3.200
%
G90
G05
T1
X94512Y-97068
X94639Y-94757
X94664Y-99304
X94741Y-90972
X94766Y-93360
X94842Y-101513
X94868Y-117236
X94893Y-113604
X94944Y-115458
X95096Y-111826
X95274Y-95976
X95325Y-98135
X95528Y-118455
X95680Y-100269
X95706Y-110276
X95833Y-94427
X95909Y-92293
X96468Y-101513
X96469Y-115494
X96519Y-117287
X96620Y-91074
X96620Y-93385
X97408Y-100447
X97636Y-92293
X97942Y-116180
X98246Y-101513
X98373Y-91074
X98474Y-93284
X98552Y-117388
X99160Y-100396
X99212Y-87859
X99440Y-92268
X99466Y-116053
X99973Y-101513
X100075Y-91099
X100227Y-93335
X100786Y-100167
X101016Y-115138
X101091Y-117261
X101167Y-92242
X101167Y-94503
X101395Y-110276
X101421Y-111826
X101649Y-101463
X101776Y-91074
X102005Y-93284
X102132Y-115839
X102208Y-100142
X102234Y-98618
X102259Y-95646
X102259Y-97094
X102310Y-113528
X102311Y-75336
X102616Y-77089
X102640Y-94478
X102743Y-105029
X102768Y-74447
X102792Y-92242
X102895Y-103596
X103073Y-76200
X103275Y-110251
X103300Y-111826
X103326Y-114772
X103326Y-117261
X103529Y-90998
X103683Y-77597
X103835Y-75286
X104088Y-118404
X104316Y-113528
X104342Y-115890
X104470Y-74346
X104699Y-99644
X105002Y-110251
X105078Y-111800
X105104Y-117312
X105256Y-114772
X105385Y-75082
X105613Y-88519
X105791Y-87224
X105816Y-106401
X105967Y-113528
X106069Y-115966
X106094Y-118455
X106729Y-92293
X106856Y-110276
X106882Y-111800
X107163Y-117272
X107417Y-75565
X107441Y-91049
X108026Y-100609
X108077Y-118313
X108228Y-92293
X108533Y-110302
X108558Y-111750
X109117Y-91074
X109245Y-74625
X109296Y-117170
X109855Y-118389
X109904Y-92369
X109981Y-110327
X110465Y-125832
X111047Y-91023
X111176Y-93548
X111531Y-87274
X111809Y-92395
X111936Y-94554
X111936Y-95824
X111962Y-97322
X111987Y-98669
X112649Y-93523
X112724Y-91074
X113081Y-74625
X113587Y-92420
X114148Y-117373
X114173Y-109728
X114376Y-79883
X114516Y-124498
X114629Y-91176
X114833Y-118593
X114960Y-110922
X115037Y-86995
X115037Y-89713
X115543Y-92420
X115824Y-117348
X115849Y-109804
X116483Y-91150
X116484Y-110998
X116586Y-118491
X116916Y-80620
X117397Y-92446
X117450Y-117450
X117500Y-109779
X118059Y-89230
X118237Y-118618
X118339Y-111074
X118339Y-116281
X118364Y-113436
X119151Y-84099
X119177Y-115062
X119202Y-86995
X119253Y-109753
X119278Y-112217
X119278Y-118059
X120066Y-111074
X120091Y-113462
X120371Y-125273
X120396Y-123622
X120904Y-109703
X120955Y-112243
X121030Y-92801
X121030Y-94782
X121106Y-96560
X121157Y-98440
X121207Y-100497
X121284Y-91226
X121614Y-103723
X121691Y-111074
X121715Y-101717
X121842Y-99507
X121893Y-95697
X121893Y-97449
X121919Y-93919
X122198Y-92166
X122707Y-109753
X122784Y-112243
X123417Y-93868
X123469Y-111074
X123596Y-76911
X124384Y-109779
X124511Y-112217
X124993Y-118643
X125298Y-111074
X125374Y-113360
X126390Y-126533
X126414Y-92227
X128473Y-91364
X129386Y-93995
X129845Y-111887
X130429Y-123149
X131393Y-92649
X131418Y-94376
X131418Y-95849
X131418Y-99431
X131469Y-97653
X131469Y-101285
X131547Y-124732
X132714Y-93462
X132739Y-96713
X132764Y-91912
X132790Y-95087
X132790Y-101971
X132815Y-100243
X132841Y-98542
X132842Y-111074
X133007Y-124575
X133984Y-91887
X133984Y-101285
X134060Y-93411
X134085Y-94960
X134315Y-117881
X135203Y-92649
X135203Y-100726
X135279Y-91201
X135304Y-94376
X135304Y-102123
X135892Y-109843
X136093Y-106502
X136093Y-108407
X136295Y-93258
X136371Y-101437
X136397Y-91861
X137514Y-92877
X137514Y-93868
X137590Y-91074
X137667Y-100878
X137719Y-125207
X137743Y-102098
X137795Y-118313
X138632Y-92090
X138683Y-94681
X138708Y-93360
X138886Y-101488
X139700Y-79679
X139776Y-122923
X139800Y-91353
X139800Y-95697
X139826Y-94071
X139876Y-98999
X139902Y-92700
X139927Y-100701
X139942Y-108788
X139978Y-97373
X139979Y-111912
X140029Y-101945
X140056Y-118161
X140614Y-85954
X140894Y-82017
X140919Y-123454
X140933Y-79031
X141262Y-105651
X142088Y-87173
X142469Y-108864
X142850Y-80670
X143180Y-124298
X143408Y-93726
X143993Y-116281
X144221Y-96876
X144450Y-113868
X145059Y-100482
X145444Y-113973
X147422Y-87198
X147422Y-110973
X147701Y-81559
X147969Y-113799
X148692Y-124689
X148742Y-119253
X148819Y-120802
X148862Y-113350
X148971Y-100305
X148996Y-104445
X149047Y-88494
X150139Y-122389
X150406Y-113775
X151461Y-113745
X151638Y-118389
X151816Y-104064
X152146Y-102184
X152500Y-117800
X152623Y-104855
X152908Y-99390
X152955Y-112975
X153645Y-113716
X153789Y-118940
X153949Y-117831
X154127Y-93015
X154217Y-106033
X154965Y-113665
X155723Y-87178
X155753Y-104596
X155992Y-112522
X156007Y-110566
X156489Y-103657
X156515Y-108712
X156769Y-99994
X156896Y-118643
X157810Y-108610
X158369Y-122555
X158547Y-96799
X158877Y-79578
X159143Y-94412
X159436Y-97612
X159766Y-98755
X159969Y-99873
X160205Y-105562
X160528Y-82601
X160680Y-97561
X160681Y-94683
X162128Y-98755
X162382Y-101549
X162712Y-112141
X163812Y-113411
X164719Y-125628
X164836Y-94437
X165760Y-105308
X166294Y-126187
X166759Y-88811
X166948Y-99350
X168808Y-101549
X168935Y-120625
X168986Y-93040
X169824Y-94437
X169875Y-96481
X169938Y-90762
X170713Y-110465
X171745Y-98540
X171831Y-104445
X171905Y-99656
X173330Y-100660
X174297Y-85749
X174396Y-75971
X175733Y-105283
X175920Y-89332
X176251Y-101448
X176454Y-97206
X177089Y-99695
X177775Y-80289
X178029Y-74522
X179172Y-99898
X179248Y-88367
X179299Y-113703
X180289Y-96622
X181458Y-111277
X181889Y-88519
X182956Y-91821
X183972Y-95580
X184658Y-123139
X185674Y-111125
X186639Y-93167
X186639Y-99847
X188036Y-109601
X188366Y-120752
X189683Y-91216
X191389Y-111430
X191481Y-101956
X193345Y-91034
X193573Y-94513
X194234Y-108890
X194285Y-81686
X195021Y-88875
X195123Y-79426
X195961Y-97663
X196506Y-98908
X197231Y-94259
X197383Y-107379
X197841Y-111506
X198222Y-104978
X198281Y-109944
X198697Y-101099
X198984Y-87584
X199060Y-96942
X199720Y-119126
X199771Y-80950
X201143Y-110871
X201625Y-96393
X203327Y-91389
X203385Y-105657
X203581Y-108368
X203657Y-82626
X205181Y-104990
X205791Y-87427
X205816Y-92608
X206477Y-107518
X206883Y-86964
X207645Y-104242
X207645Y-109157
X208636Y-91618
X208966Y-120040
X209728Y-103988
X209753Y-105232
X210007Y-91491
X210414Y-94844
X210972Y-82728
X212344Y-110846
X212420Y-78105
X213982Y-89446
X214274Y-106020
X214325Y-105004
X215976Y-102972
X216789Y-97587
X217449Y-90856
X217932Y-107112
X218059Y-109550
T2
X206449Y-115011
X211331Y-115011
T3
X159842Y-88722
X159842Y-91262
X159842Y-109042
X159842Y-111582
X220802Y-88722
X220802Y-91262
X220802Y-93802
X220802Y-96342
X220802Y-98882
X220802Y-101422
X220802Y-103962
X220802Y-106502
X220802Y-109042
X220802Y-111582
T4
X124460Y-84409
X124460Y-86949
X128016Y-115037
X128778Y-84409
X128778Y-86949
X130556Y-115037
X133096Y-115037
X133274Y-84328
X133274Y-86868
X135636Y-115037
X137541Y-84358
X137541Y-86898
X138176Y-115037
X146482Y-116129
X146487Y-85014
X149022Y-116129
X149027Y-85014
X151562Y-116129
X153167Y-84963
X155707Y-84963
X156083Y-116103
X156362Y-91084
X156362Y-93624
X156362Y-96164
X158623Y-116103
X160020Y-84836
X161163Y-116103
X162560Y-84836
X165100Y-84836
X165151Y-116154
X167691Y-116154
X169621Y-85014
X170231Y-116154
X172161Y-85014
X174244Y-116154
X176784Y-116154
X176860Y-84938
X179324Y-116154
X179400Y-84938
X181864Y-116154
X181940Y-84938
X185801Y-116053
X186131Y-84938
X188341Y-116053
X188671Y-84938
X190881Y-116053
X192918Y-85039
X195351Y-116002
X195458Y-85039
X197891Y-116002
X197998Y-85039
X200431Y-116002
X202184Y-85039
X204724Y-85039
X209118Y-85065
X211658Y-85065
T5
X149352Y-91313
X149352Y-93853
X149352Y-96393
X151892Y-91313
X151892Y-93853
X151892Y-96393
T6
X124841Y-90526
X126797Y-79604
X130708Y-79527
X134874Y-79553
X143358Y-78588
X203225Y-124155
X207721Y-124231
T7
X98425Y-112649
X98576Y-96941
X122199Y-116408
X136549Y-97703
T8
X99746Y-79756
X99746Y-121031
X216586Y-79756
X216586Y-121031
T0
M30
